<?xml version="1.0" encoding="utf-8"?>
<!-- Generator: Adobe Illustrator 17.0.0, SVG Export Plug-In . SVG Version: 6.00 Build 0)  -->
<!DOCTYPE svg PUBLIC "-//W3C//DTD SVG 1.0//EN" "http://www.w3.org/TR/2001/REC-SVG-20010904/DTD/svg10.dtd">
<svg version="1.0" id="Capa_1" xmlns="http://www.w3.org/2000/svg" xmlns:xlink="http://www.w3.org/1999/xlink" x="0px" y="0px"
	 width="229px" height="114px" viewBox="0 0 229 114" enable-background="new 0 0 229 114" xml:space="preserve">
<g>
	<g>
		<g>
			<path fill="#BC89B6" d="M23.35,35.186c0-1.157-0.234-2.143-0.706-2.955c-0.468-0.814-1.195-1.221-2.169-1.221
				c-1.084,0-1.882,0.353-2.385,1.057c-0.508,0.704-0.761,1.49-0.761,2.358c0,1.265,0.408,2.267,1.221,3.009
				c0.814,0.742,1.835,1.384,3.062,1.924c1.227,0.542,2.547,1.092,3.957,1.652s2.728,1.293,3.959,2.194
				c1.229,0.903,2.25,2.088,3.064,3.553c0.814,1.465,1.218,3.368,1.218,5.717c0,4.123-1.174,7.113-3.525,8.973
				c-2.349,1.861-5.745,2.791-10.191,2.791c-2.097,0-3.948-0.169-5.558-0.512c-1.608-0.344-2.964-0.943-4.065-1.79
				c-1.104-0.85-1.944-1.961-2.52-3.336c-0.581-1.374-0.867-3.075-0.867-5.1v-1.354h9.76v0.924c0,1.66,0.303,2.828,0.918,3.495
				s1.409,1.001,2.386,1.001c1.048,0,1.851-0.361,2.413-1.081c0.559-0.723,0.84-1.605,0.84-2.656c0-1.27-0.39-2.267-1.165-3.009
				c-0.779-0.743-1.755-1.374-2.93-1.897c-1.174-0.523-2.449-1.057-3.823-1.598c-1.373-0.545-2.649-1.249-3.821-2.118
				c-1.176-0.867-2.15-2.007-2.928-3.415c-0.781-1.409-1.165-3.253-1.165-5.53c0-3.94,1.048-6.94,3.142-9.003
				c2.097-2.06,5.278-3.089,9.545-3.089c4.412,0,7.6,0.949,9.568,2.845c1.971,1.897,2.953,4.925,2.953,9.081h-9.432v-0.917
				L23.35,35.186L23.35,35.186z"/>
			<path fill="#BC89B6" d="M56.423,24.937l9.435,38.711H55.122l-1.029-6.774h-8.024l-1.031,6.774H34.466l9.273-38.711
				C43.739,24.937,56.423,24.937,56.423,24.937z M50.026,32.852l-2.766,16.43h5.64l-2.764-16.428L50.026,32.852L50.026,32.852z"/>
			<path fill="#BC89B6" d="M83.316,24.937c1.916,0,3.551,0.255,4.908,0.761c1.355,0.504,2.456,1.218,3.306,2.141
				c0.848,0.921,1.462,2.015,1.841,3.281c0.383,1.265,0.572,2.639,0.572,4.12c0,2.603-0.525,4.699-1.573,6.29
				c-1.049,1.591-2.731,2.564-5.043,2.927v0.108c2.421,0.217,4.084,1.068,4.988,2.549c0.903,1.484,1.355,3.525,1.355,6.126v3.308
				c0,0.506,0,1.029,0,1.573c0,0.545,0.019,1.059,0.055,1.546c0.034,0.489,0.092,0.929,0.162,1.329
				c0.072,0.398,0.162,0.706,0.27,0.923c0.144,0.216,0.289,0.425,0.436,0.62c0.144,0.201,0.379,0.394,0.706,0.572v0.54H84.563
				c-0.255-0.504-0.442-1.103-0.568-1.788c-0.13-0.684-0.217-1.376-0.272-2.063c-0.055-0.686-0.092-1.341-0.108-1.979
				c-0.017-0.632-0.028-1.146-0.028-1.544v-2.603c0-1.081-0.055-1.986-0.162-2.711c-0.108-0.72-0.298-1.293-0.567-1.704
				c-0.273-0.415-0.618-0.707-1.029-0.87c-0.417-0.162-0.934-0.247-1.546-0.247h-2.656v15.507H67.54V24.936L83.316,24.937
				L83.316,24.937z M79.63,41.313c1.446,0,2.51-0.425,3.197-1.273c0.689-0.848,1.031-1.961,1.031-3.334
				c0-1.627-0.336-2.781-1.003-3.472c-0.67-0.684-1.762-1.031-3.283-1.031h-1.95v9.109L79.63,41.313L79.63,41.313z"/>
			<path fill="#BC89B6" d="M113.457,32.202c-0.433-0.793-1.137-1.193-2.114-1.193c-0.757,0-1.365,0.198-1.816,0.597
				c-0.453,0.398-0.795,1.104-1.029,2.114c-0.234,1.012-0.389,2.378-0.461,4.095s-0.108,3.876-0.108,6.478
				c0,2.603,0.036,4.761,0.108,6.479s0.226,3.083,0.461,4.093c0.234,1.01,0.578,1.718,1.029,2.114c0.45,0.4,1.059,0.597,1.816,0.597
				c0.615,0,1.123-0.158,1.519-0.462c0.398-0.305,0.703-0.818,0.921-1.543c0.216-0.725,0.369-1.69,0.461-2.9
				c0.089-1.21,0.134-2.739,0.134-4.582h9.757v2.873c0,2.711-0.359,4.935-1.081,6.668c-0.725,1.733-1.682,3.103-2.877,4.096
				c-1.193,0.995-2.56,1.66-4.093,2.008c-1.537,0.342-3.119,0.514-4.746,0.514c-2.817,0-5.13-0.342-6.938-1.028
				c-1.807-0.684-3.217-1.83-4.229-3.442c-1.014-1.604-1.707-3.687-2.086-6.232c-0.379-2.55-0.57-5.63-0.57-9.242
				c0-3.687,0.225-6.815,0.678-9.382c0.451-2.564,1.22-4.643,2.307-6.234c1.085-1.594,2.511-2.744,4.285-3.448
				c1.768-0.704,3.957-1.057,6.559-1.057c2.277,0,4.212,0.289,5.801,0.868c1.59,0.578,2.883,1.402,3.874,2.466
				c0.995,1.068,1.716,2.352,2.171,3.851c0.45,1.501,0.676,3.19,0.676,5.069v2.442h-9.762v-2.171
				C114.11,34.501,113.891,33,113.457,32.202z"/>
			<path fill="#BC89B6" d="M127.34,35.052c0.468-2.55,1.248-4.627,2.332-6.236c1.084-1.608,2.51-2.783,4.284-3.525
				c1.768-0.743,3.937-1.112,6.504-1.112c2.57,0,4.736,0.372,6.51,1.112c1.768,0.742,3.198,1.916,4.287,3.525
				c1.081,1.608,1.858,3.687,2.325,6.236c0.468,2.547,0.706,5.63,0.706,9.243c0,3.617-0.234,6.695-0.706,9.243
				c-0.468,2.547-1.245,4.627-2.325,6.236c-1.085,1.607-2.514,2.753-4.287,3.439c-1.771,0.686-3.938,1.028-6.51,1.028
				c-2.566,0-4.735-0.342-6.504-1.028c-1.768-0.686-3.2-1.832-4.284-3.439c-1.084-1.608-1.863-3.689-2.332-6.236
				c-0.47-2.549-0.704-5.631-0.704-9.243C126.634,40.683,126.867,37.599,127.34,35.052z M137.152,50.773
				c0.075,1.718,0.225,3.083,0.462,4.093c0.234,1.01,0.578,1.718,1.026,2.114c0.454,0.4,1.059,0.597,1.818,0.597
				c0.762,0,1.363-0.198,1.819-0.597c0.454-0.398,0.792-1.104,1.028-2.114s0.387-2.378,0.459-4.093
				c0.077-1.716,0.111-3.876,0.111-6.479c0-2.602-0.034-4.761-0.111-6.478c-0.073-1.718-0.223-3.081-0.459-4.095
				c-0.236-1.01-0.579-1.715-1.028-2.114c-0.456-0.398-1.057-0.597-1.819-0.597c-0.759,0-1.365,0.198-1.818,0.597
				c-0.451,0.398-0.792,1.104-1.026,2.114c-0.234,1.012-0.389,2.378-0.462,4.095c-0.073,1.716-0.108,3.874-0.108,6.478
				C137.044,46.899,137.078,49.06,137.152,50.773z"/>
			<path fill="#666666" d="M200.332,24.937l4.065,22.933h0.111l4.062-22.933h14.425v38.711h-9.431V34.807h-0.111l-5.366,28.842
				h-7.26l-5.37-28.842h-0.106v28.842h-9.431V24.937H200.332z"/>
			<path fill="#666666" d="M181.085,24.937v8.242h-12.851v7.51h10.004v7.913h-10.004v6.806h13.336v8.238h-23.421V24.937H181.085z"/>
		</g>
		<g>
			
				<linearGradient id="SVGID_1_" gradientUnits="userSpaceOnUse" x1="439.8505" y1="1329.0967" x2="439.8505" y2="1367.7993" gradientTransform="matrix(1 0 0 1 -359 -1306)">
				<stop  offset="0.4233" style="stop-color:#FFFFFF;stop-opacity:0.8"/>
				<stop  offset="0.6748" style="stop-color:#FFFFFF;stop-opacity:0"/>
			</linearGradient>
			<path fill="url(#SVGID_1_)" d="M84.048,47.05c0.387,0.592,0.647,1.335,0.784,2.275c0.12,0.8,0.178,1.757,0.178,2.923v2.603
				c0,0.387,0.008,0.889,0.028,1.504c0.017,0.598,0.052,1.241,0.103,1.91c0.052,0.64,0.136,1.284,0.253,1.915
				c0.037,0.22,0.087,0.426,0.144,0.62h7.202c-0.105-0.28-0.189-0.603-0.258-0.979c-0.081-0.439-0.142-0.94-0.181-1.477
				c-0.039-0.517-0.059-1.073-0.059-1.648v-4.88c0-2.321-0.387-4.135-1.145-5.385c-0.662-1.081-1.938-1.694-3.899-1.871L85.9,44.444
				V41.81l1.204-0.189c1.918-0.298,3.25-1.053,4.074-2.305c0.887-1.346,1.335-3.197,1.335-5.503c0-1.335-0.17-2.583-0.511-3.709
				c-0.319-1.065-0.818-1.955-1.526-2.725c-0.692-0.75-1.618-1.348-2.758-1.772c-1.187-0.444-2.672-0.67-4.407-0.67h-14.35v35.857
				h7.23V45.292h4.084c0.8,0,1.473,0.109,2.064,0.339C83.041,45.908,83.611,46.38,84.048,47.05z M79.63,41.313h-3.432V29.354h3.376
				c1.91,0,3.356,0.49,4.301,1.46c0.948,0.974,1.407,2.435,1.407,4.466c0,1.699-0.454,3.123-1.348,4.23
				C82.969,40.704,81.518,41.313,79.63,41.313z"/>
			
				<linearGradient id="SVGID_2_" gradientUnits="userSpaceOnUse" x1="469.829" y1="1329.095" x2="469.829" y2="1367.7998" gradientTransform="matrix(1 0 0 1 -359 -1306)">
				<stop  offset="0.4233" style="stop-color:#FFFFFF;stop-opacity:0.8"/>
				<stop  offset="0.6748" style="stop-color:#FFFFFF;stop-opacity:0"/>
			</linearGradient>
			<path fill="url(#SVGID_2_)" d="M121.738,55.655c0.648-1.552,0.974-3.612,0.974-6.12v-1.448h-6.916
				c-0.022,1.252-0.062,2.344-0.131,3.262c-0.098,1.329-0.269,2.377-0.518,3.204c-0.301,1.01-0.776,1.771-1.415,2.263
				c-0.648,0.503-1.455,0.756-2.389,0.756c-1.113,0-2.043-0.319-2.758-0.953c-0.684-0.603-1.17-1.537-1.476-2.862
				c-0.259-1.109-0.422-2.535-0.495-4.357c-0.075-1.712-0.111-3.91-0.111-6.537s0.034-4.829,0.111-6.542
				c0.073-1.822,0.237-3.245,0.495-4.355c0.306-1.321,0.789-2.257,1.477-2.862c0.718-0.631,1.646-0.951,2.756-0.951
				c1.49,0,2.686,0.687,3.368,1.935c0.562,1.032,0.825,2.678,0.825,5.183v0.742h6.906v-1.01c0-1.729-0.208-3.297-0.617-4.658
				c-0.384-1.276-1.009-2.385-1.847-3.284c-0.837-0.892-1.952-1.601-3.32-2.099c-1.429-0.518-3.217-0.782-5.313-0.782
				c-2.408,0-4.438,0.323-6.033,0.957c-1.515,0.601-2.702,1.557-3.632,2.922c-0.965,1.416-1.665,3.328-2.079,5.68
				c-0.433,2.469-0.654,5.539-0.654,9.132c0,3.528,0.186,6.568,0.553,9.033c0.347,2.344,0.981,4.255,1.883,5.689
				c0.85,1.351,2.004,2.292,3.528,2.872c1.637,0.618,3.801,0.937,6.434,0.937c1.515,0,3.006-0.158,4.437-0.481
				c1.324-0.292,2.463-0.851,3.49-1.704C120.277,58.363,121.107,57.169,121.738,55.655z"/>
			
				<linearGradient id="SVGID_3_" gradientUnits="userSpaceOnUse" x1="499.457" y1="1329.0934" x2="499.457" y2="1367.7975" gradientTransform="matrix(1 0 0 1 -359 -1306)">
				<stop  offset="0.4233" style="stop-color:#FFFFFF;stop-opacity:0.8"/>
				<stop  offset="0.6748" style="stop-color:#FFFFFF;stop-opacity:0"/>
			</linearGradient>
			<path fill="url(#SVGID_3_)" d="M150.065,57.55c0.968-1.437,1.68-3.353,2.114-5.694c0.453-2.455,0.681-5.477,0.681-8.987
				c0-3.511-0.228-6.534-0.681-8.987c-0.433-2.341-1.145-4.26-2.114-5.697c-0.935-1.385-2.13-2.369-3.653-3.006
				c-1.587-0.664-3.59-1.001-5.956-1.001s-4.366,0.336-5.956,1.001c-1.524,0.637-2.717,1.621-3.653,3.006
				c-0.97,1.441-1.68,3.358-2.111,5.697c-0.453,2.45-0.682,5.474-0.682,8.987c0,3.511,0.228,6.535,0.682,8.987
				c0.429,2.339,1.14,4.259,2.111,5.694c0.928,1.377,2.111,2.328,3.614,2.911c1.599,0.62,3.615,0.932,5.99,0.932
				c2.378,0,4.393-0.311,5.994-0.932C147.958,59.876,149.14,58.923,150.065,57.55z M145.188,49.407
				c-0.075,1.824-0.239,3.25-0.497,4.355c-0.306,1.326-0.789,2.258-1.474,2.866c-0.717,0.629-1.644,0.949-2.759,0.949
				c-1.112,0-2.043-0.32-2.759-0.951c-0.684-0.604-1.165-1.538-1.479-2.864c-0.251-1.109-0.412-2.531-0.492-4.355
				c-0.075-1.73-0.108-3.87-0.108-6.54c0-2.67,0.033-4.808,0.108-6.54c0.081-1.822,0.24-3.248,0.492-4.357
				c0.311-1.32,0.792-2.255,1.479-2.862c0.718-0.632,1.648-0.951,2.759-0.951s2.039,0.32,2.758,0.949
				c0.689,0.607,1.17,1.543,1.476,2.864c0.258,1.106,0.423,2.533,0.497,4.357c0.077,1.738,0.109,3.937,0.109,6.54
				C145.297,45.47,145.264,47.672,145.188,49.407z"/>
			
				<linearGradient id="SVGID_4_" gradientUnits="userSpaceOnUse" x1="409.156" y1="1329.0967" x2="409.156" y2="1367.7991" gradientTransform="matrix(1 0 0 1 -359 -1306)">
				<stop  offset="0.4233" style="stop-color:#FFFFFF;stop-opacity:0.8"/>
				<stop  offset="0.6748" style="stop-color:#FFFFFF;stop-opacity:0"/>
			</linearGradient>
			<path fill="url(#SVGID_4_)" d="M44.86,24.937l-8.587,35.857h7.54l1.029-6.776h10.475l1.028,6.776h7.694L55.3,24.937H44.86z
				 M45.574,49.282l3.245-19.28h2.52l3.245,19.28H45.574z"/>
			
				<linearGradient id="SVGID_5_" gradientUnits="userSpaceOnUse" x1="379.449" y1="1329.0979" x2="379.449" y2="1367.7993" gradientTransform="matrix(1 0 0 1 -359 -1306)">
				<stop  offset="0.4233" style="stop-color:#FFFFFF;stop-opacity:0.8"/>
				<stop  offset="0.6748" style="stop-color:#FFFFFF;stop-opacity:0"/>
			</linearGradient>
			<path fill="url(#SVGID_5_)" d="M31.349,46.03c-0.711-1.277-1.605-2.319-2.663-3.097c-1.126-0.828-2.352-1.507-3.64-2.019
				c-1.415-0.561-2.764-1.124-4.006-1.673c-1.365-0.601-2.524-1.334-3.448-2.177c-1.118-1.015-1.687-2.385-1.687-4.062
				c0-1.171,0.347-2.243,1.026-3.19c0.542-0.753,1.594-1.651,3.545-1.651c1.474,0,2.686,0.686,3.403,1.933
				c0.522,0.904,0.82,1.968,0.884,3.164h6.553c-0.195-3.006-1.026-5.233-2.474-6.629c-1.688-1.626-4.574-2.447-8.581-2.447
				c-3.859,0-6.732,0.901-8.542,2.681C9.915,28.635,9,31.32,9,34.848c0,2.022,0.333,3.653,0.987,4.84
				c0.675,1.223,1.524,2.218,2.525,2.958c1.071,0.792,2.249,1.441,3.5,1.936c1.37,0.54,2.675,1.085,3.879,1.624
				c1.316,0.587,2.438,1.32,3.331,2.166c1.068,1.017,1.608,2.377,1.608,4.042c0,1.368-0.384,2.556-1.14,3.529
				c-0.831,1.073-2.054,1.64-3.539,1.64c-1.37,0-2.56-0.508-3.437-1.465c-0.8-0.871-1.221-2.169-1.287-3.959H8.51
				c0.006,1.793,0.261,3.298,0.756,4.473c0.486,1.151,1.163,2.057,2.077,2.758c0.928,0.712,2.104,1.227,3.495,1.524
				c1.502,0.322,3.273,0.484,5.26,0.484c4.098,0,7.226-0.834,9.306-2.481c2.008-1.591,2.984-4.16,2.984-7.857
				C32.391,48.961,32.038,47.273,31.349,46.03z"/>
			
				<linearGradient id="SVGID_6_" gradientUnits="userSpaceOnUse" x1="528.857" y1="1329.0967" x2="528.857" y2="1367.7991" gradientTransform="matrix(1 0 0 1 -359 -1306)">
				<stop  offset="0.4233" style="stop-color:#FFFFFF;stop-opacity:0.8"/>
				<stop  offset="0.6748" style="stop-color:#FFFFFF;stop-opacity:0"/>
			</linearGradient>
			<polygon fill="url(#SVGID_6_)" points="159.572,60.796 180.142,60.796 180.142,55.408 166.807,55.408 166.807,45.751 
				176.808,45.751 176.808,40.689 166.807,40.689 166.807,30.328 179.658,30.328 179.658,24.937 159.572,24.937 			"/>
			
				<linearGradient id="SVGID_7_" gradientUnits="userSpaceOnUse" x1="563.4525" y1="1329.0966" x2="563.4525" y2="1367.7991" gradientTransform="matrix(1 0 0 1 -359 -1306)">
				<stop  offset="0.4233" style="stop-color:#FFFFFF;stop-opacity:0.8"/>
				<stop  offset="0.6748" style="stop-color:#FFFFFF;stop-opacity:0"/>
			</linearGradient>
			<polygon fill="url(#SVGID_7_)" points="214.982,31.954 214.982,60.796 221.569,60.796 221.569,24.937 209.766,24.937 
				205.701,47.87 203.203,47.87 199.135,24.937 187.336,24.937 187.336,60.796 193.915,60.796 193.915,31.954 196.636,31.954 
				202.003,60.796 206.899,60.796 212.265,31.954 			"/>
		</g>
	</g>
	<g>
		<path fill="#666666" d="M5.185,78.629l1.09-0.106c0.066,0.364,0.197,0.636,0.4,0.807c0.2,0.169,0.47,0.256,0.812,0.256
			c0.359,0,0.631-0.08,0.815-0.231s0.275-0.331,0.275-0.536c0-0.133-0.037-0.244-0.116-0.337c-0.078-0.087-0.212-0.172-0.403-0.244
			c-0.133-0.045-0.429-0.125-0.898-0.242c-0.6-0.147-1.021-0.334-1.265-0.55c-0.34-0.305-0.512-0.676-0.512-1.117
			c0-0.286,0.081-0.548,0.24-0.793c0.161-0.242,0.392-0.431,0.692-0.564c0.301-0.128,0.667-0.189,1.093-0.189
			c0.696,0,1.22,0.153,1.573,0.459c0.351,0.305,0.536,0.714,0.554,1.22l-1.12,0.05c-0.048-0.29-0.15-0.492-0.308-0.618
			c-0.159-0.131-0.395-0.189-0.711-0.189c-0.326,0-0.581,0.069-0.765,0.198c-0.119,0.087-0.178,0.2-0.178,0.347
			c0,0.134,0.056,0.242,0.167,0.339c0.141,0.12,0.486,0.242,1.029,0.372c0.547,0.13,0.948,0.259,1.21,0.4
			c0.262,0.139,0.464,0.328,0.614,0.568c0.15,0.237,0.222,0.534,0.222,0.881c0,0.319-0.089,0.618-0.264,0.895
			c-0.178,0.28-0.426,0.484-0.75,0.618c-0.323,0.137-0.726,0.205-1.207,0.205c-0.701,0-1.24-0.162-1.618-0.489
			C5.481,79.721,5.259,79.248,5.185,78.629z"/>
		<path fill="#666666" d="M10.631,75.867v-0.984h1.063v0.984H10.631z M10.631,80.435v-4.02h1.063v4.02H10.631z"/>
		<path fill="#666666" d="M12.411,79.287l1.067-0.162c0.045,0.208,0.137,0.364,0.276,0.47c0.137,0.103,0.333,0.162,0.584,0.162
			c0.273,0,0.481-0.052,0.62-0.153c0.092-0.073,0.139-0.166,0.139-0.286c0-0.083-0.027-0.147-0.077-0.2
			c-0.053-0.05-0.17-0.097-0.354-0.139c-0.859-0.189-1.402-0.362-1.632-0.518c-0.319-0.219-0.478-0.515-0.478-0.903
			c0-0.35,0.137-0.639,0.414-0.879c0.275-0.237,0.701-0.354,1.279-0.354c0.551,0,0.959,0.086,1.226,0.269s0.453,0.447,0.553,0.793
			l-1.004,0.187c-0.042-0.153-0.125-0.275-0.244-0.356s-0.292-0.13-0.512-0.13c-0.281,0-0.483,0.041-0.603,0.123
			c-0.08,0.055-0.122,0.128-0.122,0.214c0,0.08,0.034,0.136,0.106,0.189c0.095,0.072,0.425,0.172,0.995,0.297
			c0.567,0.133,0.96,0.29,1.185,0.473c0.223,0.189,0.334,0.453,0.334,0.792c0,0.365-0.155,0.684-0.462,0.945
			c-0.306,0.265-0.762,0.403-1.366,0.403c-0.548,0-0.981-0.111-1.301-0.334C12.717,79.969,12.511,79.67,12.411,79.287z"/>
		<path fill="#666666" d="M18.94,76.415v0.846h-0.728v1.621c0,0.328,0.008,0.514,0.022,0.57c0.014,0.053,0.045,0.098,0.095,0.134
			c0.048,0.033,0.109,0.053,0.18,0.053c0.098,0,0.24-0.033,0.426-0.103l0.091,0.828c-0.247,0.106-0.526,0.161-0.84,0.161
			c-0.191,0-0.364-0.03-0.518-0.098c-0.155-0.062-0.267-0.144-0.339-0.244c-0.073-0.103-0.122-0.242-0.15-0.412
			c-0.023-0.126-0.033-0.375-0.033-0.751v-1.754h-0.489V76.42h0.489v-0.804l1.067-0.62v1.42L18.94,76.415L18.94,76.415z"/>
		<path fill="#666666" d="M22.007,79.156l1.06,0.18c-0.136,0.39-0.351,0.682-0.647,0.892c-0.294,0.198-0.661,0.301-1.106,0.301
			c-0.696,0-1.215-0.233-1.551-0.684c-0.265-0.364-0.398-0.831-0.398-1.384c0-0.673,0.173-1.19,0.522-1.566
			c0.348-0.376,0.787-0.567,1.323-0.567c0.598,0,1.07,0.195,1.415,0.592c0.347,0.398,0.512,1.001,0.495,1.815h-2.664
			c0.008,0.315,0.094,0.562,0.256,0.736c0.164,0.176,0.369,0.261,0.614,0.261c0.167,0,0.306-0.042,0.422-0.134
			C21.864,79.501,21.95,79.359,22.007,79.156z M22.067,78.08c-0.008-0.308-0.087-0.543-0.239-0.703
			c-0.151-0.159-0.336-0.244-0.553-0.244c-0.231,0-0.423,0.083-0.576,0.25c-0.15,0.172-0.225,0.403-0.222,0.689L22.067,78.08
			L22.067,78.08z"/>
		<path fill="#666666" d="M23.909,76.415h0.981v0.548c0.351-0.426,0.768-0.639,1.252-0.639c0.258,0,0.481,0.053,0.67,0.159
			c0.189,0.106,0.347,0.265,0.465,0.481c0.176-0.216,0.367-0.373,0.572-0.481c0.203-0.105,0.422-0.159,0.654-0.159
			c0.295,0,0.545,0.061,0.748,0.181c0.205,0.122,0.358,0.297,0.458,0.526c0.073,0.175,0.109,0.453,0.109,0.834v2.57h-1.063v-2.299
			c0-0.4-0.036-0.654-0.111-0.77c-0.097-0.153-0.248-0.23-0.454-0.23c-0.148,0-0.289,0.045-0.419,0.136
			c-0.131,0.089-0.228,0.223-0.286,0.4c-0.059,0.176-0.087,0.456-0.087,0.832v1.93h-1.063v-2.203c0-0.392-0.019-0.642-0.058-0.756
			c-0.037-0.116-0.095-0.197-0.176-0.253c-0.08-0.055-0.187-0.081-0.323-0.081c-0.164,0-0.311,0.042-0.444,0.134
			c-0.131,0.089-0.225,0.219-0.283,0.383c-0.058,0.167-0.086,0.445-0.086,0.829v1.958h-1.063v-4.032h0.007V76.415z"/>
		<path fill="#666666" d="M31.677,77.641l-0.965-0.175c0.109-0.389,0.297-0.675,0.561-0.862c0.265-0.187,0.659-0.281,1.182-0.281
			c0.475,0,0.828,0.055,1.06,0.169c0.231,0.111,0.395,0.253,0.489,0.426c0.095,0.172,0.142,0.49,0.142,0.951l-0.012,1.242
			c0,0.35,0.017,0.615,0.05,0.781c0.034,0.169,0.098,0.35,0.191,0.542h-1.051c-0.027-0.07-0.062-0.176-0.102-0.315
			c-0.019-0.064-0.03-0.103-0.037-0.125c-0.181,0.178-0.376,0.309-0.582,0.398c-0.206,0.089-0.426,0.134-0.662,0.134
			c-0.414,0-0.739-0.112-0.979-0.34c-0.237-0.222-0.356-0.509-0.356-0.848c0-0.228,0.053-0.429,0.162-0.611
			c0.108-0.18,0.261-0.312,0.456-0.406c0.195-0.097,0.478-0.176,0.846-0.247c0.497-0.089,0.842-0.183,1.032-0.264v-0.105
			c0-0.197-0.05-0.351-0.15-0.437c-0.102-0.081-0.294-0.13-0.572-0.13c-0.189,0-0.337,0.036-0.444,0.111
			C31.829,77.324,31.744,77.454,31.677,77.641z M33.098,78.503c-0.134,0.045-0.351,0.1-0.647,0.164
			c-0.295,0.062-0.489,0.128-0.579,0.187c-0.137,0.097-0.208,0.223-0.208,0.375c0,0.145,0.056,0.278,0.167,0.387
			c0.109,0.108,0.251,0.162,0.423,0.162c0.191,0,0.373-0.064,0.548-0.189c0.13-0.097,0.214-0.212,0.255-0.351
			c0.028-0.089,0.041-0.264,0.041-0.517V78.503z"/>
		<path fill="#666666" d="M41.034,80.435h-0.987v-0.592c-0.164,0.23-0.358,0.403-0.582,0.514c-0.223,0.108-0.448,0.169-0.675,0.169
			c-0.462,0-0.857-0.191-1.187-0.561c-0.328-0.37-0.495-0.892-0.495-1.555c0-0.684,0.161-1.202,0.483-1.555
			c0.32-0.354,0.725-0.531,1.215-0.531c0.448,0,0.837,0.187,1.165,0.561v-2h1.062L41.034,80.435L41.034,80.435z M38.195,78.336
			c0,0.429,0.059,0.742,0.178,0.934c0.172,0.275,0.412,0.414,0.72,0.414c0.245,0,0.453-0.102,0.625-0.309
			c0.172-0.211,0.258-0.518,0.258-0.934c0-0.464-0.083-0.795-0.25-0.999c-0.167-0.198-0.379-0.3-0.64-0.3
			c-0.251,0-0.464,0.102-0.632,0.297C38.28,77.638,38.195,77.938,38.195,78.336z"/>
		<path fill="#666666" d="M44.411,79.156l1.06,0.18c-0.136,0.39-0.351,0.682-0.647,0.892c-0.294,0.198-0.662,0.301-1.104,0.301
			c-0.698,0-1.217-0.233-1.552-0.684c-0.264-0.364-0.397-0.831-0.397-1.384c0-0.673,0.173-1.19,0.522-1.566
			c0.348-0.376,0.787-0.567,1.323-0.567c0.598,0,1.07,0.195,1.415,0.592c0.348,0.398,0.514,1.001,0.497,1.815h-2.664
			c0.008,0.315,0.094,0.562,0.256,0.736c0.164,0.176,0.369,0.261,0.614,0.261c0.167,0,0.306-0.042,0.422-0.134
			C44.265,79.501,44.353,79.359,44.411,79.156z M44.473,78.08c-0.008-0.308-0.086-0.543-0.237-0.703
			c-0.151-0.159-0.337-0.244-0.554-0.244c-0.231,0-0.423,0.083-0.575,0.25c-0.15,0.172-0.225,0.403-0.223,0.689L44.473,78.08
			L44.473,78.08z"/>
		<path fill="#666666" d="M53.271,80.435h-1.218l-0.484-1.262H49.35l-0.458,1.262h-1.188l2.16-5.552h1.185L53.271,80.435z
			 M51.21,78.237l-0.765-2.058l-0.748,2.058H51.21z"/>
		<path fill="#666666" d="M57.364,77.603l-1.048,0.187c-0.034-0.208-0.116-0.364-0.24-0.472c-0.126-0.105-0.287-0.159-0.487-0.159
			c-0.264,0-0.476,0.091-0.634,0.273c-0.158,0.186-0.236,0.489-0.236,0.918c0,0.478,0.08,0.814,0.24,1.01
			c0.159,0.195,0.375,0.297,0.645,0.297c0.201,0,0.367-0.058,0.495-0.173c0.13-0.116,0.22-0.312,0.273-0.595l1.045,0.181
			c-0.109,0.478-0.317,0.84-0.623,1.084s-0.721,0.369-1.238,0.369c-0.587,0-1.054-0.187-1.405-0.556
			c-0.35-0.372-0.525-0.887-0.525-1.541c0-0.664,0.176-1.177,0.528-1.548c0.351-0.367,0.825-0.554,1.423-0.554
			c0.49,0,0.879,0.105,1.168,0.315C57.029,76.849,57.236,77.169,57.364,77.603z"/>
		<path fill="#666666" d="M61.676,77.603l-1.049,0.187c-0.034-0.208-0.116-0.364-0.24-0.472c-0.126-0.105-0.287-0.159-0.487-0.159
			c-0.264,0-0.476,0.091-0.634,0.273c-0.158,0.186-0.236,0.489-0.236,0.918c0,0.478,0.08,0.814,0.24,1.01
			c0.159,0.195,0.376,0.297,0.645,0.297c0.201,0,0.367-0.058,0.497-0.173s0.22-0.312,0.273-0.595l1.045,0.181
			c-0.108,0.478-0.315,0.84-0.625,1.084c-0.306,0.244-0.72,0.369-1.237,0.369c-0.587,0-1.056-0.187-1.407-0.556
			c-0.35-0.372-0.523-0.887-0.523-1.541c0-0.664,0.176-1.177,0.526-1.548c0.351-0.367,0.825-0.554,1.423-0.554
			c0.489,0,0.879,0.105,1.17,0.315C61.339,76.849,61.548,77.169,61.676,77.603z"/>
		<path fill="#666666" d="M64.81,79.156l1.06,0.18c-0.136,0.39-0.351,0.682-0.647,0.892c-0.294,0.198-0.661,0.301-1.104,0.301
			c-0.698,0-1.217-0.233-1.551-0.684c-0.265-0.364-0.397-0.831-0.397-1.384c0-0.673,0.173-1.19,0.522-1.566
			c0.348-0.376,0.787-0.567,1.321-0.567c0.598,0,1.07,0.195,1.415,0.592c0.348,0.398,0.512,1.001,0.495,1.815H63.26
			c0.008,0.315,0.094,0.562,0.256,0.736c0.164,0.176,0.37,0.261,0.614,0.261c0.167,0,0.308-0.042,0.422-0.134
			C64.663,79.501,64.753,79.359,64.81,79.156z M64.87,78.08c-0.008-0.308-0.087-0.543-0.239-0.703
			c-0.151-0.159-0.336-0.244-0.553-0.244c-0.231,0-0.423,0.083-0.575,0.25c-0.15,0.172-0.225,0.403-0.223,0.689L64.87,78.08
			L64.87,78.08z"/>
		<path fill="#666666" d="M66.417,79.287l1.068-0.162c0.045,0.208,0.137,0.364,0.275,0.47c0.139,0.103,0.334,0.162,0.584,0.162
			c0.275,0,0.483-0.052,0.62-0.153c0.092-0.073,0.137-0.166,0.137-0.286c0-0.083-0.027-0.147-0.077-0.2
			c-0.053-0.05-0.17-0.097-0.354-0.139c-0.859-0.189-1.402-0.362-1.63-0.518c-0.319-0.219-0.478-0.515-0.478-0.903
			c0-0.35,0.137-0.639,0.412-0.879c0.275-0.237,0.703-0.354,1.279-0.354c0.551,0,0.957,0.086,1.226,0.269
			c0.267,0.183,0.453,0.447,0.553,0.793l-1.004,0.187c-0.042-0.153-0.125-0.275-0.244-0.356s-0.292-0.13-0.514-0.13
			c-0.281,0-0.481,0.041-0.601,0.123c-0.08,0.055-0.122,0.128-0.122,0.214c0,0.08,0.034,0.136,0.106,0.189
			c0.095,0.072,0.426,0.172,0.995,0.297c0.567,0.133,0.962,0.29,1.187,0.473c0.223,0.189,0.334,0.453,0.334,0.792
			c0,0.365-0.155,0.684-0.462,0.945c-0.306,0.265-0.762,0.403-1.365,0.403c-0.55,0-0.982-0.111-1.301-0.334
			C66.726,79.969,66.516,79.67,66.417,79.287z"/>
		<path fill="#666666" d="M70.857,78.367c0-0.353,0.086-0.695,0.261-1.024c0.175-0.331,0.42-0.584,0.739-0.757
			c0.32-0.175,0.676-0.261,1.07-0.261c0.609,0,1.106,0.197,1.496,0.592c0.389,0.397,0.582,0.895,0.582,1.496
			c0,0.611-0.197,1.113-0.589,1.513s-0.887,0.603-1.482,0.603c-0.367,0-0.72-0.081-1.054-0.25c-0.333-0.166-0.587-0.411-0.762-0.732
			C70.943,79.224,70.857,78.829,70.857,78.367z M71.947,78.425c0,0.397,0.095,0.703,0.284,0.915
			c0.189,0.212,0.423,0.319,0.701,0.319s0.512-0.106,0.698-0.319c0.189-0.212,0.283-0.522,0.283-0.923
			c0-0.398-0.094-0.698-0.283-0.907c-0.187-0.214-0.42-0.319-0.698-0.319c-0.276,0-0.512,0.105-0.701,0.319
			C72.042,77.719,71.947,78.025,71.947,78.425z"/>
		<path fill="#666666" d="M75.814,79.37h1.062v0.761c0,0.308-0.027,0.554-0.078,0.729c-0.053,0.178-0.155,0.339-0.3,0.479
			c-0.147,0.137-0.334,0.248-0.564,0.334l-0.208-0.44c0.216-0.07,0.367-0.166,0.459-0.294c0.089-0.125,0.136-0.295,0.142-0.508
			h-0.514L75.814,79.37L75.814,79.37z"/>
		<path fill="#666666" d="M80.158,80.435v-5.552h2.357c0.593,0,1.024,0.052,1.295,0.15c0.267,0.102,0.483,0.28,0.645,0.534
			c0.162,0.253,0.244,0.547,0.244,0.873c0,0.419-0.123,0.761-0.367,1.032c-0.244,0.273-0.612,0.442-1.098,0.512
			c0.244,0.139,0.442,0.295,0.6,0.464s0.37,0.467,0.637,0.898l0.678,1.082h-1.34l-0.81-1.212c-0.287-0.433-0.484-0.703-0.59-0.814
			c-0.105-0.114-0.217-0.189-0.336-0.233c-0.12-0.039-0.308-0.061-0.564-0.061h-0.228v2.316H80.16v0.011H80.158z M81.276,77.23
			h0.831c0.537,0,0.873-0.023,1.006-0.069c0.133-0.045,0.239-0.126,0.315-0.236c0.077-0.111,0.114-0.245,0.114-0.414
			c0-0.189-0.05-0.342-0.15-0.456s-0.24-0.189-0.423-0.219c-0.089-0.012-0.362-0.023-0.817-0.023h-0.876
			C81.276,75.814,81.276,77.23,81.276,77.23z"/>
		<path fill="#666666" d="M88.071,79.156l1.06,0.18c-0.136,0.39-0.351,0.682-0.647,0.892c-0.294,0.198-0.662,0.301-1.104,0.301
			c-0.698,0-1.217-0.233-1.552-0.684c-0.265-0.364-0.397-0.831-0.397-1.384c0-0.673,0.173-1.19,0.522-1.566
			c0.348-0.376,0.787-0.567,1.323-0.567c0.598,0,1.07,0.195,1.415,0.592c0.347,0.398,0.511,1.001,0.495,1.815h-2.664
			c0.008,0.315,0.094,0.562,0.256,0.736c0.164,0.176,0.369,0.261,0.614,0.261c0.166,0,0.306-0.042,0.422-0.134
			C87.929,79.501,88.013,79.359,88.071,79.156z M88.132,78.08c-0.008-0.308-0.087-0.543-0.237-0.703
			c-0.151-0.159-0.337-0.244-0.554-0.244c-0.231,0-0.423,0.083-0.575,0.25c-0.15,0.172-0.226,0.403-0.222,0.689L88.132,78.08
			L88.132,78.08z"/>
		<path fill="#666666" d="M93.562,77.603l-1.048,0.187c-0.034-0.208-0.116-0.364-0.24-0.472c-0.126-0.105-0.287-0.159-0.487-0.159
			c-0.264,0-0.476,0.091-0.634,0.273c-0.158,0.186-0.236,0.489-0.236,0.918c0,0.478,0.08,0.814,0.24,1.01
			c0.159,0.195,0.375,0.297,0.645,0.297c0.201,0,0.367-0.058,0.495-0.173c0.13-0.116,0.22-0.312,0.273-0.595l1.045,0.181
			c-0.109,0.478-0.315,0.84-0.623,1.084s-0.721,0.369-1.238,0.369c-0.587,0-1.054-0.187-1.405-0.556
			c-0.35-0.372-0.525-0.887-0.525-1.541c0-0.664,0.176-1.177,0.526-1.548c0.351-0.367,0.825-0.554,1.423-0.554
			c0.49,0,0.879,0.105,1.168,0.315C93.226,76.849,93.434,77.169,93.562,77.603z"/>
		<path fill="#666666" d="M96.212,76.415v0.846h-0.728v1.621c0,0.328,0.008,0.514,0.022,0.57c0.014,0.053,0.045,0.098,0.094,0.134
			c0.048,0.033,0.109,0.053,0.181,0.053c0.098,0,0.24-0.033,0.426-0.103l0.091,0.828c-0.247,0.106-0.526,0.161-0.84,0.161
			c-0.191,0-0.364-0.03-0.518-0.098c-0.155-0.062-0.267-0.144-0.339-0.244c-0.072-0.103-0.122-0.242-0.148-0.412
			c-0.023-0.126-0.033-0.375-0.033-0.751v-1.754h-0.49V76.42h0.489v-0.804l1.067-0.62v1.42L96.212,76.415L96.212,76.415z"/>
		<path fill="#666666" d="M96.947,75.867v-0.984h1.063v0.984H96.947z M96.947,80.435v-4.02h1.063v4.02H96.947z"/>
		<path fill="#666666" d="M98.638,76.415h0.59v-0.303c0-0.34,0.034-0.59,0.108-0.756c0.072-0.167,0.205-0.301,0.398-0.406
			c0.192-0.105,0.436-0.156,0.731-0.156c0.301,0,0.6,0.045,0.89,0.134l-0.142,0.74c-0.17-0.039-0.333-0.059-0.489-0.059
			c-0.153,0-0.264,0.034-0.331,0.108c-0.066,0.07-0.1,0.211-0.1,0.415v0.284h0.795v0.834h-0.796v3.183h-1.063V77.25h-0.59
			C98.638,77.251,98.638,76.415,98.638,76.415z"/>
		<path fill="#666666" d="M101.685,75.867v-0.984h1.063v0.984H101.685z M101.685,80.435v-4.02h1.063v4.02H101.685z"/>
		<path fill="#666666" d="M107.343,77.603l-1.048,0.187c-0.034-0.208-0.114-0.364-0.24-0.472c-0.125-0.105-0.287-0.159-0.487-0.159
			c-0.264,0-0.476,0.091-0.634,0.273c-0.158,0.186-0.236,0.489-0.236,0.918c0,0.478,0.081,0.814,0.24,1.01
			c0.159,0.195,0.376,0.297,0.645,0.297c0.201,0,0.367-0.058,0.495-0.173c0.13-0.116,0.22-0.312,0.273-0.595l1.045,0.181
			c-0.108,0.478-0.315,0.84-0.623,1.084s-0.721,0.369-1.237,0.369c-0.587,0-1.056-0.187-1.405-0.556
			c-0.35-0.372-0.525-0.887-0.525-1.541c0-0.664,0.176-1.177,0.526-1.548c0.351-0.367,0.825-0.554,1.423-0.554
			c0.489,0,0.878,0.105,1.168,0.315C107.007,76.849,107.215,77.169,107.343,77.603z"/>
		<path fill="#666666" d="M108.942,77.641l-0.965-0.175c0.108-0.389,0.295-0.675,0.562-0.862c0.265-0.187,0.657-0.281,1.181-0.281
			c0.475,0,0.828,0.055,1.059,0.169c0.233,0.111,0.398,0.253,0.49,0.426c0.094,0.172,0.142,0.49,0.142,0.951L111.4,79.11
			c0,0.35,0.016,0.615,0.05,0.781c0.033,0.169,0.097,0.353,0.189,0.542h-1.051c-0.028-0.072-0.061-0.178-0.102-0.315
			c-0.017-0.064-0.03-0.103-0.037-0.125c-0.183,0.178-0.376,0.306-0.584,0.398c-0.205,0.087-0.428,0.134-0.662,0.134
			c-0.412,0-0.739-0.112-0.979-0.34c-0.237-0.222-0.356-0.511-0.356-0.848c0-0.228,0.053-0.429,0.162-0.611
			c0.109-0.181,0.261-0.312,0.458-0.406c0.195-0.097,0.478-0.176,0.845-0.247c0.498-0.092,0.842-0.183,1.035-0.264v-0.105
			c0-0.2-0.05-0.351-0.151-0.437c-0.1-0.084-0.292-0.13-0.57-0.13c-0.189,0-0.336,0.036-0.444,0.111
			C109.097,77.324,109.008,77.454,108.942,77.641z M110.366,78.503c-0.136,0.045-0.351,0.1-0.648,0.164
			c-0.295,0.062-0.489,0.128-0.579,0.187c-0.139,0.097-0.206,0.223-0.206,0.375c0,0.145,0.056,0.278,0.167,0.387
			c0.108,0.108,0.25,0.162,0.423,0.162c0.192,0,0.373-0.064,0.548-0.189c0.13-0.097,0.216-0.212,0.255-0.351
			c0.027-0.089,0.041-0.264,0.041-0.517L110.366,78.503L110.366,78.503z"/>
		<path fill="#666666" d="M115.965,77.603l-1.053,0.187c-0.033-0.208-0.114-0.364-0.239-0.472c-0.125-0.105-0.287-0.159-0.487-0.159
			c-0.265,0-0.478,0.091-0.634,0.273c-0.158,0.186-0.234,0.489-0.234,0.918c0,0.478,0.078,0.814,0.239,1.01
			c0.161,0.195,0.375,0.297,0.645,0.297c0.203,0,0.367-0.058,0.495-0.173c0.131-0.116,0.222-0.312,0.275-0.595l1.045,0.181
			c-0.108,0.478-0.315,0.84-0.623,1.084c-0.306,0.244-0.721,0.369-1.238,0.369c-0.587,0-1.056-0.187-1.405-0.556
			c-0.351-0.372-0.525-0.887-0.525-1.541c0-0.664,0.175-1.177,0.526-1.548c0.351-0.367,0.825-0.554,1.424-0.554
			c0.489,0,0.878,0.105,1.168,0.315C115.632,76.849,115.838,77.169,115.965,77.603z"/>
		<path fill="#666666" d="M116.772,75.867v-0.984h1.062v0.984H116.772z M116.772,80.435v-4.02h1.062v4.02H116.772z"/>
		<path fill="#666666" d="M118.679,78.367c0-0.353,0.086-0.695,0.261-1.024c0.173-0.331,0.423-0.584,0.742-0.757
			c0.319-0.175,0.675-0.261,1.07-0.261c0.607,0,1.106,0.197,1.491,0.592c0.39,0.397,0.584,0.895,0.584,1.496
			c0,0.611-0.197,1.113-0.589,1.513c-0.397,0.4-0.89,0.603-1.484,0.603c-0.369,0-0.725-0.081-1.053-0.25
			c-0.336-0.167-0.589-0.411-0.767-0.732C118.762,79.224,118.679,78.829,118.679,78.367z M119.769,78.425
			c0,0.397,0.097,0.703,0.283,0.915c0.191,0.212,0.425,0.319,0.701,0.319c0.278,0,0.512-0.106,0.696-0.319
			c0.191-0.212,0.284-0.522,0.284-0.923c0-0.398-0.092-0.698-0.284-0.907c-0.186-0.214-0.42-0.319-0.696-0.319
			s-0.511,0.105-0.701,0.319C119.866,77.719,119.769,78.025,119.769,78.425z M120.216,75.92l0.522-1.131h1.193l-1.042,1.131H120.216
			z"/>
		<path fill="#666666" d="M127.316,80.435h-1.065v-2.052c0-0.433-0.023-0.714-0.069-0.843c-0.045-0.126-0.119-0.225-0.22-0.295
			c-0.103-0.07-0.226-0.105-0.369-0.105c-0.189,0-0.353,0.05-0.495,0.151c-0.147,0.102-0.248,0.234-0.3,0.4
			c-0.056,0.167-0.081,0.476-0.081,0.926v1.821h-1.063v-4.02h0.989v0.589c0.35-0.453,0.793-0.678,1.324-0.678
			c0.236,0,0.451,0.044,0.645,0.131c0.189,0.083,0.342,0.187,0.439,0.323c0.1,0.134,0.17,0.281,0.211,0.45
			c0.033,0.167,0.058,0.403,0.058,0.715L127.316,80.435L127.316,80.435z"/>
		<path fill="#666666" d="M128.369,79.37h1.065v0.761c0,0.308-0.028,0.554-0.081,0.729c-0.053,0.178-0.155,0.339-0.298,0.479
			c-0.15,0.137-0.339,0.248-0.565,0.334l-0.208-0.44c0.215-0.07,0.362-0.166,0.458-0.294c0.089-0.125,0.137-0.295,0.142-0.508
			h-0.514L128.369,79.37L128.369,79.37z"/>
		<path fill="#666666" d="M136.261,78.394l1.087,0.348c-0.167,0.607-0.442,1.053-0.832,1.349c-0.386,0.297-0.878,0.44-1.473,0.44
			c-0.737,0-1.343-0.247-1.816-0.756c-0.476-0.506-0.712-1.192-0.712-2.068c0-0.923,0.239-1.641,0.715-2.147
			c0.478-0.512,1.104-0.77,1.88-0.77c0.679,0,1.232,0.2,1.652,0.606c0.253,0.237,0.445,0.573,0.567,1.018l-1.109,0.265
			c-0.066-0.289-0.198-0.512-0.406-0.681c-0.206-0.166-0.459-0.245-0.757-0.245c-0.412,0-0.746,0.145-1.001,0.445
			c-0.253,0.294-0.384,0.77-0.384,1.429c0,0.701,0.126,1.204,0.379,1.501c0.248,0.295,0.578,0.444,0.984,0.444
			c0.297,0,0.556-0.091,0.77-0.283C136.015,79.098,136.168,78.798,136.261,78.394z"/>
		<path fill="#666666" d="M139.096,77.641l-0.967-0.175c0.109-0.389,0.295-0.675,0.564-0.862c0.265-0.187,0.657-0.281,1.181-0.281
			c0.473,0,0.828,0.055,1.057,0.169c0.236,0.111,0.4,0.253,0.49,0.426c0.095,0.172,0.142,0.49,0.142,0.951l-0.011,1.242
			c0,0.35,0.016,0.615,0.052,0.781c0.03,0.169,0.092,0.353,0.187,0.542h-1.051c-0.028-0.072-0.061-0.178-0.1-0.315
			c-0.022-0.064-0.031-0.103-0.037-0.125c-0.181,0.178-0.376,0.306-0.584,0.398c-0.205,0.087-0.426,0.134-0.664,0.134
			c-0.412,0-0.739-0.112-0.978-0.34c-0.242-0.222-0.358-0.511-0.358-0.848c0-0.228,0.053-0.429,0.162-0.611
			c0.108-0.181,0.261-0.312,0.458-0.406c0.194-0.097,0.479-0.176,0.843-0.247c0.5-0.092,0.842-0.183,1.035-0.264v-0.105
			c0-0.2-0.05-0.351-0.151-0.437c-0.102-0.084-0.294-0.13-0.567-0.13c-0.189,0-0.342,0.036-0.443,0.111
			C139.25,77.324,139.161,77.454,139.096,77.641z M140.518,78.503c-0.134,0.045-0.35,0.1-0.647,0.164
			c-0.295,0.062-0.489,0.128-0.579,0.187c-0.136,0.097-0.203,0.223-0.203,0.375c0,0.145,0.055,0.278,0.166,0.387
			c0.108,0.108,0.247,0.162,0.419,0.162c0.192,0,0.375-0.064,0.553-0.189c0.133-0.097,0.215-0.212,0.251-0.351
			c0.028-0.089,0.039-0.264,0.039-0.517L140.518,78.503L140.518,78.503L140.518,78.503z"/>
		<path fill="#666666" d="M146.27,80.435h-1.065v-2.052c0-0.433-0.023-0.714-0.069-0.843c-0.045-0.126-0.119-0.225-0.22-0.295
			c-0.103-0.07-0.226-0.105-0.369-0.105c-0.184,0-0.353,0.05-0.495,0.151c-0.148,0.102-0.248,0.234-0.301,0.4
			c-0.055,0.167-0.081,0.476-0.081,0.926v1.821h-1.06v-4.02h0.987v0.589c0.353-0.453,0.793-0.678,1.324-0.678
			c0.236,0,0.451,0.044,0.645,0.131c0.194,0.083,0.342,0.187,0.44,0.323c0.1,0.134,0.169,0.281,0.209,0.45
			c0.036,0.167,0.058,0.403,0.058,0.715v2.497h-0.003C146.27,80.446,146.27,80.435,146.27,80.435z"/>
		<path fill="#666666" d="M150.85,77.603l-1.046,0.187c-0.034-0.208-0.116-0.364-0.244-0.472c-0.131-0.105-0.294-0.159-0.489-0.159
			c-0.264,0-0.476,0.091-0.632,0.273c-0.156,0.186-0.237,0.489-0.237,0.918c0,0.478,0.083,0.814,0.244,1.01
			c0.156,0.195,0.376,0.297,0.642,0.297c0.201,0,0.369-0.058,0.498-0.173c0.13-0.116,0.22-0.312,0.273-0.595l1.045,0.181
			c-0.108,0.478-0.315,0.84-0.622,1.084c-0.305,0.244-0.723,0.369-1.237,0.369c-0.589,0-1.053-0.187-1.405-0.556
			c-0.35-0.372-0.525-0.887-0.525-1.541c0-0.664,0.18-1.177,0.528-1.548c0.353-0.367,0.825-0.554,1.424-0.554
			c0.49,0,0.881,0.105,1.165,0.315C150.516,76.849,150.724,77.169,150.85,77.603z"/>
		<path fill="#666666" d="M153.986,79.156l1.06,0.18c-0.136,0.39-0.351,0.682-0.645,0.892c-0.297,0.203-0.662,0.301-1.106,0.301
			c-0.698,0-1.215-0.233-1.549-0.684c-0.265-0.364-0.398-0.831-0.398-1.384c0-0.673,0.173-1.19,0.52-1.566
			c0.345-0.376,0.789-0.567,1.321-0.567c0.598,0,1.071,0.195,1.415,0.592c0.351,0.398,0.514,1.001,0.495,1.815h-2.664
			c0.009,0.315,0.094,0.562,0.256,0.736c0.162,0.176,0.369,0.261,0.615,0.261c0.167,0,0.305-0.042,0.42-0.134
			C153.842,79.501,153.928,79.359,153.986,79.156z M154.047,78.08c-0.008-0.308-0.089-0.543-0.239-0.703
			c-0.151-0.159-0.337-0.244-0.553-0.244c-0.237,0-0.425,0.083-0.578,0.25c-0.147,0.172-0.225,0.403-0.222,0.689L154.047,78.08
			L154.047,78.08z"/>
		<path fill="#666666" d="M155.969,80.435v-5.552h1.065v5.552H155.969z"/>
		<path fill="#666666" d="M158.919,77.641l-0.965-0.175c0.108-0.389,0.297-0.675,0.562-0.862s0.661-0.281,1.184-0.281
			c0.469,0,0.828,0.055,1.056,0.169c0.234,0.111,0.398,0.253,0.489,0.426c0.097,0.172,0.145,0.49,0.145,0.951l-0.014,1.242
			c0,0.35,0.019,0.615,0.052,0.781c0.033,0.169,0.097,0.35,0.189,0.542h-1.054c-0.027-0.07-0.067-0.176-0.103-0.315
			c-0.022-0.064-0.027-0.103-0.033-0.125c-0.183,0.178-0.373,0.309-0.581,0.398c-0.208,0.091-0.428,0.134-0.664,0.134
			c-0.415,0-0.742-0.112-0.982-0.34c-0.24-0.222-0.353-0.509-0.353-0.848c0-0.228,0.052-0.429,0.162-0.611
			c0.108-0.18,0.261-0.312,0.454-0.406c0.198-0.097,0.479-0.176,0.848-0.247c0.495-0.089,0.842-0.183,1.031-0.264v-0.105
			c0-0.197-0.05-0.351-0.15-0.437c-0.1-0.081-0.294-0.13-0.568-0.13c-0.187,0-0.342,0.036-0.447,0.111
			C159.072,77.322,158.985,77.454,158.919,77.641z M160.34,78.503c-0.134,0.045-0.351,0.1-0.645,0.164
			c-0.295,0.062-0.489,0.128-0.581,0.187c-0.134,0.097-0.208,0.223-0.208,0.375c0,0.145,0.056,0.278,0.169,0.387
			c0.111,0.108,0.25,0.162,0.423,0.162c0.189,0,0.373-0.064,0.553-0.189c0.131-0.097,0.212-0.212,0.25-0.351
			c0.028-0.089,0.039-0.264,0.039-0.517L160.34,78.503L160.34,78.503z"/>
		<path fill="#666666" d="M165.939,77.603l-1.051,0.187c-0.031-0.208-0.116-0.364-0.244-0.472c-0.126-0.105-0.289-0.159-0.489-0.159
			c-0.262,0-0.472,0.091-0.628,0.273c-0.159,0.186-0.241,0.489-0.241,0.918c0,0.478,0.083,0.814,0.244,1.01
			c0.159,0.195,0.376,0.297,0.645,0.297c0.198,0,0.364-0.058,0.495-0.173c0.133-0.116,0.22-0.312,0.273-0.595l1.048,0.181
			c-0.108,0.478-0.315,0.84-0.623,1.084c-0.303,0.244-0.721,0.369-1.237,0.369c-0.59,0-1.056-0.187-1.405-0.556
			c-0.35-0.372-0.526-0.887-0.526-1.541c0-0.664,0.18-1.177,0.529-1.548c0.351-0.367,0.826-0.554,1.423-0.554
			c0.49,0,0.882,0.105,1.165,0.315C165.606,76.849,165.812,77.169,165.939,77.603z"/>
		<path fill="#666666" d="M166.746,75.867v-0.984h1.062v0.984H166.746z M166.746,80.435v-4.02h1.062v4.02H166.746z"/>
		<path fill="#666666" d="M168.653,78.367c0-0.353,0.091-0.695,0.264-1.024c0.173-0.331,0.42-0.584,0.739-0.757
			c0.322-0.175,0.675-0.261,1.07-0.261c0.611,0,1.106,0.197,1.494,0.592c0.386,0.397,0.576,0.895,0.576,1.496
			c0,0.611-0.192,1.113-0.584,1.513c-0.397,0.4-0.889,0.603-1.484,0.603c-0.365,0-0.721-0.081-1.053-0.25
			c-0.339-0.167-0.587-0.411-0.765-0.732C168.742,79.224,168.653,78.829,168.653,78.367z M169.746,78.425
			c0,0.397,0.094,0.703,0.283,0.915c0.192,0.212,0.423,0.319,0.701,0.319s0.512-0.106,0.697-0.319
			c0.191-0.212,0.281-0.522,0.281-0.923c0-0.398-0.089-0.698-0.281-0.907c-0.186-0.214-0.42-0.319-0.697-0.319
			c-0.28,0-0.511,0.105-0.701,0.319C169.84,77.719,169.746,78.025,169.746,78.425z M170.191,75.92l0.523-1.131h1.192l-1.04,1.131
			H170.191z"/>
		<path fill="#666666" d="M177.292,80.435h-1.06v-2.052c0-0.433-0.027-0.714-0.072-0.843c-0.044-0.126-0.117-0.225-0.222-0.295
			c-0.102-0.07-0.226-0.105-0.37-0.105c-0.184,0-0.348,0.05-0.495,0.151c-0.147,0.102-0.242,0.234-0.297,0.4
			c-0.053,0.167-0.081,0.476-0.081,0.926v1.821h-1.065v-4.02h0.989v0.589c0.351-0.453,0.792-0.678,1.326-0.678
			c0.234,0,0.45,0.044,0.642,0.131c0.192,0.083,0.342,0.187,0.442,0.323c0.098,0.134,0.169,0.281,0.208,0.45
			c0.037,0.167,0.058,0.403,0.058,0.715v2.497h-0.002L177.292,80.435L177.292,80.435z"/>
		<path fill="#666666" d="M180.022,76.415h1.132l0.96,2.855l0.94-2.855h1.101l-1.418,3.868l-0.253,0.701
			c-0.092,0.231-0.183,0.409-0.269,0.536c-0.081,0.125-0.181,0.226-0.292,0.297c-0.111,0.083-0.242,0.136-0.404,0.18
			c-0.162,0.042-0.345,0.069-0.545,0.069c-0.205,0-0.406-0.027-0.606-0.069l-0.092-0.834c0.166,0.031,0.314,0.045,0.453,0.045
			c0.244,0,0.429-0.07,0.551-0.217c0.119-0.141,0.208-0.329,0.272-0.553L180.022,76.415z"/>
		<path fill="#666666" d="M186.768,77.694c0-0.567,0.087-1.04,0.256-1.424c0.126-0.284,0.295-0.536,0.511-0.761
			c0.217-0.226,0.459-0.389,0.723-0.498c0.344-0.147,0.74-0.223,1.196-0.223c0.817,0,1.471,0.251,1.963,0.764
			c0.49,0.506,0.736,1.21,0.736,2.114c0,0.895-0.244,1.596-0.731,2.105c-0.486,0.504-1.138,0.757-1.952,0.757
			c-0.826,0-1.482-0.25-1.971-0.754C187.015,79.27,186.768,78.576,186.768,77.694z M187.925,77.657c0,0.626,0.144,1.104,0.434,1.429
			c0.292,0.323,0.661,0.486,1.106,0.486c0.451,0,0.817-0.161,1.104-0.484c0.289-0.32,0.428-0.804,0.428-1.446
			c0-0.634-0.134-1.106-0.414-1.426c-0.284-0.311-0.65-0.468-1.112-0.468c-0.458,0-0.837,0.159-1.113,0.475
			C188.066,76.54,187.925,77.016,187.925,77.657z"/>
		<path fill="#666666" d="M192.989,76.415h0.995v0.589c0.133-0.2,0.3-0.364,0.52-0.49c0.219-0.13,0.464-0.189,0.729-0.189
			c0.467,0,0.865,0.184,1.188,0.55c0.326,0.365,0.49,0.878,0.49,1.53c0,0.675-0.164,1.195-0.492,1.566
			c-0.329,0.372-0.728,0.562-1.195,0.562c-0.22,0-0.423-0.045-0.603-0.136c-0.183-0.084-0.37-0.242-0.57-0.454v2.022h-1.06
			L192.989,76.415L192.989,76.415z M194.042,78.356c0,0.45,0.089,0.781,0.269,0.998c0.183,0.216,0.401,0.323,0.654,0.323
			c0.248,0,0.458-0.095,0.62-0.295c0.164-0.197,0.244-0.523,0.244-0.974c0-0.422-0.083-0.736-0.25-0.942
			c-0.167-0.205-0.376-0.305-0.623-0.305c-0.261,0-0.476,0.1-0.648,0.297C194.126,77.666,194.042,77.961,194.042,78.356z"/>
		<path fill="#666666" d="M197.507,78.367c0-0.353,0.087-0.695,0.261-1.024c0.173-0.331,0.423-0.584,0.742-0.757
			c0.314-0.175,0.675-0.261,1.067-0.261c0.611,0,1.106,0.197,1.494,0.592c0.386,0.397,0.579,0.895,0.579,1.496
			c0,0.611-0.194,1.113-0.589,1.513c-0.392,0.4-0.89,0.603-1.484,0.603c-0.364,0-0.72-0.081-1.053-0.25
			c-0.334-0.167-0.586-0.411-0.764-0.732C197.595,79.224,197.507,78.829,197.507,78.367z M198.599,78.425
			c0,0.397,0.097,0.703,0.284,0.915c0.189,0.212,0.423,0.319,0.7,0.319c0.281,0,0.514-0.106,0.698-0.319
			c0.189-0.212,0.286-0.522,0.286-0.923c0-0.398-0.094-0.698-0.286-0.907c-0.187-0.214-0.419-0.319-0.698-0.319
			c-0.276,0-0.511,0.105-0.7,0.319C198.694,77.719,198.599,78.025,198.599,78.425z"/>
		<path fill="#666666" d="M202.114,79.287l1.068-0.162c0.044,0.208,0.137,0.364,0.276,0.47c0.136,0.103,0.334,0.162,0.584,0.162
			c0.276,0,0.484-0.052,0.618-0.153c0.091-0.073,0.137-0.166,0.137-0.286c0-0.083-0.027-0.147-0.077-0.2
			c-0.053-0.05-0.172-0.097-0.356-0.139c-0.857-0.189-1.401-0.362-1.632-0.518c-0.317-0.219-0.478-0.515-0.478-0.903
			c0-0.35,0.137-0.639,0.414-0.879c0.273-0.237,0.7-0.354,1.277-0.354c0.551,0,0.957,0.086,1.226,0.269
			c0.265,0.183,0.453,0.447,0.551,0.793l-1.001,0.187c-0.042-0.153-0.125-0.275-0.244-0.356c-0.122-0.081-0.295-0.13-0.512-0.13
			c-0.281,0-0.481,0.041-0.603,0.123c-0.083,0.055-0.123,0.128-0.123,0.214c0,0.08,0.034,0.136,0.106,0.189
			c0.097,0.072,0.426,0.172,0.996,0.297c0.565,0.131,0.96,0.29,1.187,0.473c0.222,0.189,0.333,0.453,0.333,0.792
			c0,0.365-0.153,0.684-0.461,0.945c-0.305,0.265-0.761,0.403-1.366,0.403c-0.55,0-0.982-0.111-1.299-0.334
			C202.422,79.966,202.214,79.67,202.114,79.287z"/>
		<path fill="#666666" d="M206.801,75.867v-0.984h1.065v0.984H206.801z M206.801,80.435v-4.02h1.065v4.02H206.801z"/>
		<path fill="#666666" d="M212.46,77.603l-1.049,0.187c-0.036-0.208-0.114-0.364-0.244-0.472c-0.128-0.105-0.29-0.159-0.487-0.159
			c-0.265,0-0.478,0.091-0.634,0.273c-0.153,0.186-0.234,0.489-0.234,0.918c0,0.478,0.083,0.814,0.244,1.01
			c0.159,0.195,0.373,0.297,0.645,0.297c0.198,0,0.362-0.058,0.495-0.173c0.128-0.116,0.22-0.312,0.273-0.595l1.045,0.181
			c-0.109,0.478-0.317,0.84-0.622,1.084c-0.309,0.244-0.725,0.369-1.24,0.369c-0.586,0-1.053-0.187-1.405-0.556
			c-0.35-0.372-0.523-0.887-0.523-1.541c0-0.664,0.178-1.177,0.526-1.548c0.351-0.367,0.825-0.554,1.427-0.554
			c0.489,0,0.878,0.105,1.165,0.315C212.127,76.849,212.333,77.169,212.46,77.603z"/>
		<path fill="#666666" d="M213.267,75.867v-0.984h1.062v0.984H213.267z M213.267,80.435v-4.02h1.062v4.02H213.267z"/>
		<path fill="#666666" d="M215.174,78.367c0-0.353,0.086-0.695,0.261-1.024c0.173-0.331,0.423-0.584,0.74-0.757
			c0.317-0.175,0.675-0.261,1.068-0.261c0.611,0,1.106,0.197,1.494,0.592c0.39,0.397,0.581,0.895,0.581,1.496
			c0,0.611-0.194,1.113-0.59,1.513c-0.392,0.4-0.89,0.603-1.482,0.603c-0.365,0-0.721-0.081-1.054-0.25
			c-0.331-0.166-0.589-0.411-0.762-0.732C215.257,79.226,215.174,78.829,215.174,78.367z M216.264,78.425
			c0,0.397,0.097,0.703,0.283,0.915c0.191,0.212,0.425,0.319,0.701,0.319c0.281,0,0.512-0.106,0.696-0.319
			c0.191-0.212,0.287-0.522,0.287-0.923c0-0.398-0.094-0.698-0.287-0.907c-0.186-0.214-0.417-0.319-0.696-0.319
			c-0.276,0-0.511,0.105-0.701,0.319C216.361,77.719,216.264,78.025,216.264,78.425z M216.711,75.92l0.522-1.131h1.193l-1.045,1.131
			H216.711z"/>
		<path fill="#666666" d="M223.811,80.435h-1.062v-2.052c0-0.433-0.023-0.714-0.069-0.843c-0.045-0.126-0.119-0.225-0.223-0.295
			c-0.1-0.07-0.226-0.105-0.369-0.105c-0.184,0-0.35,0.05-0.495,0.151c-0.147,0.102-0.245,0.234-0.3,0.4
			c-0.053,0.167-0.081,0.476-0.081,0.926v1.821h-1.063v-4.02h0.992v0.589c0.353-0.453,0.789-0.678,1.323-0.678
			c0.237,0,0.453,0.044,0.642,0.131c0.194,0.083,0.342,0.187,0.443,0.323c0.098,0.134,0.169,0.281,0.208,0.45
			c0.037,0.167,0.058,0.403,0.058,0.715v2.494h-0.003L223.811,80.435L223.811,80.435z"/>
		<path fill="#666666" d="M40.241,89.736h-0.99v-0.59c-0.164,0.23-0.358,0.4-0.581,0.512c-0.225,0.111-0.45,0.166-0.675,0.166
			c-0.462,0-0.857-0.184-1.187-0.554c-0.328-0.375-0.495-0.892-0.495-1.559c0-0.682,0.161-1.201,0.483-1.555
			c0.32-0.353,0.725-0.529,1.215-0.529c0.45,0,0.837,0.189,1.165,0.561v-1.997h1.063L40.241,89.736L40.241,89.736z M37.402,87.639
			c0,0.429,0.059,0.742,0.176,0.931c0.172,0.28,0.412,0.419,0.72,0.419c0.245,0,0.454-0.103,0.625-0.314
			c0.172-0.208,0.258-0.515,0.258-0.931c0-0.464-0.083-0.796-0.25-0.999c-0.167-0.2-0.379-0.3-0.64-0.3
			c-0.251,0-0.462,0.098-0.632,0.297C37.486,86.94,37.402,87.239,37.402,87.639z"/>
		<path fill="#666666" d="M43.616,88.457l1.06,0.181c-0.136,0.387-0.351,0.681-0.647,0.887c-0.294,0.203-0.661,0.303-1.104,0.303
			c-0.698,0-1.217-0.23-1.551-0.684c-0.265-0.361-0.398-0.828-0.398-1.38c0-0.672,0.173-1.188,0.522-1.565
			c0.348-0.379,0.787-0.568,1.323-0.568c0.598,0,1.07,0.195,1.415,0.592c0.347,0.4,0.512,0.999,0.495,1.813h-2.664
			c0.008,0.317,0.092,0.567,0.256,0.734c0.164,0.176,0.37,0.264,0.614,0.264c0.167,0,0.306-0.044,0.422-0.136
			C43.472,88.804,43.558,88.658,43.616,88.457z M43.675,87.381c-0.008-0.306-0.087-0.542-0.239-0.7
			c-0.151-0.162-0.336-0.244-0.553-0.244c-0.231,0-0.423,0.081-0.575,0.251c-0.15,0.173-0.226,0.404-0.223,0.686h1.59V87.381z"/>
		<path fill="#666666" d="M47.759,84.187h2.049c0.461,0,0.814,0.034,1.054,0.105c0.325,0.097,0.604,0.265,0.837,0.512
			c0.231,0.244,0.408,0.545,0.529,0.896c0.122,0.358,0.181,0.793,0.181,1.315c0,0.458-0.056,0.848-0.169,1.179
			c-0.139,0.404-0.339,0.731-0.593,0.984c-0.195,0.189-0.458,0.336-0.787,0.442c-0.248,0.083-0.578,0.116-0.992,0.116h-2.11
			L47.759,84.187L47.759,84.187z M48.877,85.126v3.676h0.837c0.312,0,0.539-0.019,0.678-0.053c0.181-0.045,0.333-0.123,0.453-0.233
			c0.119-0.108,0.219-0.286,0.294-0.534c0.075-0.25,0.112-0.589,0.112-1.015c0-0.429-0.037-0.759-0.112-0.989
			c-0.077-0.23-0.183-0.411-0.319-0.54c-0.136-0.128-0.308-0.215-0.518-0.259c-0.156-0.036-0.462-0.053-0.92-0.053H48.877
			L48.877,85.126z"/>
		<path fill="#666666" d="M54.146,86.944l-0.965-0.173c0.108-0.39,0.297-0.679,0.559-0.864c0.265-0.189,0.659-0.281,1.182-0.281
			c0.475,0,0.828,0.056,1.059,0.167c0.233,0.112,0.397,0.25,0.49,0.428c0.094,0.172,0.142,0.489,0.142,0.946l-0.011,1.241
			c0,0.351,0.016,0.618,0.05,0.784s0.098,0.35,0.191,0.539h-1.051c-0.028-0.072-0.062-0.175-0.102-0.312
			c-0.019-0.064-0.03-0.103-0.037-0.125c-0.181,0.178-0.376,0.306-0.582,0.398c-0.206,0.087-0.426,0.136-0.664,0.136
			c-0.412,0-0.739-0.114-0.978-0.342c-0.239-0.226-0.356-0.511-0.356-0.846c0-0.233,0.053-0.429,0.162-0.614
			c0.109-0.178,0.261-0.311,0.458-0.404c0.195-0.094,0.478-0.181,0.845-0.247c0.497-0.094,0.842-0.18,1.034-0.259v-0.105
			c0-0.205-0.05-0.351-0.15-0.437c-0.102-0.086-0.294-0.13-0.572-0.13c-0.189,0-0.337,0.031-0.444,0.111
			C54.297,86.625,54.213,86.756,54.146,86.944z M55.569,87.806c-0.134,0.045-0.351,0.098-0.647,0.162
			c-0.297,0.064-0.489,0.13-0.581,0.191c-0.136,0.092-0.206,0.223-0.206,0.37s0.055,0.283,0.166,0.39
			c0.111,0.106,0.251,0.162,0.423,0.162c0.191,0,0.375-0.067,0.548-0.189c0.13-0.097,0.214-0.214,0.255-0.353
			c0.027-0.087,0.039-0.262,0.039-0.514v-0.22L55.569,87.806L55.569,87.806z"/>
		<path fill="#666666" d="M59.505,85.718v0.846h-0.728v1.621c0,0.326,0.008,0.518,0.022,0.572c0.014,0.055,0.045,0.1,0.095,0.134
			c0.048,0.034,0.108,0.053,0.18,0.053c0.098,0,0.24-0.033,0.426-0.103l0.091,0.826c-0.247,0.105-0.526,0.159-0.84,0.159
			c-0.191,0-0.364-0.027-0.518-0.097c-0.155-0.062-0.267-0.142-0.339-0.245c-0.072-0.102-0.122-0.244-0.148-0.415
			c-0.023-0.122-0.033-0.369-0.033-0.746v-1.755h-0.489V85.72h0.489v-0.798l1.067-0.618v1.421h0.726L59.505,85.718L59.505,85.718z"
			/>
		<path fill="#666666" d="M59.997,87.67c0-0.351,0.087-0.695,0.262-1.026c0.175-0.33,0.422-0.582,0.739-0.756
			c0.32-0.175,0.676-0.261,1.07-0.261c0.609,0,1.106,0.197,1.496,0.592c0.389,0.395,0.582,0.895,0.582,1.498
			c0,0.609-0.197,1.112-0.589,1.512c-0.392,0.4-0.887,0.6-1.482,0.6c-0.367,0-0.72-0.081-1.054-0.247
			c-0.334-0.167-0.587-0.409-0.762-0.731C60.083,88.526,59.997,88.132,59.997,87.67z M61.09,87.728c0,0.401,0.094,0.703,0.283,0.915
			s0.423,0.319,0.701,0.319c0.28,0,0.512-0.106,0.698-0.319c0.189-0.212,0.283-0.52,0.283-0.923c0-0.395-0.094-0.698-0.283-0.91
			c-0.187-0.212-0.419-0.315-0.698-0.315c-0.276,0-0.512,0.103-0.701,0.315C61.184,87.022,61.09,87.328,61.09,87.728z"/>
		<path fill="#666666" d="M64.604,88.59l1.067-0.162c0.045,0.208,0.137,0.362,0.276,0.473c0.137,0.105,0.333,0.159,0.584,0.159
			c0.275,0,0.481-0.05,0.62-0.15c0.092-0.07,0.139-0.166,0.139-0.286c0-0.081-0.027-0.147-0.077-0.2
			c-0.053-0.05-0.17-0.097-0.354-0.139c-0.859-0.187-1.402-0.361-1.632-0.517c-0.319-0.216-0.478-0.512-0.478-0.896
			c0-0.353,0.137-0.645,0.414-0.885c0.275-0.239,0.701-0.351,1.279-0.351c0.551,0,0.959,0.086,1.226,0.269
			c0.267,0.181,0.451,0.447,0.553,0.79l-1.004,0.187c-0.042-0.155-0.125-0.278-0.244-0.356c-0.12-0.081-0.292-0.13-0.512-0.13
			c-0.281,0-0.483,0.041-0.603,0.122c-0.08,0.053-0.122,0.126-0.122,0.215c0,0.078,0.034,0.136,0.106,0.189
			c0.095,0.072,0.426,0.172,0.995,0.297c0.567,0.136,0.96,0.294,1.185,0.472c0.223,0.189,0.334,0.456,0.334,0.789
			c0,0.37-0.155,0.686-0.462,0.951c-0.306,0.265-0.762,0.397-1.366,0.397c-0.55,0-0.981-0.111-1.301-0.331
			C64.913,89.272,64.704,88.972,64.604,88.59z"/>
		<path fill="#666666" d="M71.452,89.736v-5.549h1.799c0.681,0,1.124,0.027,1.332,0.083c0.317,0.081,0.584,0.259,0.8,0.545
			c0.214,0.278,0.322,0.632,0.322,1.079c0,0.342-0.062,0.623-0.187,0.86c-0.123,0.231-0.281,0.411-0.47,0.547
			c-0.191,0.134-0.384,0.22-0.581,0.262c-0.265,0.053-0.654,0.08-1.162,0.08h-0.729v2.091h-1.121v0.002H71.452z M72.575,85.126
			v1.576h0.614c0.442,0,0.737-0.028,0.887-0.089c0.15-0.058,0.265-0.144,0.351-0.272c0.086-0.123,0.128-0.264,0.128-0.431
			c0-0.198-0.059-0.365-0.18-0.501c-0.119-0.128-0.267-0.212-0.45-0.242c-0.134-0.028-0.403-0.037-0.807-0.037L72.575,85.126
			L72.575,85.126z"/>
		<path fill="#666666" d="M78.943,88.457l1.06,0.181c-0.136,0.387-0.351,0.681-0.647,0.887c-0.294,0.203-0.661,0.303-1.104,0.303
			c-0.698,0-1.215-0.23-1.551-0.684c-0.265-0.364-0.397-0.828-0.397-1.384c0-0.668,0.173-1.19,0.522-1.566
			c0.348-0.379,0.787-0.565,1.321-0.565c0.598,0,1.07,0.192,1.416,0.592c0.347,0.395,0.511,0.998,0.495,1.81h-2.666
			c0.008,0.315,0.094,0.565,0.258,0.734c0.164,0.176,0.369,0.262,0.614,0.262c0.167,0,0.306-0.045,0.42-0.134
			C78.798,88.804,78.885,88.658,78.943,88.457z M79.004,87.381c-0.008-0.306-0.086-0.542-0.237-0.7
			c-0.151-0.162-0.336-0.244-0.554-0.244c-0.231,0-0.423,0.081-0.575,0.251c-0.15,0.173-0.225,0.404-0.223,0.686h1.59L79.004,87.381
			L79.004,87.381z"/>
		<path fill="#666666" d="M81.943,89.736H80.88v-4.02h0.989v0.57c0.169-0.272,0.32-0.448,0.456-0.533
			c0.136-0.087,0.289-0.131,0.459-0.131c0.244,0,0.475,0.067,0.7,0.195l-0.33,0.931c-0.178-0.119-0.345-0.176-0.5-0.176
			c-0.148,0-0.275,0.037-0.378,0.13c-0.103,0.08-0.184,0.23-0.244,0.445c-0.059,0.212-0.089,0.664-0.089,1.345L81.943,89.736
			L81.943,89.736z"/>
		<path fill="#666666" d="M83.569,88.59l1.067-0.162c0.045,0.208,0.137,0.362,0.276,0.473c0.137,0.105,0.333,0.159,0.584,0.159
			c0.275,0,0.483-0.05,0.62-0.15c0.092-0.07,0.139-0.166,0.139-0.286c0-0.081-0.027-0.147-0.077-0.2
			c-0.053-0.05-0.17-0.097-0.354-0.139c-0.859-0.187-1.402-0.361-1.632-0.517c-0.319-0.216-0.478-0.512-0.478-0.896
			c0-0.353,0.137-0.645,0.414-0.885c0.275-0.239,0.701-0.351,1.279-0.351c0.551,0,0.959,0.086,1.226,0.269
			c0.267,0.181,0.453,0.447,0.553,0.79l-1.004,0.187c-0.042-0.155-0.123-0.278-0.244-0.356c-0.12-0.081-0.292-0.13-0.512-0.13
			c-0.281,0-0.483,0.041-0.603,0.122c-0.08,0.053-0.122,0.126-0.122,0.215c0,0.078,0.036,0.136,0.106,0.189
			c0.095,0.072,0.426,0.172,0.995,0.297c0.567,0.136,0.96,0.294,1.185,0.472c0.223,0.189,0.334,0.456,0.334,0.789
			c0,0.37-0.155,0.686-0.462,0.951c-0.306,0.265-0.762,0.397-1.366,0.397c-0.55,0-0.981-0.111-1.301-0.331
			C83.876,89.272,83.669,88.972,83.569,88.59z"/>
		<path fill="#666666" d="M88.01,87.67c0-0.351,0.087-0.695,0.261-1.026c0.175-0.33,0.422-0.582,0.739-0.756
			c0.32-0.175,0.676-0.261,1.07-0.261c0.609,0,1.106,0.197,1.496,0.592c0.389,0.395,0.582,0.895,0.582,1.498
			c0,0.609-0.197,1.112-0.589,1.512s-0.887,0.6-1.484,0.6c-0.367,0-0.72-0.081-1.054-0.247c-0.334-0.167-0.587-0.409-0.762-0.731
			C88.093,88.524,88.01,88.132,88.01,87.67z M89.098,87.728c0,0.401,0.095,0.703,0.284,0.915c0.189,0.212,0.423,0.319,0.7,0.319
			c0.278,0,0.512-0.106,0.698-0.319c0.189-0.212,0.281-0.52,0.281-0.923c0-0.395-0.092-0.698-0.281-0.91
			c-0.189-0.212-0.42-0.315-0.698-0.315s-0.511,0.103-0.7,0.315C89.195,87.022,89.098,87.328,89.098,87.728z"/>
		<path fill="#666666" d="M96.644,89.736h-1.062v-2.05c0-0.434-0.023-0.715-0.069-0.842c-0.045-0.125-0.119-0.228-0.222-0.295
			c-0.102-0.073-0.225-0.103-0.369-0.103c-0.186,0-0.351,0.05-0.495,0.148c-0.147,0.098-0.245,0.236-0.3,0.404
			c-0.055,0.166-0.081,0.475-0.081,0.923v1.819h-1.063v-4.018h0.989v0.586c0.351-0.454,0.792-0.679,1.324-0.679
			c0.236,0,0.451,0.039,0.643,0.131c0.194,0.081,0.342,0.189,0.44,0.323c0.1,0.134,0.17,0.281,0.209,0.448
			c0.039,0.162,0.058,0.404,0.058,0.715L96.644,89.736L96.644,89.736z"/>
		<path fill="#666666" d="M98.521,86.944l-0.967-0.173c0.108-0.39,0.297-0.679,0.561-0.864c0.265-0.189,0.659-0.281,1.182-0.281
			c0.473,0,0.828,0.056,1.059,0.167c0.231,0.112,0.395,0.25,0.489,0.428c0.094,0.172,0.142,0.489,0.142,0.946l-0.011,1.241
			c0,0.351,0.017,0.618,0.052,0.784c0.033,0.166,0.097,0.35,0.191,0.539h-1.051c-0.028-0.072-0.062-0.175-0.103-0.312
			c-0.019-0.064-0.03-0.103-0.037-0.125c-0.181,0.178-0.375,0.306-0.582,0.398c-0.206,0.087-0.426,0.136-0.664,0.136
			c-0.412,0-0.739-0.114-0.978-0.342c-0.239-0.226-0.356-0.511-0.356-0.846c0-0.233,0.053-0.429,0.162-0.614
			c0.109-0.178,0.261-0.311,0.458-0.404c0.195-0.094,0.478-0.181,0.845-0.247c0.497-0.094,0.842-0.18,1.034-0.259v-0.105
			c0-0.205-0.05-0.351-0.15-0.437s-0.292-0.13-0.57-0.13c-0.189,0-0.339,0.031-0.445,0.111
			C98.671,86.625,98.585,86.756,98.521,86.944z M99.941,87.806c-0.134,0.045-0.351,0.098-0.647,0.162
			c-0.295,0.064-0.489,0.13-0.579,0.191c-0.137,0.092-0.208,0.223-0.208,0.37s0.056,0.283,0.167,0.39
			c0.109,0.106,0.251,0.162,0.423,0.162c0.191,0,0.373-0.067,0.548-0.189c0.13-0.097,0.214-0.214,0.255-0.353
			c0.028-0.087,0.041-0.262,0.041-0.514L99.941,87.806L99.941,87.806z"/>
		<path fill="#666666" d="M102.038,89.736v-5.549h1.062v5.549C103.1,89.736,102.038,89.736,102.038,89.736z"/>
		<path fill="#666666" d="M106.517,88.457l1.059,0.181c-0.136,0.387-0.351,0.681-0.645,0.887c-0.294,0.203-0.662,0.303-1.106,0.303
			c-0.696,0-1.215-0.23-1.551-0.684c-0.265-0.361-0.398-0.828-0.398-1.38c0-0.672,0.173-1.188,0.522-1.565
			c0.348-0.379,0.787-0.568,1.321-0.568c0.597,0,1.07,0.195,1.413,0.592c0.347,0.4,0.512,0.999,0.495,1.813h-2.661
			c0.008,0.317,0.094,0.567,0.256,0.734c0.164,0.176,0.369,0.264,0.614,0.264c0.166,0,0.305-0.044,0.419-0.136
			C106.375,88.807,106.462,88.658,106.517,88.457z M106.578,87.381c-0.008-0.306-0.087-0.542-0.237-0.7
			c-0.15-0.162-0.336-0.24-0.553-0.24c-0.231,0-0.423,0.081-0.575,0.248c-0.15,0.173-0.226,0.404-0.223,0.687L106.578,87.381
			L106.578,87.381z"/>
		<path fill="#666666" d="M108.127,88.59l1.067-0.162c0.045,0.208,0.137,0.362,0.276,0.473c0.137,0.105,0.334,0.159,0.584,0.159
			c0.276,0,0.484-0.05,0.622-0.15c0.091-0.07,0.139-0.166,0.139-0.286c0-0.081-0.027-0.147-0.077-0.2
			c-0.053-0.05-0.172-0.097-0.356-0.139c-0.857-0.187-1.401-0.361-1.63-0.517c-0.319-0.216-0.478-0.512-0.478-0.896
			c0-0.353,0.137-0.645,0.414-0.885c0.273-0.239,0.7-0.351,1.279-0.351c0.55,0,0.957,0.086,1.226,0.269
			c0.265,0.181,0.451,0.447,0.553,0.79l-1.004,0.187c-0.042-0.158-0.123-0.281-0.24-0.358c-0.122-0.081-0.292-0.13-0.514-0.13
			c-0.281,0-0.481,0.041-0.603,0.122c-0.08,0.053-0.122,0.126-0.122,0.216c0,0.077,0.034,0.137,0.106,0.189
			c0.095,0.072,0.428,0.172,0.995,0.297c0.567,0.136,0.96,0.294,1.185,0.472c0.223,0.191,0.334,0.458,0.334,0.79
			c0,0.369-0.155,0.684-0.462,0.949c-0.305,0.265-0.761,0.398-1.366,0.398c-0.55,0-0.981-0.111-1.301-0.333
			C108.435,89.272,108.224,88.972,108.127,88.59z"/>
		<path fill="#666666" d="M118.652,89.736h-0.989v-0.59c-0.164,0.23-0.358,0.4-0.581,0.512c-0.223,0.111-0.448,0.166-0.676,0.166
			c-0.458,0-0.857-0.184-1.187-0.554c-0.326-0.375-0.495-0.892-0.495-1.559c0-0.682,0.162-1.201,0.484-1.555
			c0.319-0.353,0.726-0.529,1.213-0.529c0.454,0,0.837,0.189,1.165,0.561v-1.997h1.065L118.652,89.736L118.652,89.736z
			 M115.813,87.639c0,0.429,0.061,0.742,0.176,0.931c0.176,0.28,0.414,0.419,0.725,0.419c0.244,0,0.458-0.103,0.622-0.314
			c0.175-0.208,0.258-0.515,0.258-0.931c0-0.464-0.081-0.796-0.247-0.999c-0.17-0.2-0.383-0.3-0.64-0.3
			c-0.251,0-0.461,0.098-0.634,0.297C115.901,86.94,115.813,87.239,115.813,87.639z"/>
		<path fill="#666666" d="M122.029,88.457l1.056,0.181c-0.134,0.387-0.35,0.681-0.64,0.887c-0.297,0.203-0.667,0.303-1.106,0.303
			c-0.696,0-1.215-0.23-1.549-0.684c-0.265-0.361-0.4-0.828-0.4-1.38c0-0.672,0.173-1.188,0.522-1.565
			c0.35-0.379,0.784-0.568,1.321-0.568c0.597,0,1.068,0.195,1.413,0.592c0.35,0.4,0.512,0.999,0.495,1.813h-2.661
			c0.008,0.317,0.094,0.567,0.255,0.734c0.164,0.176,0.369,0.264,0.617,0.264c0.166,0,0.305-0.044,0.42-0.136
			C121.885,88.804,121.971,88.658,122.029,88.457z M122.09,87.381c-0.008-0.306-0.089-0.542-0.237-0.7
			c-0.153-0.162-0.34-0.244-0.558-0.244c-0.236,0-0.423,0.081-0.572,0.251c-0.15,0.17-0.228,0.404-0.228,0.686h1.593v0.005
			L122.09,87.381L122.09,87.381z"/>
		<path fill="#666666" d="M124.012,89.736v-5.549h1.065v5.549C125.077,89.736,124.012,89.736,124.012,89.736z"/>
		<path fill="#666666" d="M128.327,89.736v-5.549h4.115v0.939h-2.992v1.231h2.786v0.937h-2.786v1.512h3.1v0.934h-4.22v-0.002h-0.003
			V89.736z"/>
		<path fill="#666666" d="M133.115,88.59l1.068-0.162c0.042,0.208,0.136,0.362,0.276,0.473c0.136,0.105,0.334,0.159,0.584,0.159
			c0.275,0,0.481-0.05,0.618-0.15c0.091-0.07,0.137-0.166,0.137-0.286c0-0.081-0.027-0.147-0.077-0.2
			c-0.053-0.05-0.175-0.097-0.356-0.139c-0.857-0.187-1.401-0.361-1.633-0.517c-0.317-0.216-0.478-0.512-0.478-0.896
			c0-0.353,0.139-0.645,0.415-0.885c0.273-0.239,0.7-0.351,1.276-0.351c0.553,0,0.959,0.086,1.227,0.269
			c0.262,0.181,0.45,0.447,0.551,0.79l-1.003,0.187c-0.042-0.155-0.125-0.278-0.244-0.356c-0.125-0.081-0.294-0.13-0.511-0.13
			c-0.284,0-0.481,0.041-0.606,0.122c-0.08,0.053-0.12,0.126-0.12,0.215c0,0.078,0.031,0.136,0.105,0.189
			c0.097,0.072,0.428,0.172,0.998,0.297c0.565,0.136,0.957,0.294,1.185,0.472c0.223,0.189,0.334,0.456,0.334,0.789
			c0,0.37-0.153,0.686-0.461,0.951c-0.305,0.265-0.761,0.397-1.368,0.397c-0.548,0-0.981-0.111-1.299-0.331
			C133.424,89.272,133.213,88.972,133.115,88.59z"/>
		<path fill="#666666" d="M139.644,85.718v0.846h-0.725v1.621c0,0.326,0.008,0.518,0.02,0.572c0.017,0.055,0.045,0.1,0.097,0.134
			c0.047,0.034,0.108,0.053,0.18,0.053c0.098,0,0.242-0.033,0.426-0.103l0.092,0.826c-0.248,0.105-0.529,0.159-0.843,0.159
			c-0.189,0-0.361-0.027-0.515-0.097c-0.151-0.062-0.265-0.142-0.342-0.245c-0.07-0.102-0.12-0.244-0.147-0.415
			c-0.025-0.122-0.03-0.369-0.03-0.746v-1.755h-0.489V85.72h0.489v-0.798l1.063-0.618v1.421h0.726L139.644,85.718L139.644,85.718z"
			/>
		<path fill="#666666" d="M141.179,86.944l-0.965-0.173c0.108-0.39,0.295-0.679,0.557-0.864c0.265-0.189,0.661-0.281,1.184-0.281
			c0.473,0,0.829,0.056,1.06,0.167c0.23,0.112,0.394,0.25,0.489,0.428c0.097,0.172,0.144,0.489,0.144,0.946l-0.016,1.241
			c0,0.351,0.022,0.618,0.05,0.784c0.031,0.166,0.098,0.35,0.187,0.539h-1.053c-0.028-0.072-0.062-0.175-0.103-0.312
			c-0.017-0.064-0.03-0.103-0.036-0.125c-0.18,0.178-0.375,0.306-0.582,0.398c-0.203,0.091-0.423,0.136-0.662,0.136
			c-0.415,0-0.742-0.114-0.979-0.342c-0.237-0.226-0.358-0.511-0.358-0.846c0-0.233,0.053-0.429,0.162-0.614
			c0.109-0.178,0.261-0.311,0.459-0.404c0.194-0.094,0.479-0.181,0.846-0.247c0.497-0.094,0.84-0.18,1.032-0.259v-0.105
			c0-0.205-0.05-0.351-0.148-0.437c-0.1-0.086-0.297-0.13-0.568-0.13c-0.189,0-0.342,0.031-0.445,0.111
			C141.331,86.625,141.245,86.756,141.179,86.944z M142.6,87.806c-0.134,0.045-0.353,0.098-0.645,0.162
			c-0.295,0.064-0.49,0.13-0.581,0.191c-0.134,0.092-0.206,0.223-0.206,0.37s0.056,0.283,0.167,0.39
			c0.111,0.106,0.25,0.162,0.423,0.162c0.191,0,0.372-0.067,0.55-0.189c0.133-0.097,0.212-0.214,0.25-0.353
			c0.03-0.087,0.041-0.262,0.041-0.514L142.6,87.806L142.6,87.806L142.6,87.806z"/>
		<path fill="#666666" d="M148.38,89.736h-0.987v-0.59c-0.166,0.23-0.358,0.4-0.581,0.512c-0.225,0.111-0.453,0.166-0.675,0.166
			c-0.459,0-0.859-0.184-1.19-0.554c-0.328-0.375-0.492-0.892-0.492-1.559c0-0.682,0.159-1.201,0.481-1.555
			c0.322-0.353,0.726-0.529,1.215-0.529c0.448,0,0.835,0.189,1.163,0.561v-1.997h1.059v5.547h0.007V89.736z M145.544,87.639
			c0,0.429,0.058,0.742,0.18,0.931c0.172,0.28,0.409,0.419,0.718,0.419c0.244,0,0.458-0.103,0.62-0.314
			c0.176-0.208,0.259-0.515,0.259-0.931c0-0.464-0.081-0.796-0.247-0.999c-0.17-0.2-0.379-0.3-0.64-0.3
			c-0.245,0-0.459,0.098-0.629,0.297C145.628,86.94,145.544,87.239,145.544,87.639z"/>
		<path fill="#666666" d="M149.182,87.67c0-0.351,0.089-0.695,0.262-1.026c0.175-0.33,0.422-0.582,0.74-0.756
			c0.32-0.175,0.673-0.261,1.07-0.261c0.611,0,1.106,0.197,1.493,0.592c0.387,0.395,0.581,0.895,0.581,1.498
			c0,0.609-0.197,1.112-0.589,1.512c-0.395,0.4-0.889,0.6-1.482,0.6c-0.367,0-0.723-0.081-1.054-0.247
			c-0.337-0.167-0.587-0.409-0.762-0.731C149.268,88.524,149.182,88.132,149.182,87.67z M150.274,87.728
			c0,0.401,0.095,0.703,0.284,0.915c0.191,0.212,0.423,0.319,0.7,0.319c0.28,0,0.514-0.106,0.698-0.319
			c0.189-0.212,0.281-0.52,0.281-0.923c0-0.395-0.091-0.698-0.281-0.91c-0.187-0.212-0.42-0.315-0.698-0.315s-0.511,0.103-0.7,0.315
			S150.274,87.328,150.274,87.728z"/>
		<path fill="#666666" d="M160.006,89.736h-0.987v-0.59c-0.167,0.23-0.358,0.4-0.581,0.512c-0.226,0.111-0.454,0.166-0.676,0.166
			c-0.461,0-0.857-0.184-1.188-0.554c-0.329-0.375-0.493-0.892-0.493-1.559c0-0.682,0.161-1.201,0.481-1.555
			c0.322-0.353,0.726-0.529,1.213-0.529c0.45,0,0.837,0.189,1.167,0.561v-1.997H160L160.006,89.736L160.006,89.736z M157.167,87.639
			c0,0.429,0.058,0.742,0.176,0.931c0.175,0.28,0.414,0.419,0.721,0.419c0.244,0,0.456-0.103,0.622-0.314
			c0.173-0.208,0.258-0.515,0.258-0.931c0-0.464-0.081-0.796-0.248-0.999c-0.169-0.2-0.381-0.3-0.639-0.3
			c-0.247,0-0.459,0.098-0.629,0.297C157.251,86.94,157.167,87.239,157.167,87.639z"/>
		<path fill="#666666" d="M163.381,88.457l1.063,0.181c-0.137,0.387-0.353,0.681-0.648,0.887c-0.295,0.203-0.662,0.303-1.104,0.303
			c-0.698,0-1.215-0.23-1.552-0.684c-0.267-0.361-0.401-0.828-0.401-1.38c0-0.672,0.178-1.188,0.523-1.565
			c0.351-0.379,0.782-0.568,1.321-0.568c0.6,0,1.068,0.195,1.416,0.592c0.351,0.4,0.512,0.999,0.498,1.813h-2.669
			c0.008,0.317,0.092,0.567,0.256,0.734c0.162,0.176,0.369,0.264,0.615,0.264c0.166,0,0.305-0.044,0.422-0.136
			C163.237,88.804,163.323,88.658,163.381,88.457z M163.442,87.381c-0.008-0.306-0.086-0.542-0.237-0.7
			c-0.151-0.162-0.339-0.244-0.556-0.244c-0.228,0-0.422,0.081-0.57,0.251c-0.153,0.173-0.228,0.404-0.223,0.686h1.588v0.006h-0.002
			V87.381z"/>
		<path fill="#666666" d="M167.51,89.736v-5.549h1.676l1.009,3.785l0.995-3.785h1.68v5.549h-1.042v-4.368l-1.099,4.368h-1.079
			l-1.101-4.368v4.368C168.549,89.736,167.51,89.736,167.51,89.736z"/>
		<path fill="#666666" d="M176.305,88.457l1.06,0.181c-0.137,0.387-0.353,0.681-0.645,0.887c-0.297,0.203-0.667,0.303-1.107,0.303
			c-0.696,0-1.213-0.23-1.549-0.684c-0.265-0.361-0.397-0.828-0.397-1.38c0-0.672,0.17-1.188,0.518-1.565
			c0.351-0.379,0.784-0.568,1.323-0.568c0.597,0,1.068,0.195,1.413,0.592c0.348,0.4,0.511,0.999,0.497,1.813h-2.664
			c0.008,0.317,0.092,0.567,0.253,0.734c0.164,0.176,0.369,0.264,0.617,0.264c0.167,0,0.305-0.044,0.42-0.136
			C176.158,88.804,176.247,88.658,176.305,88.457z M176.366,87.381c-0.008-0.306-0.089-0.542-0.237-0.7
			c-0.153-0.162-0.34-0.244-0.557-0.244c-0.231,0-0.422,0.081-0.572,0.251c-0.15,0.173-0.226,0.404-0.223,0.686h1.591v0.006h-0.002
			V87.381z M175.006,85.223l0.523-1.131h1.195l-1.046,1.131H175.006z"/>
		<path fill="#666666" d="M177.778,89.736l1.452-2.072l-1.391-1.95h1.299l0.714,1.107l0.746-1.107h1.252l-1.366,1.908l1.49,2.114
			h-1.307l-0.817-1.245l-0.828,1.245H177.778z"/>
		<path fill="#666666" d="M182.598,85.171v-0.984h1.065v0.984H182.598z M182.598,89.736v-4.02h1.065v4.02H182.598z"/>
		<path fill="#666666" d="M188.258,86.906l-1.049,0.189c-0.034-0.209-0.116-0.369-0.242-0.475c-0.128-0.103-0.29-0.158-0.487-0.158
			c-0.265,0-0.478,0.092-0.634,0.273s-0.239,0.489-0.239,0.918c0,0.478,0.083,0.814,0.244,1.01c0.161,0.197,0.375,0.295,0.645,0.295
			c0.203,0,0.367-0.058,0.498-0.173c0.128-0.114,0.22-0.311,0.273-0.592l1.045,0.176c-0.109,0.481-0.317,0.842-0.625,1.087
			c-0.305,0.245-0.72,0.365-1.235,0.365c-0.587,0-1.054-0.184-1.409-0.556c-0.35-0.369-0.52-0.881-0.52-1.538
			c0-0.664,0.175-1.182,0.522-1.551c0.353-0.364,0.828-0.553,1.427-0.553c0.489,0,0.881,0.103,1.168,0.315
			C187.925,86.152,188.131,86.474,188.258,86.906z"/>
		<path fill="#666666" d="M188.817,87.67c0-0.351,0.089-0.695,0.264-1.026c0.173-0.33,0.42-0.582,0.734-0.756
			c0.322-0.175,0.675-0.261,1.071-0.261c0.614,0,1.106,0.197,1.493,0.592c0.389,0.395,0.581,0.895,0.581,1.498
			c0,0.609-0.192,1.112-0.589,1.512c-0.392,0.4-0.887,0.6-1.482,0.6c-0.362,0-0.72-0.081-1.054-0.247
			c-0.334-0.167-0.587-0.409-0.761-0.731C188.904,88.524,188.817,88.132,188.817,87.67z M189.91,87.728
			c0,0.401,0.094,0.703,0.283,0.915c0.191,0.212,0.423,0.319,0.701,0.319c0.281,0,0.512-0.106,0.696-0.319
			c0.187-0.212,0.284-0.52,0.284-0.923c0-0.395-0.094-0.698-0.284-0.91c-0.186-0.212-0.417-0.315-0.696-0.315
			c-0.28,0-0.511,0.103-0.701,0.315C190.004,87.022,189.91,87.328,189.91,87.728z"/>
	</g>
</g>
</svg>
