<?xml version="1.0" encoding="utf-8"?>
<!-- Generator: Adobe Illustrator 17.0.0, SVG Export Plug-In . SVG Version: 6.00 Build 0)  -->
<!DOCTYPE svg PUBLIC "-//W3C//DTD SVG 1.1//EN" "http://www.w3.org/Graphics/SVG/1.1/DTD/svg11.dtd">
<svg version="1.1" xmlns="http://www.w3.org/2000/svg" xmlns:xlink="http://www.w3.org/1999/xlink" x="0px" y="0px" width="100px"
	 height="100px" viewBox="0 0 100 100" enable-background="new 0 0 100 100" xml:space="preserve">
<g id="Capa_2">
	<linearGradient id="SVGID_1_" gradientUnits="userSpaceOnUse" x1="50" y1="100" x2="50" y2="-2.244633e-009">
		<stop  offset="0" style="stop-color:#FFFFFF"/>
		<stop  offset="0.2306" style="stop-color:#FCFCFC;stop-opacity:0.8847"/>
		<stop  offset="0.3895" style="stop-color:#F3F3F3;stop-opacity:0.8052"/>
		<stop  offset="0.5268" style="stop-color:#E4E4E4;stop-opacity:0.7366"/>
		<stop  offset="0.6519" style="stop-color:#CECECE;stop-opacity:0.674"/>
		<stop  offset="0.7687" style="stop-color:#B2B2B2;stop-opacity:0.6157"/>
		<stop  offset="0.8793" style="stop-color:#8F8F8F;stop-opacity:0.5604"/>
		<stop  offset="0.9831" style="stop-color:#676767;stop-opacity:0.5084"/>
		<stop  offset="1" style="stop-color:#606060;stop-opacity:0.5"/>
	</linearGradient>
	<rect fill="url(#SVGID_1_)" width="100" height="100"/>
</g>
<g id="Capa_1">
	<g>
		<polygon fill="#6C2027" points="28.045,72.955 40.71,72.955 40.71,28.628 28.045,28.628 		"/>
		<polygon fill="#DD342E" points="73.955,70.58 61.29,72.955 53.567,29.244 66.039,27.045 		"/>
		<g>
			<polygon fill="#FFFFFF" points="31.211,46.834 37.544,46.834 37.544,34.169 31.211,34.169 			"/>
			<path fill="#FFFFFF" d="M37.544,66.623c0-1.749-1.418-3.166-3.166-3.166c-1.749,0-3.166,1.418-3.166,3.166
				s1.418,3.166,3.166,3.166C36.126,69.789,37.544,68.371,37.544,66.623"/>
		</g>
		<g>
			<polygon fill="#CCD0D2" points="31.211,44.459 37.544,44.459 37.544,42.876 31.211,42.876 			"/>
			<polygon fill="#CCD0D2" points="31.211,41.293 37.544,41.293 37.544,39.71 31.211,39.71 			"/>
			<polygon fill="#CCD0D2" points="31.211,38.127 37.544,38.127 37.544,36.544 31.211,36.544 			"/>
		</g>
		<polygon fill="#B12621" points="40.71,72.955 53.375,72.955 53.375,28.628 40.71,28.628 		"/>
		<g>
			<polygon fill="#FFFFFF" points="43.876,46.834 50.208,46.834 50.208,34.169 43.876,34.169 			"/>
			<path fill="#FFFFFF" d="M50.208,66.623c0-1.749-1.418-3.166-3.166-3.166c-1.749,0-3.166,1.418-3.166,3.166
				s1.418,3.166,3.166,3.166C48.791,69.789,50.208,68.371,50.208,66.623"/>
		</g>
		<g>
			<polygon fill="#CCD0D2" points="43.876,44.459 50.208,44.459 50.208,42.876 43.876,42.876 			"/>
			<polygon fill="#CCD0D2" points="43.876,41.293 50.208,41.293 50.208,39.71 43.876,39.71 			"/>
			<polygon fill="#CCD0D2" points="43.876,38.127 50.208,38.127 50.208,36.544 43.876,36.544 			"/>
		</g>
		<g>
			<polygon fill="#FFFFFF" points="66.083,45.524 59.847,46.623 57.647,34.151 63.884,33.051 			"/>
			<path fill="#FFFFFF" d="M69.519,65.012c-0.304-1.722-1.946-2.872-3.668-2.569c-1.722,0.304-2.872,1.946-2.568,3.668
				c0.303,1.722,1.946,2.872,3.667,2.569C68.673,68.376,69.823,66.735,69.519,65.012"/>
		</g>
		<g>
			<polygon fill="#CCD0D2" points="59.434,44.284 59.159,42.726 65.395,41.627 65.67,43.185 			"/>
			<polygon fill="#CCD0D2" points="58.884,41.166 58.609,39.608 64.845,38.509 65.121,40.067 			"/>
			<polygon fill="#CCD0D2" points="58.335,38.049 58.059,36.49 64.296,35.391 64.57,36.948 			"/>
		</g>
	</g>
	<linearGradient id="SVGID_2_" gradientUnits="userSpaceOnUse" x1="0" y1="92.25" x2="100" y2="92.25">
		<stop  offset="0" style="stop-color:#6C2027"/>
		<stop  offset="1" style="stop-color:#DD342E"/>
	</linearGradient>
	<rect y="84.5" fill="url(#SVGID_2_)" width="100" height="15.5"/>
	<g>
		<path fill="#FFFFFF" d="M9.327,90.945h1.549c0.904,0,1.452,0.536,1.452,1.312v0.011c0,0.877-0.683,1.332-1.533,1.332h-0.634v1.138
			H9.327V90.945z M10.822,92.857c0.417,0,0.661-0.249,0.661-0.574v-0.011c0-0.374-0.26-0.574-0.677-0.574h-0.645v1.159H10.822z"/>
		<path fill="#FFFFFF" d="M12.863,91.834h0.824v0.585c0.168-0.401,0.438-0.661,0.926-0.64v0.861H14.57
			c-0.547,0-0.883,0.331-0.883,1.024v1.072h-0.824V91.834z"/>
		<path fill="#FFFFFF" d="M14.908,93.302v-0.011c0-0.834,0.672-1.512,1.576-1.512c0.899,0,1.565,0.667,1.565,1.501v0.011
			c0,0.834-0.671,1.512-1.576,1.512C15.574,94.803,14.908,94.136,14.908,93.302z M17.237,93.302v-0.011
			c0-0.428-0.309-0.802-0.764-0.802c-0.471,0-0.753,0.363-0.753,0.791v0.011c0,0.428,0.309,0.802,0.764,0.802
			C16.956,94.093,17.237,93.729,17.237,93.302z"/>
		<path fill="#FFFFFF" d="M18.667,95.312l0.282-0.617c0.298,0.168,0.596,0.265,0.98,0.265c0.563,0,0.829-0.271,0.829-0.79v-0.142
			c-0.244,0.293-0.509,0.472-0.948,0.472c-0.677,0-1.289-0.493-1.289-1.354v-0.011c0-0.866,0.623-1.354,1.289-1.354
			c0.45,0,0.715,0.19,0.938,0.434v-0.379h0.823v2.248c0,0.52-0.125,0.899-0.368,1.143c-0.271,0.271-0.688,0.391-1.251,0.391
			C19.479,95.615,19.035,95.507,18.667,95.312z M20.758,93.145v-0.011c0-0.396-0.309-0.672-0.709-0.672s-0.705,0.276-0.705,0.672
			v0.011c0,0.401,0.304,0.672,0.705,0.672S20.758,93.54,20.758,93.145z"/>
		<path fill="#FFFFFF" d="M22.138,93.903v-0.011c0-0.634,0.482-0.927,1.17-0.927c0.292,0,0.503,0.049,0.709,0.119v-0.049
			c0-0.341-0.211-0.53-0.623-0.53c-0.314,0-0.536,0.06-0.802,0.157l-0.206-0.629c0.319-0.141,0.634-0.232,1.126-0.232
			c0.45,0,0.775,0.119,0.98,0.324c0.217,0.217,0.314,0.537,0.314,0.927v1.685h-0.796v-0.314c-0.201,0.223-0.477,0.368-0.877,0.368
			C22.588,94.791,22.138,94.478,22.138,93.903z M24.029,93.714v-0.146c-0.141-0.065-0.325-0.108-0.525-0.108
			c-0.352,0-0.569,0.141-0.569,0.4v0.012c0,0.222,0.184,0.352,0.45,0.352C23.769,94.223,24.029,94.012,24.029,93.714z"/>
		<path fill="#FFFFFF" d="M25.522,91.834h0.824v0.411c0.189-0.243,0.438-0.466,0.855-0.466c0.379,0,0.667,0.168,0.818,0.461
			c0.254-0.298,0.558-0.461,0.953-0.461c0.612,0,0.98,0.369,0.98,1.067v1.891H29.13v-1.62c0-0.39-0.173-0.59-0.482-0.59
			c-0.309,0-0.498,0.2-0.498,0.59v1.62h-0.823v-1.62c0-0.39-0.173-0.59-0.482-0.59c-0.309,0-0.498,0.2-0.498,0.59v1.62h-0.824
			V91.834z"/>
		<path fill="#FFFFFF" d="M30.501,93.903v-0.011c0-0.634,0.482-0.927,1.17-0.927c0.292,0,0.503,0.049,0.709,0.119v-0.049
			c0-0.341-0.211-0.53-0.623-0.53c-0.314,0-0.536,0.06-0.802,0.157l-0.206-0.629c0.319-0.141,0.634-0.232,1.126-0.232
			c0.45,0,0.775,0.119,0.98,0.324c0.217,0.217,0.314,0.537,0.314,0.927v1.685h-0.796v-0.314c-0.201,0.223-0.477,0.368-0.877,0.368
			C30.951,94.791,30.501,94.478,30.501,93.903z M32.392,93.714v-0.146c-0.141-0.065-0.325-0.108-0.525-0.108
			c-0.352,0-0.569,0.141-0.569,0.4v0.012c0,0.222,0.184,0.352,0.45,0.352C32.132,94.223,32.392,94.012,32.392,93.714z"/>
		<path fill="#FFFFFF" d="M36.899,90.918h0.77l1.625,3.819h-0.872l-0.347-0.851h-1.604l-0.347,0.851h-0.851L36.899,90.918z
			 M37.777,93.15l-0.504-1.229L36.77,93.15H37.777z"/>
		<path fill="#FFFFFF" d="M39.797,91.834h0.824v0.411c0.189-0.243,0.433-0.466,0.85-0.466c0.623,0,0.986,0.412,0.986,1.078v1.88
			h-0.823v-1.62c0-0.39-0.184-0.59-0.498-0.59c-0.314,0-0.515,0.2-0.515,0.59v1.62h-0.824V91.834z"/>
		<path fill="#FFFFFF" d="M43.155,93.714v-1.88h0.824v1.619c0,0.391,0.184,0.591,0.498,0.591s0.515-0.2,0.515-0.591v-1.619h0.823
			v2.903h-0.823v-0.412c-0.189,0.244-0.434,0.466-0.851,0.466C43.518,94.791,43.155,94.38,43.155,93.714z"/>
		<path fill="#FFFFFF" d="M46.383,93.903v-0.011c0-0.634,0.481-0.927,1.17-0.927c0.292,0,0.504,0.049,0.709,0.119v-0.049
			c0-0.341-0.211-0.53-0.622-0.53c-0.314,0-0.537,0.06-0.802,0.157l-0.206-0.629c0.319-0.141,0.634-0.232,1.127-0.232
			c0.449,0,0.774,0.119,0.98,0.324c0.216,0.217,0.313,0.537,0.313,0.927v1.685h-0.796v-0.314c-0.2,0.223-0.477,0.368-0.878,0.368
			C46.832,94.791,46.383,94.478,46.383,93.903z M48.273,93.714v-0.146c-0.142-0.065-0.325-0.108-0.525-0.108
			c-0.353,0-0.569,0.141-0.569,0.4v0.012c0,0.222,0.185,0.352,0.449,0.352C48.013,94.223,48.273,94.012,48.273,93.714z"/>
		<path fill="#FFFFFF" d="M49.804,90.783h0.823v3.954h-0.823V90.783z"/>
		<path fill="#FFFFFF" d="M52.901,93.291V93.28c0-0.97,0.634-1.501,1.321-1.501c0.439,0,0.71,0.201,0.905,0.434v-1.43h0.823v3.954
			h-0.823V94.32c-0.2,0.271-0.477,0.471-0.905,0.471C53.546,94.791,52.901,94.261,52.901,93.291z M55.139,93.291V93.28
			c0-0.482-0.319-0.802-0.704-0.802s-0.71,0.314-0.71,0.802v0.011c0,0.482,0.325,0.802,0.71,0.802S55.139,93.773,55.139,93.291z"/>
		<path fill="#FFFFFF" d="M56.552,93.302v-0.011c0-0.829,0.591-1.512,1.436-1.512c0.97,0,1.414,0.753,1.414,1.577
			c0,0.064-0.006,0.141-0.011,0.216H57.37c0.081,0.374,0.341,0.569,0.709,0.569c0.276,0,0.477-0.087,0.704-0.298l0.472,0.417
			c-0.271,0.336-0.661,0.542-1.187,0.542C57.196,94.803,56.552,94.19,56.552,93.302z M58.6,93.058
			c-0.049-0.368-0.266-0.617-0.612-0.617c-0.342,0-0.563,0.244-0.629,0.617H58.6z"/>
		<path fill="#FFFFFF" d="M61.73,90.945h2.86v0.742H62.56v0.77h1.787v0.742H62.56v0.796h2.058v0.742H61.73V90.945z"/>
		<path fill="#FFFFFF" d="M64.964,91.834h0.872l0.65,1.944l0.655-1.944h0.855l-1.143,2.925h-0.748L64.964,91.834z"/>
		<path fill="#FFFFFF" d="M68.169,93.903v-0.011c0-0.634,0.481-0.927,1.17-0.927c0.292,0,0.504,0.049,0.709,0.119v-0.049
			c0-0.341-0.211-0.53-0.622-0.53c-0.314,0-0.537,0.06-0.802,0.157l-0.206-0.629c0.319-0.141,0.634-0.232,1.127-0.232
			c0.449,0,0.774,0.119,0.98,0.324c0.216,0.217,0.313,0.537,0.313,0.927v1.685h-0.796v-0.314c-0.2,0.223-0.477,0.368-0.878,0.368
			C68.618,94.791,68.169,94.478,68.169,93.903z M70.06,93.714v-0.146c-0.142-0.065-0.325-0.108-0.526-0.108
			c-0.352,0-0.568,0.141-0.568,0.4v0.012c0,0.222,0.185,0.352,0.449,0.352C69.799,94.223,70.06,94.012,70.06,93.714z"/>
		<path fill="#FFFFFF" d="M71.591,90.783h0.823v3.954h-0.823V90.783z"/>
		<path fill="#FFFFFF" d="M73.169,93.714v-1.88h0.823v1.619c0,0.391,0.185,0.591,0.498,0.591c0.314,0,0.515-0.2,0.515-0.591v-1.619
			h0.824v2.903h-0.824v-0.412c-0.189,0.244-0.433,0.466-0.85,0.466C73.532,94.791,73.169,94.38,73.169,93.714z"/>
		<path fill="#FFFFFF" d="M76.396,93.903v-0.011c0-0.634,0.481-0.927,1.17-0.927c0.292,0,0.504,0.049,0.709,0.119v-0.049
			c0-0.341-0.211-0.53-0.622-0.53c-0.314,0-0.537,0.06-0.802,0.157l-0.206-0.629c0.319-0.141,0.634-0.232,1.127-0.232
			c0.449,0,0.774,0.119,0.98,0.324c0.216,0.217,0.313,0.537,0.313,0.927v1.685h-0.796v-0.314c-0.2,0.223-0.477,0.368-0.878,0.368
			C76.846,94.791,76.396,94.478,76.396,93.903z M78.287,93.714v-0.146c-0.142-0.065-0.325-0.108-0.525-0.108
			c-0.353,0-0.569,0.141-0.569,0.4v0.012c0,0.222,0.185,0.352,0.449,0.352C78.026,94.223,78.287,94.012,78.287,93.714z"/>
		<path fill="#FFFFFF" d="M79.64,93.302v-0.011c0-0.829,0.634-1.512,1.522-1.512c0.547,0,0.888,0.185,1.159,0.488l-0.504,0.541
			c-0.185-0.194-0.368-0.319-0.661-0.319c-0.411,0-0.704,0.363-0.704,0.791v0.011c0,0.444,0.287,0.802,0.736,0.802
			c0.276,0,0.466-0.119,0.667-0.309l0.481,0.487c-0.281,0.309-0.606,0.531-1.186,0.531C80.279,94.803,79.64,94.131,79.64,93.302z"/>
		<path fill="#FFFFFF" d="M82.895,90.783h0.866v0.731h-0.866V90.783z M82.916,91.834h0.823v2.903h-0.823V91.834z"/>
		<path fill="#FFFFFF" d="M84.375,93.302v-0.011c0-0.834,0.672-1.512,1.576-1.512c0.899,0,1.565,0.667,1.565,1.501v0.011
			c0,0.834-0.672,1.512-1.576,1.512C85.041,94.803,84.375,94.136,84.375,93.302z M86.704,93.302v-0.011
			c0-0.428-0.309-0.802-0.764-0.802c-0.472,0-0.753,0.363-0.753,0.791v0.011c0,0.428,0.309,0.802,0.764,0.802
			C86.423,94.093,86.704,93.729,86.704,93.302z M86.222,90.556l0.71,0.309l-0.704,0.65h-0.606L86.222,90.556z"/>
		<path fill="#FFFFFF" d="M88.116,91.834h0.823v0.411c0.189-0.243,0.434-0.466,0.851-0.466c0.623,0,0.986,0.412,0.986,1.078v1.88
			h-0.823v-1.62c0-0.39-0.185-0.59-0.499-0.59c-0.313,0-0.515,0.2-0.515,0.59v1.62h-0.823V91.834z"/>
	</g>
	<g>
		<g>
			<path fill="#4F4F4F" d="M28.038,4.451h7.08c4.181,0,7.035,1.866,7.035,5.597v0.045c0,3.798-2.899,5.821-7.147,5.821h-1.708v4.271
				h-5.26V4.451z M34.713,12.161c1.348,0,2.248-0.607,2.248-1.731v-0.045c0-1.146-0.832-1.73-2.225-1.73h-1.438v3.506H34.713z"/>
			<path fill="#4F4F4F" d="M47.188,4.339h5.214l6.631,15.846h-5.709l-0.832-2.113h-5.506l-0.81,2.113h-5.619L47.188,4.339z
				 M51.188,14.341L49.75,10.52l-1.438,3.821H51.188z"/>
			<path fill="#4F4F4F" d="M59.687,4.451h13.418v4.315h-8.249v1.596h7.688v3.799h-7.688v1.708h8.361v4.315h-13.53V4.451z"/>
		</g>
		<g>
			<path fill="#262525" d="M27.164,3.628h7.08c4.181,0,7.035,1.866,7.035,5.597V9.27c0,3.798-2.899,5.821-7.147,5.821h-1.708v4.271
				h-5.26V3.628z M33.84,11.337c1.348,0,2.248-0.607,2.248-1.731V9.562c0-1.146-0.832-1.73-2.225-1.73h-1.438v3.506H33.84z"/>
			<path fill="#262525" d="M46.315,3.516h5.214l6.631,15.846h-5.709l-0.832-2.113h-5.506l-0.81,2.113h-5.619L46.315,3.516z
				 M50.315,13.518l-1.438-3.821l-1.438,3.821H50.315z"/>
			<path fill="#262525" d="M58.813,3.628h13.418v4.315h-8.249v1.596h7.688v3.799h-7.688v1.708h8.361v4.315h-13.53V3.628z"/>
		</g>
	</g>
</g>
</svg>
