<?xml version="1.0" encoding="utf-8"?>
<!-- Generator: Adobe Illustrator 17.0.0, SVG Export Plug-In . SVG Version: 6.00 Build 0)  -->
<!DOCTYPE svg PUBLIC "-//W3C//DTD SVG 1.1//EN" "http://www.w3.org/Graphics/SVG/1.1/DTD/svg11.dtd">
<svg version="1.1" id="Capa_1" xmlns="http://www.w3.org/2000/svg" xmlns:xlink="http://www.w3.org/1999/xlink" x="0px" y="0px"
	 width="100px" height="100px" viewBox="0 0 100 100" enable-background="new 0 0 100 100" xml:space="preserve">
<g id="Capa_2">
	<linearGradient id="SVGID_1_" gradientUnits="userSpaceOnUse" x1="50" y1="100" x2="50" y2="-2.244633e-009">
		<stop  offset="0" style="stop-color:#006DD0"/>
		<stop  offset="1" style="stop-color:#0099D0"/>
	</linearGradient>
	<rect fill="url(#SVGID_1_)" width="100" height="100"/>
</g>
<g id="Capa_1_1_">
	<g>
		<path fill="#B3B3B3" d="M14.646,63.079c-1.312-1.375-2.722-2.648-4.131-3.921c-0.124-0.112-0.258-0.214-0.387-0.32
			C9.591,58.14,8.84,57.666,8.231,57.04c-0.288-0.297-0.328-0.475,0.004-0.748c2.656-2.19,5.303-4.39,7.955-6.584
			c0.053-0.044,0.132-0.057,0.199-0.085c0.143,0.33-0.179,0.47-0.284,0.698c-0.098,0.136-0.215,0.25-0.367,0.323
			c-0.246,0.088-0.428,0.251-0.558,0.476c-1.495,1.453-3.156,2.71-4.759,4.036c-0.448,0.37-0.884,0.755-1.343,1.111
			c-0.374,0.29-0.381,0.478-0.001,0.834c1.904,1.79,3.856,3.529,5.764,5.314c0.071,0.067,0.117,0.154,0.151,0.245
			c-0.013,0.353,0.545,0.467,0.375,0.887C15.127,63.392,14.886,63.236,14.646,63.079z"/>
		<path fill="#999999" d="M29.808,38.415c1.273-1.043,2.545-2.087,3.82-3.126c0.224-0.183,0.464-0.346,0.696-0.519
			c0.112,0.032,0.182,0.103,0.2,0.221c-0.051,0.298-0.314,0.416-0.51,0.584c-1.666,1.432-3.377,2.809-5.073,4.204
			c-0.183,0.15-0.347,0.347-0.623,0.322c-0.106-0.046-0.186-0.106-0.127-0.24C28.731,39.379,29.269,38.897,29.808,38.415z"/>
		<path fill="#B0B0B0" d="M15.961,50.253c0.143-0.21,0.285-0.42,0.428-0.63c1.048-0.995,2.17-1.901,3.334-2.757
			c0.021,0.028,0.042,0.057,0.063,0.085c0.002,0.189-0.106,0.333-0.197,0.484c-0.964,1.063-2.15,1.872-3.229,2.804
			C16.25,50.336,16.098,50.369,15.961,50.253z"/>
		<path fill="#A0A0A0" d="M28.192,39.861c0.055,0.059,0.11,0.117,0.165,0.176c0.071,0.28-0.162,0.379-0.317,0.516
			c-0.927,0.821-1.917,1.566-2.856,2.372c-0.142,0.122-0.286,0.282-0.511,0.165c-0.125-0.221,0.068-0.323,0.171-0.46
			C25.916,41.654,27.016,40.712,28.192,39.861z"/>
		<path fill="#ABAAAA" d="M19.723,46.867c0.479-0.519,1.019-0.964,1.623-1.329c0.138,0.238-0.059,0.39-0.144,0.572
			c-0.292,0.414-0.66,0.729-1.15,0.888c-0.112,0.008-0.212-0.022-0.293-0.103L19.723,46.867z"/>
		<path fill="#A8A8A8" d="M24.845,42.631c-0.044,0.15-0.089,0.3-0.133,0.45c-0.151,0.422-0.438,0.7-0.869,0.828
			c-0.07-0.007-0.131-0.035-0.183-0.082c-0.056-0.262,0.22-0.308,0.31-0.475C24.225,43.068,24.467,42.768,24.845,42.631z"/>
		<path fill="#A5A5A5" d="M21.065,46.028c0.093-0.163,0.187-0.327,0.28-0.491c0.253-0.29,0.502-0.583,0.877-0.725
			c0.104,0.141,0.042,0.277-0.013,0.413C21.886,45.576,21.72,46.151,21.065,46.028z"/>
		<path fill="#A3A3A3" d="M22.085,45.147c0.046-0.111,0.091-0.223,0.137-0.334c0.098-0.086,0.196-0.173,0.294-0.259
			c0.102-0.079,0.207-0.091,0.315-0.011C22.789,44.999,22.592,45.264,22.085,45.147z"/>
		<path fill="#A9A9A9" d="M22.837,44.566c-0.107-0.004-0.214-0.008-0.321-0.012c0.13-0.228,0.327-0.379,0.564-0.482
			c0.111,0.038,0.185,0.11,0.216,0.225C23.238,44.548,23.122,44.702,22.837,44.566z"/>
		<path fill="#A8A8A8" d="M23.258,44.267c-0.059-0.065-0.118-0.13-0.177-0.195c0.097-0.085,0.193-0.17,0.29-0.256
			c0.107-0.073,0.213-0.08,0.315,0.008l0.018,0.023C23.699,44.141,23.571,44.302,23.258,44.267z"/>
		<path fill="#A9A9A9" d="M23.686,43.825c-0.105-0.003-0.21-0.006-0.315-0.008c0.164-0.2,0.339-0.386,0.598-0.464
			C23.875,43.51,23.781,43.668,23.686,43.825z"/>
		<path fill="#8F8F8F" d="M74.001,88.723c-1.95-2.614-3.947-5.19-6.018-7.71c-0.448-0.25-0.675-0.701-0.984-1.078
			c-0.296-0.425-0.696-0.767-0.97-1.21c-0.19-0.381-0.553-0.625-0.776-0.98c-0.242-0.424-0.581-0.775-0.874-1.161
			c-0.313-0.452-0.672-0.868-1.011-1.3c-0.265-0.355-0.515-0.723-0.82-1.047c-0.16-0.196-0.287-0.416-0.458-0.604
			c-0.221-0.348-0.515-0.638-0.755-0.971c-0.134-0.21-0.303-0.393-0.459-0.585c-0.229-0.219-0.451-0.444-0.58-0.743
			c-0.078-0.148-0.194-0.278-0.205-0.456c0.039-0.151,0.116-0.261,0.289-0.268c0.318,0.07,0.46,0.34,0.637,0.567
			c4.598,5.899,9.2,11.795,13.795,17.697c0.188,0.242,0.339,0.53,0.686,0.705c0.408-1.108,0.701-2.23,1.036-3.337
			c1.86-6.135,3.709-12.273,5.564-18.409c1.736-5.741,3.45-11.489,5.214-17.221c0.205-0.665,0.085-1.22-0.239-1.802
			c-2.23-4.01-4.4-8.053-6.597-12.081c-0.047-0.086-0.087-0.174-0.114-0.268c-0.046-0.179,0.07-0.276,0.187-0.373
			c0.611,0.5,0.778,1.277,1.183,1.906c0.154,0.239,0.297,0.485,0.445,0.729c1.437,2.679,2.873,5.359,4.313,8.036
			c0.032,0.06,0.102,0.101,0.154,0.151c0.367,0.173,0.381,0.538,0.47,0.862c0.101,0.509,0.459,0.881,0.701,1.315
			c0.242,0.424,0.22,0.829,0.075,1.307c-2.296,7.549-4.577,15.102-6.837,22.662c-0.616,2.062-1.322,4.098-1.813,6.196
			c-0.179,0.212-0.22,0.472-0.258,0.733c0.144,0.293,0.032,0.521-0.184,0.722c-0.26,0.455-0.358,0.958-0.439,1.467
			c0.021,0.377-0.008,0.739-0.318,1.012c-0.714,2.292-1.428,4.585-2.142,6.877c-0.064,0.205-0.135,0.408-0.229,0.691
			C75.091,90.048,74.546,89.385,74.001,88.723z"/>
		<path fill="#949493" d="M34.484,34.934c-0.053-0.055-0.106-0.109-0.159-0.164c1.333-1.125,2.668-2.249,3.999-3.377
			c0.24-0.203,0.463-0.426,0.693-0.64c0.911-0.737,1.821-1.473,2.732-2.21c0.178,0.139,0.167,0.317,0.109,0.506
			c-1.597,1.403-3.251,2.739-4.892,4.091c-0.504,0.415-1,0.84-1.507,1.252C35.172,34.626,34.925,34.964,34.484,34.934z"/>
		<path fill="#959594" d="M31.841,78.404c-0.05,0.14-0.146,0.231-0.285,0.279c-1.457-1.357-2.915-2.714-4.372-4.07
			c-1.167-1.12-2.335-2.241-3.502-3.361c-0.054-0.137,0.03-0.188,0.138-0.225c0.834,0.296,1.337,1.025,1.946,1.584
			c1.946,1.785,3.86,3.604,5.822,5.372C31.714,78.095,31.838,78.214,31.841,78.404z"/>
		<path fill="#CA5C32" d="M41.712,29.078c0.012-0.179,0.025-0.357,0.037-0.536c0.161-1.708,0.63-3.342,1.202-4.95
			c1.17-2.515,2.801-4.676,4.945-6.444c1.607-1.193,3.367-2.099,5.249-2.774c0.115-0.175,0.319-0.053,0.461-0.138
			c0.283-0.063,0.567-0.125,0.85-0.188c1.834-0.36,3.682-0.432,5.541-0.28c2.33,0.383,4.56,1.053,6.564,2.344
			c0.648,0.417,1.269,0.877,1.902,1.318c2.273,2.005,3.992,4.386,4.973,7.278c0.91,2.683,1.059,5.427,0.716,8.219
			c-0.047,0.38,0.023,0.775-0.181,1.129c-0.776,0.36-1.005,0.289-1.425-0.442c-0.062-0.761,0.205-1.482,0.275-2.23
			c0.305-3.219-0.408-6.176-2.241-8.835c-2.182-3.166-5.234-4.981-9.005-5.619c-0.385-0.065-0.774-0.058-1.156,0.044
			c-1.597-0.084-3.192-0.259-4.787,0.054c-5.803,1.139-10.014,5.622-10.711,11.485c-0.169,1.422-0.131,2.862,0.192,4.276
			c0.064,0.278,0.19,0.56,0.035,0.851c-1.098,0.529-2.208,0.454-3.325,0.064c-0.36-1.246-0.407-2.525-0.396-3.81
			C41.432,29.593,41.571,29.334,41.712,29.078z"/>
		<path fill="#C9582C" d="M73.534,36.39c-0.205,0.776-0.41,1.552-0.615,2.329c0.067,0.189,0.056,0.359-0.115,0.492
			c-0.071,0.026-0.143,0.035-0.218,0.031c-0.773,0.047-1.527-0.279-2.311-0.1c-0.224,0.051-0.43-0.069-0.469-0.344
			c0.467-0.975,0.976-1.919,1.854-2.602c0.404,0.171,0.818,0.214,1.238,0.07C73.138,36.183,73.358,36.166,73.534,36.39z"/>
		<path fill="#C95A30" d="M73.534,36.39c-0.464-0.174-0.851,0.286-1.322,0.154c-0.219-0.062-0.508,0.049-0.554-0.309
			c-0.088-0.093-0.143-0.217-0.1-0.327c0.291-0.754,0.556-1.519,0.929-2.239c0.034-0.066,0.121-0.063,0.193-0.057
			c0.256,0.654,0.815,0.432,1.292,0.445C73.977,34.863,73.726,35.621,73.534,36.39z"/>
		<path fill="#B7B7B7" d="M72.808,39.132c0.038-0.137-0.036-0.305,0.111-0.414c0.736-0.138,1.41-0.456,2.098-0.732
			c0.17-0.282,0.498-0.161,0.73-0.284c0.34-0.105,0.679-0.211,1.019-0.316c1.261-0.433,2.523-0.866,3.784-1.298
			c-0.041,0.097-0.082,0.195-0.123,0.292c-0.069,0.144-0.198,0.223-0.329,0.3c-1.575,0.687-3.221,1.183-4.829,1.785
			c-0.566,0.212-1.134,0.42-1.705,0.617C73.324,39.164,73.073,39.321,72.808,39.132z"/>
		<path fill="#9F9E9E" d="M23.84,71.092c-0.053,0.053-0.106,0.106-0.159,0.159c-0.243-0.188-0.486-0.377-0.729-0.565
			c-1.159-1.227-2.524-2.24-3.648-3.504c-0.098-0.132-0.305-0.267,0.012-0.385c0.213-0.002,0.358,0.129,0.497,0.262
			c1.2,1.149,2.415,2.282,3.664,3.378C23.666,70.602,23.912,70.768,23.84,71.092z"/>
		<path fill="#A8A8A8" d="M19.314,66.866c-0.168,0.1,0,0.211-0.01,0.316c-0.187-0.119-0.374-0.238-0.56-0.357
			c-0.559-0.401-1.044-0.88-1.473-1.416c-0.089-0.286-0.522-0.378-0.431-0.765c0.022-0.01,0.046-0.03,0.066-0.027
			C17.392,64.71,19.146,66.349,19.314,66.866z"/>
		<path fill="#ADADAD" d="M16.832,64.672c0.097,0.275,0.456,0.394,0.439,0.736c-0.635-0.62-1.269-1.241-1.904-1.861
			c0.005-0.337-0.555-0.361-0.426-0.767c0.353-0.08,0.508,0.21,0.698,0.399C16.09,63.633,16.525,64.103,16.832,64.672z"/>
		<path fill="#C9C8C8" d="M16.832,64.672c-0.745-0.516-1.109-1.413-1.891-1.891c-1.361-1.263-2.698-2.555-4.093-3.779
			c-0.781-0.686-1.429-1.512-2.291-2.112c-0.297-0.207-0.032-0.35,0.136-0.489c1.301-1.076,2.605-2.147,3.894-3.237
			c0.845-0.714,1.667-1.454,2.499-2.183c0.199-0.143,0.379-0.312,0.587-0.445c0.096-0.094,0.192-0.189,0.289-0.283
			c0.86-0.439,1.496-1.168,2.235-1.761c0.44-0.354,0.974-0.628,1.263-1.155c0.201-0.143,0.38-0.315,0.59-0.446
			c0.361-0.262,0.783-0.451,1.016-0.863c0.474-0.139,0.737-0.521,1.02-0.881c0.365-0.045,0.545-0.33,0.751-0.581
			c0.201-0.014,0.334-0.124,0.421-0.298c0.149-0.14,0.297-0.28,0.446-0.419c0.452-0.102,0.638-0.555,1.007-0.767
			c1.215-1.015,2.431-2.03,3.646-3.044c2.042-1.701,4.084-3.402,6.126-5.103c2.288-1.877,4.575-3.755,6.865-5.629
			c0.109-0.09,0.242-0.151,0.364-0.226c-0.17,1.573,0.042,3.127,0.226,4.683c0.025,0.073,0.007,0.133-0.053,0.18
			c-0.632-0.207-0.754-0.847-1.056-1.312c-0.312-0.482-0.513-0.595-0.98-0.174c-0.772,0.696-1.582,1.354-2.382,2.02
			c-0.605,0.504-0.614,0.677-0.179,1.351c0.736,1.14,1.531,2.241,2.233,3.403c0.314,0.519,0.786,0.528,1.272,0.457
			c0.867-0.127,1.731-0.183,2.603-0.057c0.183,0.076,0.29,0.224,0.375,0.394c0.09,0.349,0.386,0.656,0.215,1.058
			c-0.929,0.275-1.9,0.216-2.873,0.344c0.24,0.548,0.617,0.987,0.932,1.466c1.506,2.285,3.084,4.523,4.572,6.819
			c0.513,0.792,1.135,1.13,2.04,1.082c0.361-0.019,0.727-0.035,1.087,0.041c0.521,0.281,0.822,0.777,1.179,1.218
			c0.098,0.178,0.31,0.324,0.165,0.572c-0.474,0.214-0.949,0.153-1.415,0.067c0.311,0.394,0.746,0.739,1.139,1.124
			c0.04,0.06,0.059,0.126,0.057,0.199c-0.247,0.47-0.566,0.886-0.949,1.253c-0.107,0.04-0.214,0.037-0.32-0.004
			c-0.822-0.646-1.502-1.441-2.244-2.171c-0.334-0.328-0.696-0.468-1.164-0.485c-1.982-0.073-3.967-0.106-6.002-0.308
			c2.253,2.103,4.283,4.365,6.42,6.523c0.105,0.093,0.215,0.181,0.293,0.301c-0.186,0.521-0.686,0.806-0.953,1.267
			c-0.365,0.359-0.541,0.887-1.022,1.143c-0.075-0.002-0.143-0.024-0.205-0.065c-0.597-0.749-0.933-1.644-1.339-2.493
			c-0.713-1.492-1.677-2.775-2.917-3.862c-0.231-0.202-0.442-0.427-0.615-0.629c1.047,3.819,1.817,7.704,1.349,11.735
			c-0.028,0.147-0.081,0.285-0.15,0.416c-0.669,0.839-1.298,1.711-1.973,2.545c-0.136,0.167-0.242,0.45-0.561,0.292
			c0.089-0.78-0.415-1.079-1.029-1.348c-2.532-1.11-5.028-2.298-7.6-3.485c0.252,0.945,0.702,1.759,1.067,2.603
			c0.568,1.313,1.179,2.608,1.731,3.929c0.166,0.398,0.449,0.596,0.848,0.717c0.832,0.252,1.715,0.337,2.5,0.747
			c0.106,0.629-0.439,0.897-0.726,1.309c-0.128,0.123-0.257,0.246-0.427,0.311c-0.324,0.087-0.619-0.059-0.926-0.115
			c-2.261-0.412-4.414-1.238-6.596-1.711c1.61,1.612,3.403,3.12,5.06,4.773c0.038,0.057,0.063,0.12,0.078,0.187
			c0.014,0.337-0.377,0.535-0.304,0.893c-0.029,0.097-0.067,0.178-0.191,0.112c-0.053,0.003-0.106,0.007-0.158,0.01
			c-1.974-1.661-3.802-3.482-5.704-5.221c-0.764-0.699-1.532-1.394-2.298-2.091c-1.509-1.409-3.017-2.817-4.526-4.226
			C18.459,66.166,17.818,65.224,16.832,64.672z"/>
		<path fill="#B0B0B0" d="M15.673,50.536c-0.132,0.232-0.299,0.418-0.587,0.445C15.207,50.734,15.371,50.545,15.673,50.536z"/>
		<path fill="#A6A6A6" d="M20.049,46.891c-0.134,0.232-0.303,0.417-0.59,0.446c0.1-0.147,0.2-0.295,0.299-0.443
			C19.856,46.893,19.953,46.892,20.049,46.891z"/>
		<path fill="#C9C8C8" d="M80.117,36.521c0.103-0.047,0.206-0.094,0.31-0.141c0.895,1.302,1.543,2.744,2.31,4.118
			c1.559,2.796,3.056,5.628,4.61,8.428c0.306,0.552,0.366,1.052,0.181,1.649c-1.054,3.401-2.092,6.807-3.12,10.216
			c-1.93,6.399-3.847,12.803-5.774,19.203c-0.956,3.177-1.921,6.352-2.886,9.527c-0.048,0.157-0.126,0.304-0.229,0.546
			c-0.759-0.969-1.472-1.878-2.183-2.789c-3.458-4.431-6.909-8.867-10.377-13.291c-0.878-1.121-1.668-2.314-2.675-3.332
			c-0.084,0.083-0.178,0.095-0.281,0.038c0.047-0.461,0.44-0.733,0.611-1.127c0.075-0.077,0.16-0.128,0.273-0.102
			c0.241,0.226,0.458,0.342,0.651-0.065c0.152-0.322,0.355-0.619,0.543-0.921c0.221-0.354,0.198-0.669-0.071-0.977
			c-0.029-0.062-0.041-0.128-0.038-0.196c0.105-0.398,0.36-0.718,0.555-1.069c0.1-0.136,0.182-0.3,0.394-0.274
			c0.24,0.313,0.427,0.474,0.675-0.033c0.274-0.559,0.592-1.103,0.93-1.629c0.208-0.324,0.202-0.63-0.018-0.939
			c-0.031-0.061-0.049-0.125-0.058-0.193c0.05-0.422,0.358-0.708,0.56-1.049c0.111-0.12,0.196-0.292,0.411-0.222
			c0.211,0.279,0.369,0.221,0.536-0.058c0.533-0.891,1.042-1.795,1.55-2.701c0.153-0.273,0.093-0.507-0.075-0.74
			c-0.033-0.06-0.052-0.125-0.059-0.193c0.162-0.484,0.424-0.909,0.758-1.292c0.061-0.03,0.126-0.045,0.194-0.043
			c0.247,0.124,0.488,0.229,0.629-0.139c0.194-0.504,0.766-0.923,0.351-1.564c-0.027-0.063-0.038-0.128-0.038-0.196
			c0.191-0.458,0.432-0.889,0.713-1.299c0.11-0.022,0.208,0,0.287,0.085c0.201,0.49,0.367,1,0.732,1.402
			c0.415,0.457,0.932,0.707,1.549,0.596c0.586-0.105,0.915-0.537,1.043-1.087c0.386-1.663,0.372-3.257-0.914-4.592
			c-0.084-0.069-0.153-0.15-0.203-0.247c-0.104-0.406,0.208-0.645,0.375-0.942c0.103-0.135,0.202-0.277,0.379-0.326
			c0.622,0.073,0.592-0.267,0.433-0.687c-0.021-0.062-0.03-0.126-0.031-0.191c0.061-0.352,0.276-0.639,0.403-0.963
			c0.05-0.117,0.098-0.235,0.157-0.349c0.291-0.304,0.508-0.661,0.727-1.018c0.109-0.125,0.199-0.283,0.406-0.241
			c0.367,0.333,0.388-0.104,0.476-0.247c0.947-1.521,1.807-3.094,2.71-4.641c0.391-0.669,0.817-1.317,1.165-2.011
			c0.105-0.209,0.29-0.407,0.127-0.669c-0.024-0.064-0.037-0.13-0.039-0.199C79.824,37.047,80.049,36.818,80.117,36.521z"/>
		<path fill="#FFFFFF" d="M45.097,33.616c-1.09-4.563-0.325-8.748,2.782-12.321c3.254-3.741,7.42-5.203,12.338-4.481
			c0.071,0.01,0.145,0.004,0.217,0.005c0.617-0.079,1.218,0.063,1.775,0.272c5.084,1.903,8.316,5.432,9.198,10.858
			c0.707,4.351-0.587,8.176-3.555,11.389c-1.923,2.082-4.329,3.409-7.136,3.955c-0.424,0.066-0.845,0.151-1.272,0.189
			c-2.78,0.356-5.412-0.073-7.857-1.485c-0.808-0.585-1.67-1.096-2.452-1.72c-1.28-1.158-2.322-2.508-3.192-3.995
			c-0.254-0.642-0.568-1.259-0.784-1.915C45.08,34.126,44.935,33.881,45.097,33.616z"/>
		<path fill="#B14919" d="M60.731,43.122c5.004-1.237,8.474-4.229,10.039-9.159c2.438-7.68-2.431-15.611-10.335-17.143
			c1.116-0.357,2.166,0.074,3.164,0.405c5.023,1.665,8.14,5.084,9.244,10.298c0.397,1.876,0.337,3.732-0.112,5.586
			c-0.039,0.162-0.035,0.336-0.05,0.504c-0.341,0.874-0.681,1.749-1.022,2.623c-0.582,0.828-1.164,1.657-1.747,2.485
			c-0.681,1.137-1.749,1.864-2.785,2.626c-1.643,1.08-3.433,1.78-5.377,2.083c-0.194,0.007-0.387,0.008-0.581-0.004
			C60.983,43.382,60.751,43.404,60.731,43.122z"/>
		<path fill="#C95B30" d="M45.097,33.616c0.341,0.877,0.682,1.755,1.022,2.632c-0.149,0.381-0.444,0.517-0.835,0.567
			c-0.963,0.122-1.9,0.001-2.829-0.243c-0.456-0.825-0.645-1.707-0.563-2.647c0.015-0.054,0.03-0.109,0.046-0.163
			c0.523,0.001,1.047,0.002,1.57,0.003C44.042,33.766,44.58,33.796,45.097,33.616z"/>
		<path fill="#C95729" d="M67.138,41.196c0.973-0.771,1.891-1.604,2.773-2.476c0.024,0.252,0.206,0.358,0.398,0.269
			c0.728-0.337,1.429,0.122,2.145,0.043c0.072-0.008,0.155,0.089,0.233,0.138c0.223,0.436-0.12,0.786-0.175,1.181
			c-0.122,0.334-0.233,0.675-0.531,0.907c-0.276,0.253-0.586,0.428-0.972,0.433c-1.161,0.014-2.324,0.081-3.47-0.187
			C67.361,41.462,67.131,41.483,67.138,41.196z"/>
		<path fill="#FFFFFF" d="M72.371,40.325c0.106-0.385,0.211-0.77,0.317-1.155c0.041-0.011,0.081-0.024,0.121-0.038
			c2.436-0.87,4.873-1.741,7.309-2.611c0.254,0.421-0.165,0.602-0.313,0.879c-0.153,0.295-0.457,0.343-0.727,0.433
			c-1.702,0.568-3.362,1.258-5.079,1.78C73.419,39.789,73.002,40.297,72.371,40.325z"/>
		<path fill="#B2AEAA" d="M27.488,63.653c1.097,2.541,2.194,5.083,3.333,7.719c-2.295-0.603-4.527-1.116-6.702-1.805
			c-0.634-0.201-1.127-0.887-1.655-1.381c-2.511-2.35-5.01-4.713-7.519-7.065c-1.307-1.225-2.625-2.438-3.942-3.652
			c-0.297-0.274-0.468-0.41,0.002-0.79c1.784-1.443,3.507-2.963,5.242-4.467c0.33-0.286,0.614-0.382,1.034-0.151
			c1.057,0.579,2.139,1.112,3.211,1.663c0.786,2.577,1.598,5.146,2.386,7.722c0.241,0.785,0.605,1.257,1.432,1.414
			C25.382,63.062,26.415,63.438,27.488,63.653z"/>
		<path fill="#FFFFFF" d="M59.977,70.64c-3.249,0.881-6.5,1.755-9.747,2.645c-6.028,1.653-12.053,3.316-18.079,4.975
			c-0.145-0.033-0.294-0.06-0.142-0.259c0.157-0.205,0.309-0.413,0.464-0.619c0.794-0.51,1.746-0.538,2.607-0.848
			c0.681-0.245,1.39-0.453,2.105-0.573c1.213-0.203,2.137-0.858,2.976-1.696c0.942-0.941,1.98-1.779,2.787-2.608
			c0.243-0.136,0.078-0.219,0.145-0.149c0.026,0.027,0.017,0.046-0.018,0.07c-0.271,0.183-0.587,0.226-0.896,0.281
			c-1.266,0.226-2.509,0.56-3.776,0.788c-0.791,0.142-1.419,0.72-2.131,1.079c-0.238,0.12-0.452,0.291-0.719,0.342
			c-0.161,0.031-0.358,0.076-0.355-0.202c0.294-0.389,0.588-0.779,0.882-1.168c0.016-0.03,0.032-0.059,0.048-0.09
			c0.095-0.112,0.207-0.217,0.34-0.266c1.071-0.395,1.418-1.302,1.643-2.299c0.061-0.257,0.162-0.483,0.455-0.545
			c0.776-0.975,1.553-1.95,2.329-2.925c0.847-0.031,1.478-0.579,2.169-0.952c2.493-1.345,4.982-2.697,7.443-4.1
			c0.079-0.045,0.192-0.051,0.197-0.178c-0.031,0.104-0.122,0.138-0.21,0.138c-1.693,0.004-3.378,0.276-5.074,0.167
			c-0.17-0.011-0.339-0.033-0.459-0.178c0.243-0.432,0.52-0.838,0.9-1.164c0.112-0.078,0.236-0.129,0.367-0.165
			c2.458-0.2,4.922-0.275,7.386-0.36c1.082-0.037,2.161-0.142,3.243-0.05c0.248-0.059,0.501-0.07,0.755-0.067
			c0.275,0.006,0.55,0.013,0.825-0.001c0.187-0.02,0.37-0.061,0.552-0.108c0.741-0.131,1.444-0.399,2.162-0.612
			c1.811-0.598,3.636-1.151,5.462-1.697c0.499-0.149,0.985-0.419,1.54-0.291c-0.148,0.487-0.456,0.885-0.726,1.305
			c-0.239,0.363-0.649,0.411-1.012,0.514c-2.636,0.75-5.245,1.591-7.875,2.36c-1.133,0.331-2.049,1.089-3.067,1.646
			c-1.281,0.702-2.466,1.572-3.559,2.044c1.266-0.387,2.84-0.658,4.392-1.015c2.671-0.613,5.356-1.163,8.032-1.754
			c0.246-0.054,0.604-0.351,0.773,0.145c-0.203,0.338-0.407,0.675-0.61,1.013c-0.294,0.35-0.731,0.357-1.123,0.441
			c-2.674,0.575-5.344,1.17-8.017,1.751c-0.458,0.1-0.867,0.278-1.269,0.513c-1.815,1.066-3.579,2.22-5.437,3.211
			c-0.105,0.054-0.216,0.085-0.332,0.083c0.234,0.045,0.407-0.146,0.623-0.177c3.273-0.842,6.596-1.458,9.885-2.22
			c0.947-0.219,1.902-0.4,2.851-0.613c0.327-0.073,0.665-0.196,0.97,0.072c-0.202,0.346-0.405,0.691-0.607,1.037
			c-0.159,0.304-0.466,0.32-0.747,0.381c-4.745,1.033-9.492,2.064-14.237,3.095c-0.896,0.195-1.652,0.546-2.287,1.175
			c-0.893,0.884-1.805,1.748-2.738,2.593c5.877-1.586,11.725-3.203,17.573-4.819c0.358-0.099,0.719-0.334,1.11-0.089
			C60.53,70.023,60.392,70.434,59.977,70.64z"/>
		<path fill="#B2AEAA" d="M32.026,57.834c-1.234-0.616-2.429-1.203-3.616-1.806c-2.418-1.227-4.831-2.464-7.247-3.695
			c-0.839-0.427-1.686-0.841-2.52-1.277c-0.394-0.206-0.609-0.355-0.075-0.78c1.493-1.19,2.918-2.466,4.355-3.724
			c0.457-0.4,0.819-0.581,1.414-0.132c1.813,1.371,3.679,2.671,5.53,3.992c0.229,0.163,0.406,0.362,0.474,0.625
			c0.567,2.175,1.125,4.352,1.683,6.529C32.041,57.629,32.026,57.7,32.026,57.834z"/>
		<path fill="#B2AEAA" d="M26.606,56.814c0.894,0.469,1.781,0.95,2.683,1.404c3.103,1.56,6.205,3.122,9.323,4.651
			c0.51,0.25,0.695,0.539,0.699,1.11c0.006,0.829-0.17,1.638-0.164,2.461c0.003,0.455-0.239,0.399-0.512,0.279
			c-0.732-0.322-1.46-0.652-2.187-0.986c-2.51-1.155-5.018-2.316-7.53-3.468c-0.236-0.108-0.399-0.266-0.495-0.503
			c-0.649-1.61-1.3-3.219-1.949-4.829C26.519,56.893,26.563,56.853,26.606,56.814z"/>
		<path fill="#B2AEAA" d="M37.598,54.099c-4.233-3.043-8.466-6.085-12.735-9.155c0.952-0.811,1.86-1.565,2.741-2.349
			c0.276-0.246,0.438-0.184,0.663,0.042c2.673,2.684,5.387,5.329,8.01,8.061C37.124,51.578,37.293,52.864,37.598,54.099z"/>
		<path fill="#B2AEAA" d="M38.566,69.498c-0.076,0.203-0.324,0.313-0.308,0.566c-0.602,0.98-1.256,1.916-2.168,2.641l-0.01-0.008
			c-0.983-0.243-1.964-0.495-2.951-0.725c-0.25-0.058-0.368-0.213-0.459-0.418c-1.052-2.383-2.103-4.767-3.226-7.311
			c1.463,0.666,2.756,1.25,4.045,1.843c1.431,0.659,2.844,1.36,4.293,1.975C38.481,68.358,38.882,68.702,38.566,69.498z"/>
		<path fill="#6E9538" d="M46.606,59c-2.254-2.216-4.509-4.431-6.768-6.652c1.574,0,3.01-0.006,4.446,0.004
			c0.435,0.003,0.879,0.124,1.301,0.063c1.085-0.157,1.834,0.301,2.484,1.113c0.48,0.6,1.047,1.131,1.575,1.692
			c0.205,0.244,0.083,0.463-0.077,0.65c-0.803,0.934-1.468,1.977-2.296,2.892C47.085,58.967,46.92,59.177,46.606,59z"/>
		<path fill="#A79F92" d="M27.488,63.653c-0.144,0.193-0.334,0.159-0.527,0.105c-1.163-0.322-2.322-0.659-3.492-0.955
			c-0.283-0.072-0.416-0.217-0.491-0.46c-0.866-2.791-1.73-5.582-2.593-8.373c-0.034-0.108,0.028-0.183,0.106-0.247
			c1.11,0.541,2.219,1.086,3.331,1.622c0.31,0.15,0.464,0.416,0.584,0.712C25.435,58.588,26.461,61.121,27.488,63.653z"/>
		<path fill="#6E9538" d="M41.892,33.925c0.21,0.87,0.42,1.74,0.63,2.611c0.495,0.994,0.901,2.013,0.891,3.15
			c-1.062,0.062-2.126,0.113-3.187,0.191c-0.365,0.027-0.575-0.115-0.766-0.412c-0.85-1.323-1.705-2.643-2.589-3.944
			c-0.262-0.386-0.212-0.609,0.139-0.895c1.049-0.858,2.083-1.737,3.099-2.634c0.306-0.27,0.424-0.149,0.593,0.121
			C41.088,32.724,41.495,33.322,41.892,33.925z"/>
		<path fill="#6E9538" d="M32.232,52.036c2.166,1.556,4.172,2.998,6.179,4.437c0.168,0.12,0.262,0.268,0.286,0.478
			c0.175,1.486,0.357,2.972,0.55,4.567c-1.705-0.829-3.329-1.62-4.955-2.409c-0.233-0.113-0.254-0.343-0.31-0.547
			C33.416,56.463,32.855,54.362,32.232,52.036z"/>
		<path fill="#B2AEAA" d="M49.785,50.973c-0.747-0.048-1.499,0.096-2.245-0.121c-0.277-0.08-0.485-0.181-0.643-0.417
			c-1.927-2.878-3.857-5.753-5.787-8.629c-0.106-0.158-0.315-0.309-0.23-0.502c0.094-0.214,0.345-0.087,0.524-0.099
			c0.844-0.059,1.69-0.102,2.535-0.151c0.489,0.218,0.507,0.735,0.72,1.13c0.299,0.693,0.668,1.353,1.001,2.029
			c0.209,0.455,0.425,0.906,0.714,1.317c0.195,0.381,0.386,0.765,0.637,1.115c0.241,0.352,0.429,0.737,0.682,1.082
			c0.31,0.501,0.633,0.993,1.009,1.448c0.328,0.574,0.788,1.055,1.132,1.618C49.851,50.862,49.836,50.923,49.785,50.973z"/>
		<path fill="#B2AEAA" d="M41.041,66.282c0.085-1.249,0.122-2.485,0.039-3.748c-0.191-2.905-0.699-5.729-1.607-8.503
			c0.832,0.449,3.052,2.869,3.564,3.879c0.601,1.186,1.197,2.375,1.796,3.562c0.096,0.277-0.093,0.465-0.236,0.643
			c-1.007,1.262-1.959,2.567-2.998,3.803C41.455,66.09,41.356,66.36,41.041,66.282z"/>
		<path fill="#E2DBD6" d="M35.198,73.866c0.222,0.262,0.425,0.033,0.565-0.072c1.87-1.408,4.139-1.607,6.308-2.11
			c0.42-0.097,0.843-0.182,1.367-0.295c-1.248,1.332-2.609,2.418-3.83,3.646c-0.829,0.834-1.91,0.958-2.943,1.235
			c-1.396,0.374-2.757,0.885-4.192,1.111l-0.049-0.023c-0.046-0.397,0.286-0.593,0.482-0.843c0.636-0.806,1.171-1.7,1.996-2.345
			C35,74.068,35.099,73.967,35.198,73.866z"/>
		<path fill="#BA4D1B" d="M51.115,52.57c-0.103-0.141-0.206-0.281-0.309-0.422c-0.021-0.423,0.291-0.515,0.603-0.59
			c0.38-0.092,0.769-0.079,1.156-0.079c3.341-0.001,6.681-0.001,10.022,0c0.654,0,1.3-0.004,1.943-0.187
			c0.384-0.11,0.847-0.194,0.967,0.413c-0.148,0.792-0.754,1.486-1.413,1.622c-1.355,0.523-2.77,0.328-4.165,0.341
			c-2.065,0.019-4.131,0.017-6.196-0.006c-0.307-0.003-0.835,0.106-0.822-0.334c0.012-0.432,0.531-0.307,0.85-0.308
			c2.77-0.009,5.54-0.005,8.31-0.005c-2.784-0.001-5.569,0.015-8.353-0.013c-0.57-0.006-0.987,0.126-1.243,0.646
			c-0.122,0.124-0.262,0.177-0.431,0.098c-0.262-0.136-0.399-0.388-0.565-0.614C51.35,52.945,51.142,52.814,51.115,52.57z"/>
		<path fill="#E2DBD6" d="M41.041,66.282c1.352-1.534,2.563-3.178,3.791-4.81c0.043-0.003,0.086-0.003,0.128-0.001
			c1.998,0.112,3.99-0.233,6.205-0.126c-1.261,0.718-2.338,1.345-3.429,1.949c-1.991,1.102-3.988,2.193-5.986,3.282
			c-0.276,0.15-0.572,0.431-0.856-0.002C40.944,66.476,40.992,66.379,41.041,66.282z"/>
		<path fill="#BC4E1C" d="M65.413,51.854c-0.085-0.532-0.468-0.562-0.822-0.381c-0.508,0.26-1.028,0.228-1.557,0.228
			c-3.653,0.001-7.307-0.006-10.96,0.008c-0.455,0.002-0.996-0.137-1.269,0.439c-0.34-0.391-0.681-0.783-1.021-1.174
			c0.006-0.044,0.005-0.088-0.003-0.132c0.081-0.431,0.208-0.774,0.75-0.45c0.196,0.117,0.424,0.08,0.642,0.079
			c3.934-0.01,7.868,0.002,11.802-0.007c1.066-0.002,2.14,0.019,3.13-0.49c0.196-0.101,0.376-0.056,0.534,0.09
			C66.771,50.7,66.156,51.598,65.413,51.854z"/>
		<path fill="#B2AEAA" d="M34.902,74.17c-0.826,1.063-1.652,2.125-2.478,3.188c-1.867-1.706-3.734-3.413-5.601-5.119
			C29.573,72.728,32.183,73.669,34.902,74.17z"/>
		<path fill="#86B144" d="M46.606,59c0.482-0.017,0.66-0.462,0.878-0.744c0.666-0.861,1.293-1.753,2.026-2.562
			c0.127-0.14,0.126-0.306,0.134-0.475c0.091-0.006,0.183-0.012,0.274-0.018c0.816-0.575,1.774-0.766,2.716-1.002
			c0.326,0.034,0.526,0.268,0.747,0.47c0.236,0.351,0.787,0.482,0.734,1.038c-0.629,1.029-1.366,1.864-2.636,2.194
			c-1.28,0.332-2.541,0.765-3.801,1.184c-0.264,0.088-0.536,0.256-0.828,0.065C46.769,59.102,46.687,59.051,46.606,59z"/>
		<path fill="#B2AEAA" d="M32.355,41.335c1.219-0.398,2.115,0.308,2.729,1.628c0.241,0.518,0.617,0.976,0.948,1.45
			c0.202,0.289,0.065,0.431-0.203,0.419c-0.898-0.042-1.779,0.124-2.67,0.164c-0.266,0.012-0.458-0.098-0.638-0.28
			c-0.938-0.945-1.883-1.883-2.819-2.83c-0.107-0.108-0.326-0.201-0.203-0.405c0.09-0.151,0.267-0.026,0.392-0.05
			C30.612,41.296,31.336,41.377,32.355,41.335z"/>
		<path fill="#C9582B" d="M43.413,39.686c-0.297-1.05-0.594-2.1-0.891-3.15c0.842-0.205,1.638,0.307,2.513,0.122
			c0.407-0.086,0.756-0.178,1.083-0.409c0.858,1.455,1.902,2.761,3.137,3.914c-0.118,0.164-0.331,0.216-0.446,0.113
			c-0.543-0.487-1.177-0.246-1.758-0.215c-1.134,0.061-2.263-0.082-3.395-0.01C43.576,39.928,43.495,39.807,43.413,39.686z"/>
		<path fill="#B2AEAA" d="M30.676,40.005c1.512-1.27,2.907-2.422,4.276-3.604c0.339-0.293,0.504-0.328,0.766,0.091
			c0.613,0.982,1.286,1.926,1.924,2.893c0.163,0.247,0.272,0.521-0.215,0.503C35.232,39.807,33.044,40.124,30.676,40.005z"/>
		<path fill="#C85526" d="M43.658,40.05c0.294-0.243,0.6-0.257,0.989-0.221c0.898,0.083,1.811,0.191,2.707-0.065
			c0.356,0.534,1.176-0.638,1.422,0.381c0.01,0.042,0.314,0.013,0.481,0.017c0.764,0.533,1.528,1.067,2.292,1.6
			c0.136,0.252,0.024,0.355-0.225,0.378c-1.509,0.141-3.021,0.146-4.534,0.131c-0.217-0.002-0.474-0.067-0.644,0.045
			c-0.573,0.378-1.086,0.198-1.606-0.091c-0.2-0.391-0.399-0.781-0.599-1.172C43.845,40.719,43.751,40.384,43.658,40.05z"/>
		<path fill="#B2AEAA" d="M41.609,46.181c0.412-0.048,0.604,0.056,0.779,0.316c0.875,1.3,1.775,2.584,2.664,3.874
			c0.09,0.131,0.263,0.249,0.123,0.442c-0.096,0.132-0.238,0.17-0.387,0.12c-0.615-0.204-1.249-0.093-1.873-0.095
			c-0.41-0.001-0.702-0.141-0.92-0.463c-0.773-1.137-1.533-2.282-2.316-3.412c-0.217-0.313-0.273-0.437,0.192-0.555
			C40.488,46.25,41.135,46.413,41.609,46.181z"/>
		<path fill="#A79F92" d="M40.985,44.331c-0.85,0.349-1.702,0.132-2.5,0.354c-0.3,0.084-0.507-0.147-0.657-0.368
			c-0.572-0.84-1.118-1.698-1.696-2.533c-0.275-0.398-0.073-0.448,0.266-0.44c0.485,0.011,0.962-0.018,1.441-0.121
			c0.71-0.153,1.222,0.071,1.598,0.756C39.877,42.779,40.439,43.513,40.985,44.331z"/>
		<path fill="#B2AEAA" d="M34.739,46.754c0.767-0.013,1.491,0.001,2.208-0.145c0.258-0.053,0.551-0.05,0.73,0.207
			c0.865,1.242,1.722,2.488,2.535,3.806c-0.848-0.161-1.746,0.206-2.458-0.675C36.848,48.828,35.779,47.841,34.739,46.754z"/>
		<path fill="#FFFFFF" d="M46.85,59.152c1.77-0.554,3.535-1.122,5.311-1.653c0.62-0.185,0.882-0.718,1.267-1.134
			c0.229-0.247,0.429-0.522,0.641-0.785c0.097-0.043,0.193-0.034,0.288,0.008c0.219,0.149,0.411,0.318,0.451,0.601
			c0.014,0.307,0.281,0.13,0.413,0.213c0.139,0.046,0.252,0.126,0.321,0.259c0.083,0.302-0.107,0.486-0.288,0.675
			c-0.084,0.078-0.177,0.141-0.28,0.191c-2.883,1.107-5.821,2.038-8.82,2.775c-0.098,0.002-0.196,0.004-0.294,0.006
			C46.118,59.86,46.417,59.448,46.85,59.152z"/>
		<path fill="#FEFFFE" d="M52.709,54.303c-0.93,0.3-1.86,0.599-2.79,0.899c0.196-0.467,0.492-0.858,0.889-1.173
			c0.324-0.33,0.733-0.438,1.178-0.455c0.093,0.061,0.186,0.121,0.279,0.182C52.539,53.836,52.738,53.977,52.709,54.303z"/>
		<path fill="#B2AEA9" d="M51.115,52.57c0.134,0.15,0.267,0.301,0.401,0.451c-0.03,0.455-0.317,0.703-0.704,0.868
			c-0.653-0.185-0.899-0.81-1.333-1.319C50.023,52.57,50.569,52.57,51.115,52.57z"/>
		<path fill="#E4DCD7" d="M50.811,53.889c0.235-0.289,0.47-0.579,0.705-0.868c0.156,0.184,0.313,0.369,0.469,0.553
			c-0.344,0.278-0.771,0.34-1.178,0.455C50.81,53.982,50.811,53.936,50.811,53.889z"/>
		<path fill="#B2AEAA" d="M81.747,66.239c-1.913-2.865-3.804-5.701-5.7-8.533c-0.39-0.583-0.803-1.15-1.192-1.733
			c-0.353-0.53-0.182-1.095,0.048-1.581c0.2-0.422,0.623-0.146,0.967-0.102c2.259,0.291,4.529,0.384,6.805,0.333
			c0.752-0.017,1.506,0.018,2.257-0.012c0.527-0.021,0.615,0.143,0.454,0.636c-0.716,2.184-1.401,4.377-2.091,6.569
			c-0.399,1.268-0.78,2.542-1.187,3.808C82.046,65.819,82.06,66.071,81.747,66.239z"/>
		<path fill="#E2DBD6" d="M60.717,69.648c-6.36,1.752-12.72,3.503-19.082,5.256c-0.104-0.271,0.1-0.342,0.204-0.442
			c0.962-0.924,1.971-1.802,2.891-2.766c0.897-0.941,2.091-1.051,3.23-1.306c3.724-0.833,7.457-1.626,11.187-2.437
			c0.967-0.21,1.932-0.427,2.898-0.641c-0.001,0.048-0.001,0.095,0.001,0.143c-0.133,0.828-0.603,1.461-1.177,2.033
			C60.817,69.542,60.767,69.595,60.717,69.648z"/>
		<path fill="#B2AEAA" d="M70.069,69.353c0.719,6.403,2.726,12.449,5.175,18.376c-0.084,0.038-0.167,0.077-0.251,0.115
			c-0.658-0.842-1.317-1.683-1.974-2.525c-1.856-2.38-3.713-4.759-5.566-7.141c-0.248-0.318-0.496-0.603-0.306-1.094
			C68.141,74.514,69.098,71.931,70.069,69.353z"/>
		<path fill="#E2DBD6" d="M72.371,40.325c1-0.924,2.345-1.083,3.538-1.569c1.272-0.518,2.594-0.909,3.895-1.356l0.043,0.021
			c0.08,0.413-0.22,0.682-0.396,0.986c-1.215,2.103-2.469,4.184-3.71,6.272c-0.11,0.185-0.196,0.399-0.442,0.454
			c-0.088,0.101-0.176,0.201-0.265,0.302c-1.609,0.407-3.244,0.703-4.857,1.09c-0.255,0.061-0.518,0.13-0.779,0.013
			c-0.268-0.504,0.144-0.746,0.402-1.048c1.043-0.706,1.874-1.663,2.892-2.417c-0.581-0.013-1.076,0.415-1.651,0.158
			c0.033-0.842,0.505-1.497,0.929-2.171C72.228,40.882,72.143,40.519,72.371,40.325z"/>
		<path fill="#E2DBD6" d="M65.11,62.2c-0.737-0.149-1.403,0.201-2.086,0.345c-3.873,0.813-7.733,1.691-11.658,2.453
			c0.531-0.318,1.061-0.636,1.592-0.953c1.477-0.881,2.942-1.783,4.435-2.635c1.191-0.68,2.561-0.87,3.848-1.282
			c2.05-0.656,4.122-1.248,6.184-1.867l0.042,0.026c0.028,0.067,0.069,0.152,0.038,0.208c-0.646,1.175-1.223,2.393-2.128,3.407
			C65.289,62,65.199,62.1,65.11,62.2z"/>
		<path fill="#E2DBD6" d="M62.651,66.275c-1.542,0.16-3.031,0.589-4.54,0.912c-2.997,0.642-5.985,1.33-8.977,1.995
			c-0.117,0.026-0.242,0.014-0.363,0.02c-0.166,0.086-0.305,0.118-0.292-0.148c1.852-1.105,3.72-2.184,5.55-3.324
			c0.987-0.615,2.109-0.666,3.182-0.915c2.423-0.564,4.859-1.072,7.289-1.602l0.042,0.024c-0.292,1.067-0.866,1.967-1.631,2.753
			C62.824,66.085,62.737,66.18,62.651,66.275z"/>
		<path fill="#B2AEAA" d="M78.918,75.255c-0.573-1.864-1.15-3.699-1.701-5.542c-0.367-1.226-0.67-2.473-1.06-3.691
			c-0.166-0.517-0.092-0.798,0.409-1.04c0.587-0.282,1.138-0.64,1.694-0.982c0.304-0.187,0.492-0.158,0.702,0.163
			c0.716,1.092,1.451,2.172,2.209,3.236c0.218,0.306,0.185,0.599,0.093,0.892c-0.717,2.285-1.449,4.565-2.18,6.846
			C79.074,75.168,79.018,75.185,78.918,75.255z"/>
		<path fill="#B2AEAA" d="M71.227,64.489c0.19-2.12,0.39-4.279,0.9-6.393c0.102-0.424,0.253-0.794,0.812-0.716
			c0.11,0.015,0.267-0.015,0.342-0.087c0.742-0.712,0.989-0.089,1.339,0.444c0.888,1.354,1.806,2.688,2.732,4.017
			c0.229,0.328,0.24,0.528-0.136,0.735c-1.695,0.934-3.404,1.841-5.178,2.617C71.235,65.457,71.22,65.423,71.227,64.489z"/>
		<path fill="#B2AEAA" d="M71.298,68.022c-0.065-0.285,0.121-0.447,0.343-0.555c1.023-0.497,2.054-0.975,3.075-1.475
			c0.313-0.153,0.385-0.064,0.473,0.255c0.453,1.63,0.935,3.253,1.426,4.873c0.104,0.342,0.014,0.53-0.283,0.711
			c-1.198,0.729-2.408,1.444-3.565,2.234c-0.595,0.406-0.707,0.082-0.79-0.375c-0.164-0.901-0.335-1.803-0.442-2.712
			C71.419,69.997,71.374,69.008,71.298,68.022z"/>
		<path fill="#B2AEAA" d="M80.711,38.739c0.76,1.363,1.428,2.564,2.098,3.763c0.131,0.234,0.044,0.41-0.125,0.583
			c-2.469,2.53-4.996,4.998-7.809,7.152c-0.111,0.085-0.245,0.138-0.469,0.143C76.321,46.469,78.529,42.725,80.711,38.739z"/>
		<path fill="#FFFFFF" d="M65.413,51.854c0.552-0.44,0.901-1.046,1.307-1.606c0.109-0.515,0.496-0.864,0.769-1.282
			c0.172-0.232,0.328-0.479,0.601-0.612c1.695-0.638,3.449-1.097,5.163-1.675c0.296-0.1,0.607-0.199,0.88,0.072
			c-0.025,0.391-0.285,0.677-0.45,1.005c-0.159,0.291-0.468,0.324-0.736,0.42c-1.232,0.443-2.495,0.793-3.744,1.182
			c-0.394,0.123-0.687,0.312-0.899,0.672c-0.485,0.827-1.043,1.61-1.543,2.539c0.798-0.132,1.384-0.404,1.869-0.925
			c1.035-1.112,2.297-1.929,3.603-2.68c0.42-0.241,0.431-0.221,0.75-0.034c-0.154,0.289-0.307,0.577-0.461,0.866
			c-0.412,0.656-1.178,0.879-1.709,1.397c-0.292,0.285-0.605,0.543-0.85,0.876c-0.581,0.79-0.589,0.932-0.038,1.706
			c0.033,0.538-0.363,0.869-0.614,1.27c-0.118,0.154-0.298,0.199-0.457,0.151c-0.692-0.21-1.212,0.142-1.745,0.487
			c-0.955,0.616-1.916,1.225-2.902,1.791c-0.292,0.167-0.581,0.362-0.948,0.266c-0.228-0.477,0.255-0.68,0.392-1.017
			c0.065-0.084,0.14-0.159,0.221-0.227c0.712-0.666,1.58-1.104,2.389-1.628c0.162-0.105,0.337-0.19,0.491-0.307
			c0.188-0.143,0.502-0.292,0.398-0.539c-0.133-0.315-0.42-0.054-0.625,0.001c-0.933,0.25-1.849,0.557-2.766,0.86
			c-0.289,0.096-0.6,0.254-0.863-0.07c0.137-0.775,0.77-1.121,1.329-1.531C64.646,52.829,65.141,52.434,65.413,51.854z"/>
		<path fill="#B2AEAA" d="M67.239,72.302c-0.972-1.207-1.831-2.281-2.7-3.347c-0.293-0.359-0.343-0.686-0.083-1.111
			c0.505-0.826,0.967-1.68,1.417-2.538c0.187-0.356,0.392-0.365,0.697-0.184c0.833,0.494,1.668,0.985,2.51,1.464
			c0.206,0.117,0.369,0.208,0.254,0.492C68.645,68.781,67.965,70.487,67.239,72.302z"/>
		<path fill="#B2AEAA" d="M81.594,53.014c-0.267-0.001-0.537-0.025-0.801,0.004c-0.474,0.052-0.739-0.134-0.971-0.563
			c-0.436-0.807-0.95-1.573-1.448-2.345c-0.27-0.419-0.318-0.751,0.128-1.115c0.487-0.398,0.918-0.868,1.346-1.332
			c0.334-0.361,0.544-0.395,0.789,0.099c0.766,1.544,1.571,3.068,2.348,4.606c0.186,0.368,0.264,0.711-0.372,0.652
			C82.277,52.989,81.935,53.015,81.594,53.014z"/>
		<path fill="#6F9538" d="M72.689,49.928c0.527,0.162,0.718,0.627,0.888,1.067c0.436,1.128,0.558,2.295,0.285,3.486
			c-0.165,0.718-0.455,1.348-1.288,1.471c-0.828,0.122-1.449-0.226-1.908-0.908c-0.26-0.388-0.448-0.799-0.504-1.266
			c0.517-1.317,1.342-2.457,2.096-3.637C72.337,50.018,72.487,49.88,72.689,49.928z"/>
		<path fill="#B2AEAA" d="M85.043,52.964c-0.392,0.121-0.651-0.028-0.82-0.389c-0.349-0.745-0.685-1.497-1.068-2.224
			c-0.186-0.352-0.194-0.579,0.119-0.873c0.599-0.562,1.147-1.179,1.715-1.774c0.291-0.305,0.536-0.348,0.754,0.085
			c0.173,0.345,0.392,0.667,0.566,1.012c0.228,0.452,0.652,0.941,0.601,1.368c-0.101,0.848-0.408,1.691-0.753,2.482
			C85.986,53.045,85.439,52.925,85.043,52.964z"/>
		<path fill="#B2AEAA" d="M69.821,64.772c-0.225-0.111-0.469-0.219-0.699-0.35c-0.545-0.31-1.074-0.652-1.629-0.942
			c-0.338-0.176-0.395-0.365-0.212-0.688c1.073-1.889,2.138-3.784,3.205-5.676c0.071-0.126,0.142-0.293,0.318-0.19
			c0.233,0.136,0.278,0.335,0.208,0.62c-0.24,0.981-0.383,1.981-0.55,2.976c-0.212,1.262-0.221,2.539-0.405,3.799
			C70.034,64.488,70.147,64.73,69.821,64.772z"/>
		<path fill="#B2AEAA" d="M66.685,73.76c-0.27,0.675-0.503,1.338-0.803,1.969c-0.118,0.247-0.293,0.015-0.386-0.104
			c-0.996-1.275-1.982-2.557-2.979-3.831c-0.107-0.137-0.121-0.252-0.042-0.394c0.246-0.444,0.494-0.888,0.737-1.334
			c0.158-0.289,0.353-0.328,0.561-0.068c0.935,1.169,1.864,2.343,2.791,3.518C66.62,73.587,66.647,73.681,66.685,73.76z"/>
		<path fill="#E3DCD6" d="M72.983,48.931c-0.727-0.008-1.223,0.502-1.764,0.853c-0.993,0.643-1.948,1.354-2.739,2.255
			c-0.517,0.59-1.292,0.553-2.082,0.926c0.344-0.951,0.92-1.551,1.265-2.276c0.452-0.949,1.155-1.503,2.209-1.753
			c1.291-0.306,2.543-0.779,3.811-1.18l0.041,0.022c0.027,0.386-0.173,0.649-0.47,0.859C73.164,48.735,73.073,48.833,72.983,48.931z
			"/>
		<path fill="#B2AEAA" d="M77.432,80.359c-0.575-2.001-1.09-3.811-1.62-5.616c-0.085-0.29-0.006-0.452,0.24-0.597
			c0.271-0.159,0.525-0.347,0.782-0.528c0.324-0.228,0.521-0.146,0.636,0.228c0.298,0.971,0.607,1.938,0.91,2.908
			c0.049,0.158,0.12,0.304,0.058,0.489C78.118,78.203,77.814,79.169,77.432,80.359z"/>
		<path fill="#6F9639" d="M73.473,79.668c-0.059-0.13-0.131-0.249-0.168-0.379c-0.242-0.863-0.47-1.729-0.715-2.591
			c-0.076-0.266-0.052-0.45,0.221-0.599c0.532-0.29,1.053-0.602,1.564-0.927c0.292-0.186,0.415-0.123,0.504,0.203
			c0.248,0.91,0.51,1.817,0.792,2.718c0.076,0.243,0.007,0.361-0.187,0.47c-0.592,0.332-1.181,0.669-1.772,1.002
			C73.649,79.602,73.578,79.624,73.473,79.668z"/>
		<path fill="#E3DCD6" d="M63.203,57.686c1.253-0.362,2.252-1.193,3.334-1.858c0.873-0.536,1.674-1.134,2.774-0.782l0.046,0.025
			c-0.051,0.794-0.518,1.355-1.053,1.878c-0.051,0.002-0.102,0.004-0.153,0.006c-1.872,0.579-3.738,1.181-5.621,1.722
			c-0.464,0.133-0.846,0.5-1.363,0.458c-0.08-0.202,0.055-0.325,0.19-0.41C61.953,58.345,62.511,57.895,63.203,57.686z"/>
		<path fill="#B2AEAA" d="M75.594,85.707c-0.46-1.272-0.915-2.546-1.382-3.816c-0.105-0.286-0.017-0.452,0.234-0.596
			c0.463-0.264,0.916-0.545,1.369-0.825c0.272-0.167,0.424-0.194,0.577,0.187c0.372,0.927,0.553,1.806,0.098,2.781
			c-0.333,0.714-0.499,1.507-0.74,2.265C75.698,85.704,75.646,85.705,75.594,85.707z"/>
		<path fill="#A79F93" d="M84.628,45.878c-0.063,0.083-0.138,0.205-0.236,0.305c-0.612,0.62-1.235,1.23-1.844,1.853
			c-0.23,0.235-0.4,0.342-0.575-0.056c-0.215-0.486-0.559-0.935-0.678-1.439c-0.14-0.591,0.583-0.741,0.813-1.167
			c0.057-0.106,0.118-0.22,0.207-0.295c0.431-0.367,0.898-1.247,1.213-1.063c0.509,0.297,0.733,1.086,1.073,1.669
			C84.624,45.723,84.615,45.779,84.628,45.878z"/>
		<path fill="#FFFFFF" d="M69.35,46.459c1.721-0.36,3.443-0.716,5.163-1.084c0.191-0.041,0.369-0.147,0.523,0.06
			c-0.205,0.374-0.378,0.771-0.743,1.029c-1.834,0.469-3.65,1.021-5.537,1.254c-0.076-0.014-0.139-0.052-0.189-0.111
			c-0.034-0.354,0.248-0.574,0.368-0.863C69.04,46.601,69.154,46.47,69.35,46.459z"/>
		<path fill="#B2AEAA" d="M78.05,52.857c-0.979-0.101-1.889-0.195-2.8-0.291c-0.182-0.019-0.333-0.11-0.407-0.27
			c-0.1-0.215,0.107-0.293,0.228-0.394c0.499-0.419,1.022-0.812,1.498-1.255c0.288-0.268,0.488-0.264,0.702,0.048
			c0.41,0.599,0.821,1.197,1.225,1.799c0.049,0.073,0.113,0.2,0.083,0.25C78.434,52.992,78.174,52.782,78.05,52.857z"/>
		<path fill="#87B145" d="M72.689,49.928c-0.807,0.79-1.187,1.861-1.812,2.771c-0.244,0.356-0.477,0.719-0.715,1.079
			c-0.079,0-0.159-0.001-0.238-0.001c-0.692-0.301-0.819-0.613-0.459-1.281c0.521-0.966,1.38-1.596,2.264-2.193
			c0.26-0.175,0.528-0.337,0.792-0.506C72.578,49.841,72.633,49.884,72.689,49.928z"/>
		<path fill="#B3AEAA" d="M75.3,45.134c1.516-2.571,3.031-5.142,4.547-7.712c0.308,0.164,0.301,0.361,0.132,0.65
			c-1.473,2.51-2.932,5.029-4.399,7.55C75.352,45.507,75.335,45.316,75.3,45.134z"/>
		<path fill="#B3AEAA" d="M65.378,61.9c0.696-1.205,1.393-2.41,2.089-3.615c0.34,0.192,0.504,0.431,0.273,0.824
			c-0.574,0.975-1.128,1.963-1.71,2.933c-0.089,0.148-0.157,0.414-0.384,0.382C65.368,62.385,65.403,62.111,65.378,61.9z"/>
		<path fill="#D4CBBB" d="M68.621,47.613c1.697-0.377,3.393-0.758,5.092-1.127c0.186-0.04,0.386-0.016,0.579-0.022
			c-0.008,0.12-0.042,0.227-0.159,0.287c-0.375-0.072-0.715,0.069-1.059,0.177c-1.679,0.523-3.358,1.047-5.036,1.571
			C67.977,48.035,68.229,47.778,68.621,47.613z"/>
		<path fill="#B3AEAA" d="M62.911,65.99c0.544-0.918,1.087-1.836,1.631-2.753c0.402,0.311,0.491,0.619,0.172,1.095
			c-0.503,0.75-0.918,1.559-1.375,2.351C63.021,66.504,62.956,66.253,62.911,65.99z"/>
		<path fill="#B3AEAA" d="M60.868,69.489c0.392-0.678,0.784-1.356,1.177-2.033c0.477,0.175,0.532,0.503,0.309,0.906
			c-0.232,0.419-0.484,0.826-0.733,1.235c-0.095,0.155-0.114,0.435-0.34,0.411C61.02,69.981,60.895,69.751,60.868,69.489z"/>
		<path fill="#B4AFAB" d="M68.305,56.949c0.351-0.626,0.702-1.252,1.053-1.878c0.388,0.306,0.426,0.649,0.143,1.055
			c-0.163,0.234-0.302,0.488-0.424,0.746C68.855,57.344,68.613,57.432,68.305,56.949z"/>
		<path fill="#B4B0AB" d="M73.254,48.637c0.063-0.337,0.327-0.565,0.469-0.859c0.334,0.295,0.314,0.626,0.069,0.954
			C73.568,49.034,73.438,48.653,73.254,48.637z"/>
		<path fill="#C85525" d="M71.971,41.061c-0.165,0.777-0.642,1.429-0.873,2.18c0.061,0.481-0.175,0.766-0.609,0.921
			c-0.514,0.174-1.046,0.191-1.582,0.191c-7.545,0.001-15.09-0.004-22.635,0.003c-0.244,0-0.485-0.004-0.72-0.077
			c-0.441-0.633-0.759-1.328-1.014-2.053c0.181-0.313,0.4-0.403,0.552-0.009c0.122,0.317,0.398,0.282,0.488,0.153
			c0.29-0.416,0.688-0.284,1.054-0.289c1.041-0.014,2.082-0.003,3.123-0.006c0.334-0.001,0.681,0.062,0.943-0.245
			c0.197-0.231,0.333-0.028,0.476,0.093c0.229,0.194,0.341,0.106,0.374-0.161c2.454,1.416,5.116,1.784,7.894,1.571
			c0.513,0.008,1.025-0.11,1.538-0.016c0.256-0.011,0.525,0.106,0.767-0.071c1.789-0.304,3.466-0.908,5.007-1.877
			c0.118-0.074,0.257-0.117,0.386-0.174c1.369,0.386,2.771,0.323,4.167,0.269C71.532,41.456,71.749,41.202,71.971,41.061z"/>
		<path fill="#B95225" d="M61.163,43.389c-0.573-0.033-1.151,0.069-1.722-0.056c0.43-0.071,0.86-0.141,1.29-0.212
			c0.114,0.151,0.281,0.116,0.436,0.126c0.048,0.033,0.063,0.065,0.046,0.096C61.196,43.374,61.18,43.389,61.163,43.389z"/>
		<path fill="#C85320" d="M61.163,43.389c0.001-0.047,0.002-0.095,0.004-0.142c0.193,0,0.386,0,0.579,0
			C61.59,43.453,61.4,43.517,61.163,43.389z"/>
		<path fill="#E3DBD6" d="M56.346,61.135c-5.375,3.192-10.69,6.245-16.217,9.357c0.321-0.978,0.638-1.705,0.802-2.481
			c0.047-0.224,0.261-0.333,0.458-0.441c3.082-1.686,6.162-3.375,9.242-5.065c0.233-0.128,0.466-0.259,0.687-0.407
			c1.012-0.678,2.086-1.115,3.34-0.925C55.179,61.253,55.685,60.898,56.346,61.135z"/>
		<path fill="#E2DBD6" d="M46.154,60.301c1.171-0.527,2.425-0.806,3.633-1.224c1.645-0.57,3.361-0.931,4.95-1.669
			c0.083-0.039,0.191-0.024,0.287-0.034c0.077,0.111,0.039,0.226,0.017,0.343c-0.217,1.14,0.083,1.57,1.233,1.803
			c0.248,0.05,0.604-0.068,0.662,0.352c-0.079,0.106-0.191,0.15-0.317,0.138c-2.749-0.262-5.483,0.216-8.23,0.18
			C47.654,60.18,46.902,60.3,46.154,60.301z"/>
		<path fill="#87B145" d="M41.339,70.67c2.329-1.291,4.635-2.623,6.996-3.853c1.042-0.543,2.26-0.573,3.448-0.714
			c-1.779,1.067-3.593,2.08-5.325,3.219c-1.478,0.972-3.167,1.122-4.805,1.502C41.502,70.866,41.332,70.949,41.339,70.67z"/>
		<path fill="#BAB3AE" d="M56.936,59.872c-0.356-0.307-0.821-0.136-1.234-0.299c-1.084-0.43-1.224-1.205-0.678-2.199
			c0.053-0.045,0.105-0.09,0.158-0.134c0.225-0.133,0.422-0.336,0.718-0.299c0.237,0.029,0.429,0.119,0.5,0.372
			c-0.008,0.213-0.166,0.337-0.287,0.484c-0.602,0.729-0.542,0.975,0.333,1.376c0.548,0.123,1.099,0.084,1.65,0.028
			c0.066-0.023,0.134-0.04,0.203-0.055c0.278-0.041,0.547-0.129,0.824-0.178c0.279-0.007,0.552-0.18,0.837-0.032
			c0.17,0.225-0.048,0.304-0.158,0.425c-0.274,0.134-0.554,0.252-0.845,0.347c-0.136,0.046-0.272,0.092-0.408,0.138
			c-0.298-0.077-0.595-0.095-0.89,0.013C57.418,59.862,57.177,59.867,56.936,59.872z"/>
		<path fill="#F0EEEB" d="M58.957,59.706c0.246-0.144,0.492-0.289,0.737-0.433c0.471-0.173,0.813-0.564,1.271-0.759
			c0.402-0.205,0.777-0.447,1.079-0.79c0.16-0.218,0.386-0.349,0.618-0.473c0.231-0.126,0.408-0.329,0.644-0.448
			c0.157-0.066,0.315-0.147,0.475-0.006c-0.193,0.296-0.386,0.593-0.578,0.889c-0.4,0.436-0.962,0.623-1.432,0.95
			c-0.211,0.147-0.497,0.22-0.604,0.498C60.429,59.318,59.736,59.68,58.957,59.706z"/>
		<path fill="#E3DDD8" d="M36.09,72.705c0.74-0.866,1.332-1.854,2.168-2.641C38.106,71.413,37.372,72.285,36.09,72.705z"/>
		<path fill="#F2EFED" d="M48.479,69.055c0.06,0.122,0.173,0.14,0.292,0.148c-0.282,0.129-0.282,0.129-0.605,0.11
			C48.193,69.131,48.364,69.127,48.479,69.055z"/>
		<path fill="#A1C070" d="M41.339,70.67c0.104,0.051,0.209,0.102,0.313,0.153c-0.2,0.155-0.422,0.169-0.667,0.109
			C41.026,70.729,41.196,70.717,41.339,70.67z"/>
		<path fill="#E2DBD6" d="M57.659,59.857c0.294-0.203,0.591-0.197,0.89-0.013C58.252,59.848,57.955,59.853,57.659,59.857z"/>
		<path fill="#C14F1D" d="M68.621,47.613c-0.194,0.295-0.389,0.59-0.583,0.885c-0.152,0.193-0.304,0.386-0.456,0.578
			c-0.662,0.522-1.435,0.665-2.253,0.661c-4.506-0.022-9.013-0.006-13.519-0.008c-1.106-0.001-2.209,0.006-3.241-0.483
			c-0.39-0.451-0.753-0.921-0.984-1.477c0.325-0.445,0.814-0.375,1.264-0.376c3.078-0.011,6.156-0.009,9.234-0.004
			c3.151,0.005,6.301-0.033,9.451,0.031c0.356,0.007,0.749-0.354,1.083,0.058C68.599,47.524,68.601,47.569,68.621,47.613z"/>
		<path fill="#C85320" d="M45.553,44.279c0.256-0.282,0.594-0.155,0.892-0.155c6.74-0.008,13.48-0.002,20.219-0.01
			c1.328-0.002,2.661,0.095,3.981-0.141c0.072,0.679-0.288,1.129-0.798,1.5c-0.155,0.091-0.236,0.247-0.483,0.242
			c-6.986-0.13-13.973-0.025-20.96-0.071c-0.714-0.005-1.43,0.087-2.144-0.016C45.934,45.227,45.705,44.773,45.553,44.279z"/>
		<path fill="#C4511F" d="M68.617,47.478c-6.603,0.32-13.211,0.053-19.816,0.134c-0.415,0.005-0.819,0.034-1.216,0.156
			c-0.315-0.284-0.488-0.663-0.684-1.027c0.711-0.316,1.457-0.512,2.233-0.514c6.227-0.017,12.454,0.004,18.68-0.013
			c0.502-0.001,0.959,0.11,1.275,0.548C68.977,47.032,68.866,47.301,68.617,47.478z"/>
		<path fill="#C65220" d="M69.089,46.764c-0.732-0.357-1.516-0.317-2.3-0.316c-5.781,0.006-11.563,0.025-17.344-0.019
			c-0.88-0.007-1.665,0.49-2.544,0.314c-0.255-0.348-0.494-0.704-0.64-1.113c0.907-0.499,1.879-0.175,2.812-0.181
			c6.698-0.039,13.396-0.034,20.094-0.019c0.282,0.001,0.541,0.102,0.762-0.14c0.072,0.104,0.068,0.199-0.033,0.282
			c-0.182,0.296-0.364,0.592-0.546,0.887C69.263,46.561,69.176,46.662,69.089,46.764z"/>
		<path fill="#BF4E1D" d="M48.569,49.246c0.237-0.043,0.09-0.294,0.232-0.424c0.582,0.853,1.479,0.681,2.301,0.684
			c3.932,0.015,7.865,0.016,11.797,0.002c1.572-0.006,3.168,0.2,4.683-0.432c-0.287,0.39-0.575,0.781-0.862,1.171
			c-0.178-0.023-0.289-0.345-0.501-0.159c-0.813,0.712-1.824,0.562-2.756,0.572c-4.236,0.045-8.474,0.006-12.71,0.052
			c-0.386,0.004-0.354-0.296-0.635-0.407c0.161,0.392-0.137,0.423-0.337,0.536C49.28,50.384,48.915,49.823,48.569,49.246z"/>
		<path fill="#B64A1B" d="M64.223,53.283c-0.46,0.486-0.919,0.972-1.379,1.457c-0.053,0.063-0.121,0.098-0.204,0.104
			c-0.079,0.001-0.158-0.007-0.237-0.019c-2.55-0.007-5.1-0.007-7.651,0.007c-0.493,0.003-0.996,0.288-1.473-0.065
			c-0.19-0.155-0.381-0.31-0.571-0.464c-0.148-0.182-0.296-0.365-0.445-0.547c0.165-0.648,0.534-0.915,1.249-0.905
			c2.961,0.04,5.923,0.015,8.885,0.02c0.235,0,0.485-0.066,0.712,0.281c-3.376,0-6.753,0-10.129,0
			c0.205,0.386,0.452,0.293,0.674,0.294c2.962,0.008,5.923,0.002,8.885,0.009c0.42,0.001,0.802-0.004,1.121-0.366
			C63.914,52.8,64.124,52.958,64.223,53.283z"/>
		<path fill="#B44A1B" d="M53.28,54.768c0.509-0.05,1.017-0.137,1.526-0.144c2.448-0.031,4.896-0.039,7.343-0.063
			c0.216-0.002,0.377,0.05,0.485,0.238c0.031,0.3-0.223,0.427-0.373,0.617c-0.114,0.114-0.225,0.229-0.34,0.343
			c-0.154,0.139-0.31,0.277-0.541,0.251c-0.068-0.018-0.131-0.048-0.188-0.088c-0.428-0.277-0.905-0.332-1.387-0.243
			c-1.531,0.282-3.072,0.106-4.608,0.129c-0.318,0.005-0.582-0.228-0.904-0.163c-0.075-0.022-0.149-0.044-0.224-0.065
			C53.807,55.309,53.543,55.038,53.28,54.768z"/>
		<path fill="#B1491A" d="M54.294,55.645c0.095-0.226,0.155-0.182,0.405-0.1c0.287,0.094,0.615,0.102,0.922,0.087
			c1.47-0.072,2.945,0.151,4.422-0.172c0.31-0.068,1.149-0.34,1.286,0.52c0.018,0.189-0.096,0.314-0.211,0.438
			c-0.196,0.177-0.432,0.302-0.625,0.483c-0.105,0.089-0.216,0.17-0.33,0.247c-0.321,0.219-0.642,0.435-0.976,0.633
			c-1.19,0.704-1.802,0.616-2.798-0.409c-0.111-0.14-0.211-0.298-0.423-0.292c-0.234-0.044-0.359-0.223-0.491-0.394
			c-0.09-0.062-0.179-0.124-0.269-0.186c-0.138-0.095-0.334-0.111-0.403-0.298C54.631,56.017,54.463,55.831,54.294,55.645z"/>
		<path fill="#E4DCD6" d="M54.8,56.203c0.181,0.037,0.315,0.136,0.404,0.298c-0.095,0.01-0.19,0.019-0.284,0.029
			c-0.132,0.015-0.31,0.176-0.384,0.02C54.446,56.363,54.646,56.272,54.8,56.203z"/>
		<path fill="#E2DBD6" d="M55.473,56.687c0.225,0.055,0.354,0.229,0.491,0.394c-0.26,0.053-0.521,0.105-0.781,0.158
			C55.263,57.047,55.484,56.928,55.473,56.687z"/>
		<path fill="#D2C9B8" d="M69.896,45.572c0.011-0.094,0.022-0.188,0.033-0.282c0.365-0.37,0.496-0.867,0.715-1.316
			c0.151-0.244,0.302-0.488,0.453-0.733c0.629-0.147,1.257-0.293,1.886-0.44c0.025,0.041,0.051,0.082,0.076,0.122
			c-0.58,0.525-1.116,1.113-1.753,1.556C70.815,44.821,70.544,45.443,69.896,45.572z"/>
		<path fill="#E3DCD6" d="M62.765,54.779c0.014-0.04,0.04-0.053,0.08-0.038c0.278,0.19,0.554,0.08,0.83-0.008
			c1.035-0.331,2.068-0.67,3.108-0.985c0.195-0.059,0.469-0.329,0.618,0.031c0.121,0.293,0.009,0.574-0.272,0.755
			c-0.549,0.352-1.083,0.735-1.656,1.042c-0.559,0.3-1.04,0.696-1.542,1.068c-0.263-0.547-0.449-1.144-1.061-1.444
			C62.729,55.132,62.618,54.964,62.765,54.779z"/>
		<path fill="#D7D0CA" d="M62.765,54.779c0.167,0.572,0.989,0.561,1.077,1.23c0.027,0.209,0.095,0.418,0.089,0.636
			c-0.049,0.051-0.099,0.101-0.148,0.152c-0.145,0.047-0.289,0.094-0.434,0.142c-0.181-0.689-0.601-1.203-1.181-1.598
			c0.156-0.181,0.312-0.361,0.468-0.542C62.677,54.787,62.72,54.781,62.765,54.779z"/>
		<path fill="#9E9792" d="M56.387,57.373c1.391,1.182,2.587,0.488,3.763-0.391c0.453,0.347,0.528,0.742,0.201,1.204
			c-0.224,0.317-0.524,0.559-0.869,0.74c-0.117,0.071-0.242,0.123-0.38,0.134c-0.297,0.026-0.569,0.148-0.854,0.224l0,0
			c-0.633,0.111-1.265,0.112-1.898-0.001c-0.424-0.052-0.781-0.268-0.823-0.687C55.468,57.992,55.947,57.676,56.387,57.373z"/>
		<path fill="#B0A9A4" d="M59.122,58.992c0.097-0.049,0.194-0.098,0.291-0.147c0.453-0.135,0.759-0.481,1.069-0.797
			c0.404-0.412,0.099-0.839-0.063-1.251c0.127-0.241,0.39-0.302,0.59-0.447c0.803,0.291,1.006,0.961,0.483,1.601
			c-0.26,0.319-0.626,0.513-0.932,0.778c-0.185,0.091-0.303,0.328-0.561,0.263c-0.292,0.048-0.585,0.096-0.877,0.145
			c-0.048-0.032-0.063-0.065-0.048-0.097C59.09,59.009,59.106,58.992,59.122,58.992z"/>
		<path fill="#E3DCD6" d="M59.999,58.993c0.145-0.101,0.29-0.202,0.435-0.304c0.171-0.072,0.297-0.265,0.521-0.193
			c0.024,0.022,0.047,0.044,0.071,0.066c-0.349,0.413-0.804,0.631-1.331,0.71C59.796,59.18,59.898,59.087,59.999,58.993z"/>
		<path fill="#A59E99" d="M56.351,59.284c0.633,0,1.265,0,1.898,0.001C57.616,59.522,56.983,59.525,56.351,59.284z"/>
		<path fill="#A59E99" d="M59.122,58.992c0,0.048,0,0.097,0,0.145c-0.292,0.048-0.566,0.199-0.874,0.147
			C58.499,59.068,58.802,59.005,59.122,58.992z"/>
		<path fill="#C7BFBA" d="M61.465,55.97c0.137-0.113,0.275-0.226,0.412-0.339c1.059,0.108,1.447,0.871,0.888,1.747
			c-0.203,0.136-0.471,0.187-0.585,0.442c-0.051,0.056-0.108,0.065-0.17,0.018c-0.011-0.02-0.035-0.044-0.031-0.062
			C62.119,57.085,62.031,56.46,61.465,55.97z"/>
		<path fill="#CFC8C3" d="M62.766,57.378c0.268-0.964,0.149-1.198-0.888-1.747c0.096-0.097,0.193-0.193,0.289-0.29
			c0.955,0.31,1.184,0.62,1.181,1.598C63.154,57.085,62.96,57.232,62.766,57.378z"/>
		<path fill="#E3DCD6" d="M62.033,57.81c0.049,0.003,0.099,0.006,0.148,0.009c-0.33,0.333-0.624,0.723-1.155,0.743l-0.014-0.016
			C61.173,58.053,61.516,57.812,62.033,57.81z"/>
		<path fill="#BAB3AE" d="M62.033,57.81c-0.356,0.224-0.758,0.383-1.02,0.737c-0.193,0.047-0.385,0.095-0.578,0.142
			c0.105-0.196,0.278-0.315,0.455-0.442c0.951-0.679,0.977-1.169,0.119-1.896c0.106-0.123,0.212-0.247,0.319-0.37
			c0.045-0.012,0.091-0.016,0.137-0.011C62.352,56.476,62.389,56.596,62.033,57.81z"/>
		<path fill="#A59E99" d="M60.419,56.798c0.627,0.52,0.66,1.051,0.024,1.493c-0.314,0.218-0.554,0.622-1.03,0.554
			c0.213-0.189,0.43-0.374,0.639-0.567c0.433-0.4,0.501-0.832,0.097-1.296C60.24,56.921,60.329,56.86,60.419,56.798z"/>
	</g>
	<g>
		<g>
			<g>
				<path fill="#727176" d="M50.582,24.852h2.821l3.681,5.409v-5.409h2.848v9.777h-2.848l-3.661-5.368v5.368h-2.841V24.852z"/>
			</g>
			<g>
				<path fill="#727176" d="M57.084,34.629v-9.777h5.035c0.934,0,1.647,0.08,2.141,0.24c0.493,0.16,0.891,0.457,1.194,0.89
					c0.302,0.434,0.454,0.962,0.454,1.584c0,0.542-0.116,1.01-0.347,1.404s-0.55,0.713-0.954,0.957
					c-0.258,0.156-0.612,0.285-1.061,0.387c0.36,0.12,0.622,0.24,0.787,0.36c0.111,0.08,0.272,0.251,0.483,0.514
					s0.352,0.465,0.423,0.607l1.463,2.833h-3.414l-1.615-2.988c-0.205-0.387-0.387-0.638-0.547-0.754
					c-0.218-0.151-0.465-0.227-0.74-0.227h-0.267v3.968h-3.035V34.629z M60.118,28.814h1.274c0.138,0,0.405-0.044,0.8-0.133
					c0.2-0.04,0.363-0.142,0.49-0.307c0.127-0.164,0.19-0.353,0.19-0.567c0-0.316-0.1-0.558-0.3-0.727
					c-0.2-0.169-0.576-0.253-1.127-0.253h-1.327V28.814z"/>
			</g>
		</g>
		<g>
			<path fill="#727176" d="M58.189,23.102c0.514-0.033,0.764,0.381,0.53,0.925c-0.234,0.544-0.842,0.965-1.332,0.942
				c-0.462-0.022-0.647-0.437-0.437-0.926C57.161,23.553,57.704,23.133,58.189,23.102L58.189,23.102z M55.401,23.818
				c-0.098,1.525,0.163,2.875,1.796,2.863c1.75-0.012,3.054-1.265,4.462-3.244c0.146-0.206,0.426-0.58,0.318-0.492
				c-0.129,0.104-0.8,0.714-1.792,1.422c-0.887,0.634-1.997,1.007-2.775,1.056c-0.543,0.033-0.998-0.082-1.383-0.367
				C55.547,24.697,55.488,24.161,55.401,23.818L55.401,23.818z"/>
			<path fill="#727176" d="M54.484,34.27c-0.549-0.214-0.801-0.898-0.592-1.536c0.209-0.639,0.818-1.045,1.39-0.9
				c0.607,0.154,0.937,0.862,0.705,1.572C55.754,34.115,55.067,34.498,54.484,34.27L54.484,34.27z M58.944,35.76
				c0.325-2.811-0.385-5.087-2.559-5.719c-1.718-0.5-2.929,0.327-4.203,1.942c-0.124,0.158-0.355,0.434-0.278,0.387
				c0.093-0.056,0.608-0.434,1.401-0.823c0.791-0.389,1.838-0.407,2.65-0.128c0.637,0.22,1.203,0.641,1.701,1.336
				C58.355,33.731,58.822,34.991,58.944,35.76L58.944,35.76z"/>
			<g>
				<path fill="#727176" d="M54.867,24.334c0,0-0.036,4.037-2.721,5.264c0,0,0.94,0.502,1.796-0.498
					C53.942,29.1,56.076,26.806,54.867,24.334z"/>
				
					<ellipse transform="matrix(-0.4027 0.9153 -0.9153 -0.4027 100.238 -10.8803)" fill="#727176" cx="53.669" cy="27.265" rx="0.987" ry="0.371"/>
			</g>
			<g>
				
					<ellipse transform="matrix(0.2162 -0.9763 0.9763 0.2162 20.3318 83.3985)" fill="#727176" cx="62.11" cy="29.036" rx="1.714" ry="1.391"/>
				<path fill="#727176" d="M63.064,35.571c-10.218-5.818-0.185-12.103-0.185-12.103S56.546,29.345,63.064,35.571z"/>
			</g>
		</g>
	</g>
	<g>
		<g>
			<g>
				<path fill="#C3C4C9" d="M50.382,24.652h2.821l3.681,5.409v-5.409h2.848v9.777h-2.848l-3.661-5.368v5.368h-2.841V24.652z"/>
			</g>
			<g>
				<path fill="#D8D9DD" d="M56.884,34.429v-9.777h5.035c0.934,0,1.647,0.08,2.141,0.24c0.493,0.16,0.891,0.457,1.194,0.89
					c0.302,0.434,0.454,0.962,0.454,1.584c0,0.542-0.116,1.01-0.347,1.404s-0.55,0.713-0.954,0.957
					c-0.258,0.156-0.612,0.285-1.061,0.387c0.36,0.12,0.622,0.24,0.787,0.36c0.111,0.08,0.272,0.251,0.483,0.514
					s0.352,0.465,0.423,0.607l1.463,2.833h-3.414l-1.615-2.988c-0.205-0.387-0.387-0.638-0.547-0.754
					c-0.218-0.151-0.465-0.227-0.74-0.227h-0.267v3.968h-3.035V34.429z M59.918,28.614h1.274c0.138,0,0.405-0.044,0.8-0.133
					c0.2-0.04,0.363-0.142,0.49-0.307c0.127-0.164,0.19-0.353,0.19-0.567c0-0.316-0.1-0.558-0.3-0.727
					c-0.2-0.169-0.576-0.253-1.127-0.253h-1.327V28.614z"/>
			</g>
		</g>
		<g>
			
				<linearGradient id="SVGID_2_" gradientUnits="userSpaceOnUse" x1="46.783" y1="51.4935" x2="53.4012" y2="51.4935" gradientTransform="matrix(1 0 0 -1 8.4 76.1)">
				<stop  offset="0" style="stop-color:#587934"/>
				<stop  offset="0.1396" style="stop-color:#648535"/>
				<stop  offset="0.4664" style="stop-color:#7DA037"/>
				<stop  offset="0.7629" style="stop-color:#8EB036"/>
				<stop  offset="1" style="stop-color:#93B536"/>
			</linearGradient>
			<path fill="url(#SVGID_2_)" d="M57.989,22.902c0.514-0.033,0.764,0.381,0.53,0.925c-0.234,0.544-0.842,0.965-1.332,0.942
				c-0.462-0.022-0.647-0.437-0.437-0.926C56.961,23.353,57.504,22.933,57.989,22.902L57.989,22.902z M55.201,23.618
				c-0.098,1.525,0.163,2.875,1.796,2.863c1.75-0.012,3.054-1.265,4.462-3.244c0.146-0.206,0.426-0.58,0.318-0.492
				c-0.129,0.104-0.8,0.714-1.792,1.422c-0.887,0.634-1.997,1.007-2.775,1.056c-0.543,0.033-0.998-0.082-1.383-0.367
				C55.347,24.497,55.288,23.961,55.201,23.618L55.201,23.618z"/>
			
				<linearGradient id="SVGID_3_" gradientUnits="userSpaceOnUse" x1="43.2886" y1="43.472" x2="50.419" y2="43.472" gradientTransform="matrix(1 0 0 -1 8.4 76.1)">
				<stop  offset="0" style="stop-color:#587934"/>
				<stop  offset="0.1396" style="stop-color:#648535"/>
				<stop  offset="0.4664" style="stop-color:#7DA037"/>
				<stop  offset="0.7629" style="stop-color:#8EB036"/>
				<stop  offset="1" style="stop-color:#93B536"/>
			</linearGradient>
			<path fill="url(#SVGID_3_)" d="M54.284,34.07c-0.549-0.214-0.801-0.898-0.592-1.536c0.209-0.639,0.818-1.045,1.39-0.9
				c0.607,0.154,0.937,0.862,0.705,1.572C55.554,33.915,54.867,34.298,54.284,34.07L54.284,34.07z M58.744,35.56
				c0.325-2.811-0.385-5.087-2.559-5.719c-1.718-0.5-2.929,0.327-4.203,1.942c-0.124,0.158-0.355,0.434-0.278,0.387
				c0.093-0.056,0.608-0.434,1.401-0.823c0.791-0.389,1.838-0.407,2.65-0.128c0.637,0.22,1.203,0.641,1.701,1.336
				C58.155,33.531,58.622,34.791,58.744,35.56L58.744,35.56z"/>
			<g>
				
					<linearGradient id="SVGID_4_" gradientUnits="userSpaceOnUse" x1="43.546" y1="49.271" x2="46.6379" y2="49.271" gradientTransform="matrix(1 0 0 -1 8.4 76.1)">
					<stop  offset="0" style="stop-color:#7A3125"/>
					<stop  offset="0.1824" style="stop-color:#873024"/>
					<stop  offset="0.4929" style="stop-color:#9B2A20"/>
					<stop  offset="0.7746" style="stop-color:#A6221C"/>
					<stop  offset="1" style="stop-color:#AA1D1A"/>
				</linearGradient>
				<path fill="url(#SVGID_4_)" d="M54.667,24.134c0,0-0.036,4.037-2.721,5.264c0,0,0.94,0.502,1.796-0.498
					C53.742,28.9,55.876,26.606,54.667,24.134z"/>
				
					<linearGradient id="SVGID_5_" gradientUnits="userSpaceOnUse" x1="44.5433" y1="49.035" x2="45.5887" y2="49.035" gradientTransform="matrix(1 0 0 -1 8.4 76.1)">
					<stop  offset="0" style="stop-color:#7A3125"/>
					<stop  offset="0.1824" style="stop-color:#873024"/>
					<stop  offset="0.4929" style="stop-color:#9B2A20"/>
					<stop  offset="0.7746" style="stop-color:#A6221C"/>
					<stop  offset="1" style="stop-color:#AA1D1A"/>
				</linearGradient>
				<path fill="url(#SVGID_5_)" d="M53.126,26.915c-0.219,0.499-0.245,0.97-0.057,1.053s0.518-0.255,0.737-0.753
					c0.219-0.499,0.245-0.97,0.057-1.053C53.676,26.079,53.345,26.416,53.126,26.915z"/>
			</g>
			<g>
				
					<linearGradient id="SVGID_6_" gradientUnits="userSpaceOnUse" x1="52.1033" y1="47.262" x2="54.9201" y2="47.262" gradientTransform="matrix(1 0 0 -1 8.4 76.1)">
					<stop  offset="0" style="stop-color:#7A3125"/>
					<stop  offset="0.1824" style="stop-color:#873024"/>
					<stop  offset="0.4929" style="stop-color:#9B2A20"/>
					<stop  offset="0.7746" style="stop-color:#A6221C"/>
					<stop  offset="1" style="stop-color:#AA1D1A"/>
				</linearGradient>
				<path fill="url(#SVGID_6_)" d="M63.27,29.139c-0.205,0.924-0.979,1.538-1.729,1.372s-1.192-1.05-0.988-1.974
					c0.205-0.924,0.979-1.538,1.729-1.372S63.475,28.215,63.27,29.139z"/>
				
					<linearGradient id="SVGID_7_" gradientUnits="userSpaceOnUse" x1="49.8742" y1="46.7805" x2="54.464" y2="46.7805" gradientTransform="matrix(1 0 0 -1 8.4 76.1)">
					<stop  offset="0" style="stop-color:#7A3125"/>
					<stop  offset="0.1824" style="stop-color:#873024"/>
					<stop  offset="0.4929" style="stop-color:#9B2A20"/>
					<stop  offset="0.7746" style="stop-color:#A6221C"/>
					<stop  offset="1" style="stop-color:#AA1D1A"/>
				</linearGradient>
				<path fill="url(#SVGID_7_)" d="M62.864,35.371c-10.218-5.818-0.185-12.103-0.185-12.103S56.346,29.145,62.864,35.371z"/>
			</g>
		</g>
	</g>
</g>
</svg>
